G04 #@! TF.GenerationSoftware,KiCad,Pcbnew,(5.1.4)-1*
G04 #@! TF.CreationDate,2020-05-05T22:33:11+03:00*
G04 #@! TF.ProjectId,Single_Transitor_Amp,53696e67-6c65-45f5-9472-616e7369746f,V1.0*
G04 #@! TF.SameCoordinates,Original*
G04 #@! TF.FileFunction,Soldermask,Bot*
G04 #@! TF.FilePolarity,Negative*
%FSLAX46Y46*%
G04 Gerber Fmt 4.6, Leading zero omitted, Abs format (unit mm)*
G04 Created by KiCad (PCBNEW (5.1.4)-1) date 2020-05-05 22:33:11*
%MOMM*%
%LPD*%
G04 APERTURE LIST*
%ADD10C,0.100000*%
G04 APERTURE END LIST*
D10*
G36*
X107281000Y-114801000D02*
G01*
X105579000Y-114801000D01*
X105579000Y-113099000D01*
X107281000Y-113099000D01*
X107281000Y-114801000D01*
X107281000Y-114801000D01*
G37*
G36*
X109178228Y-113131703D02*
G01*
X109333100Y-113195853D01*
X109472481Y-113288985D01*
X109591015Y-113407519D01*
X109684147Y-113546900D01*
X109748297Y-113701772D01*
X109781000Y-113866184D01*
X109781000Y-114033816D01*
X109748297Y-114198228D01*
X109684147Y-114353100D01*
X109591015Y-114492481D01*
X109472481Y-114611015D01*
X109333100Y-114704147D01*
X109178228Y-114768297D01*
X109013816Y-114801000D01*
X108846184Y-114801000D01*
X108681772Y-114768297D01*
X108526900Y-114704147D01*
X108387519Y-114611015D01*
X108268985Y-114492481D01*
X108175853Y-114353100D01*
X108111703Y-114198228D01*
X108079000Y-114033816D01*
X108079000Y-113866184D01*
X108111703Y-113701772D01*
X108175853Y-113546900D01*
X108268985Y-113407519D01*
X108387519Y-113288985D01*
X108526900Y-113195853D01*
X108681772Y-113131703D01*
X108846184Y-113099000D01*
X109013816Y-113099000D01*
X109178228Y-113131703D01*
X109178228Y-113131703D01*
G37*
G36*
X103771000Y-109831000D02*
G01*
X103542735Y-109831000D01*
X103518349Y-109833402D01*
X103494900Y-109840515D01*
X103473289Y-109852066D01*
X103454347Y-109867611D01*
X103438802Y-109886553D01*
X103427251Y-109908164D01*
X103420138Y-109931613D01*
X103417736Y-109955999D01*
X103420138Y-109980385D01*
X103427251Y-110003834D01*
X103438802Y-110025445D01*
X103454347Y-110044387D01*
X103473289Y-110059932D01*
X103483802Y-110066233D01*
X103527600Y-110089644D01*
X103611501Y-110158499D01*
X103680357Y-110242400D01*
X103716995Y-110310945D01*
X103731521Y-110338121D01*
X103763027Y-110441985D01*
X103773666Y-110550000D01*
X103763027Y-110658015D01*
X103731521Y-110761879D01*
X103731519Y-110761882D01*
X103680357Y-110857600D01*
X103611501Y-110941501D01*
X103527600Y-111010357D01*
X103459055Y-111046995D01*
X103431879Y-111061521D01*
X103328015Y-111093027D01*
X103247067Y-111101000D01*
X103192933Y-111101000D01*
X103111985Y-111093027D01*
X103008121Y-111061521D01*
X102980945Y-111046995D01*
X102912400Y-111010357D01*
X102828499Y-110941501D01*
X102759643Y-110857600D01*
X102708481Y-110761882D01*
X102708479Y-110761879D01*
X102676973Y-110658015D01*
X102666334Y-110550000D01*
X102676973Y-110441985D01*
X102708479Y-110338121D01*
X102723005Y-110310945D01*
X102759643Y-110242400D01*
X102828499Y-110158499D01*
X102912400Y-110089644D01*
X102956193Y-110066236D01*
X102976563Y-110052625D01*
X102993890Y-110035298D01*
X103007504Y-110014924D01*
X103016881Y-109992285D01*
X103021662Y-109968252D01*
X103021662Y-109943748D01*
X103016882Y-109919714D01*
X103007505Y-109897076D01*
X102993891Y-109876701D01*
X102976564Y-109859374D01*
X102956190Y-109845760D01*
X102933551Y-109836383D01*
X102909518Y-109831602D01*
X102897265Y-109831000D01*
X102669000Y-109831000D01*
X102669000Y-108729000D01*
X103771000Y-108729000D01*
X103771000Y-109831000D01*
X103771000Y-109831000D01*
G37*
G36*
X120988015Y-108316973D02*
G01*
X121091879Y-108348479D01*
X121119055Y-108363005D01*
X121187600Y-108399643D01*
X121271501Y-108468499D01*
X121340357Y-108552400D01*
X121376995Y-108620945D01*
X121391521Y-108648121D01*
X121423027Y-108751985D01*
X121433666Y-108860000D01*
X121423027Y-108968015D01*
X121391521Y-109071879D01*
X121376995Y-109099055D01*
X121340357Y-109167600D01*
X121282621Y-109237951D01*
X121271501Y-109251501D01*
X121187600Y-109320356D01*
X121143807Y-109343764D01*
X121123437Y-109357375D01*
X121106110Y-109374702D01*
X121092496Y-109395076D01*
X121083119Y-109417715D01*
X121078338Y-109441748D01*
X121078338Y-109466252D01*
X121083118Y-109490286D01*
X121092495Y-109512924D01*
X121106109Y-109533299D01*
X121123436Y-109550626D01*
X121143810Y-109564240D01*
X121166449Y-109573617D01*
X121190482Y-109578398D01*
X121202735Y-109579000D01*
X121431000Y-109579000D01*
X121431000Y-110681000D01*
X120329000Y-110681000D01*
X120329000Y-109579000D01*
X120557265Y-109579000D01*
X120581651Y-109576598D01*
X120605100Y-109569485D01*
X120626711Y-109557934D01*
X120645653Y-109542389D01*
X120661198Y-109523447D01*
X120672749Y-109501836D01*
X120679862Y-109478387D01*
X120682264Y-109454001D01*
X120679862Y-109429615D01*
X120672749Y-109406166D01*
X120661198Y-109384555D01*
X120645653Y-109365613D01*
X120626711Y-109350068D01*
X120616198Y-109343767D01*
X120572400Y-109320356D01*
X120488499Y-109251501D01*
X120477379Y-109237951D01*
X120419643Y-109167600D01*
X120383005Y-109099055D01*
X120368479Y-109071879D01*
X120336973Y-108968015D01*
X120326334Y-108860000D01*
X120336973Y-108751985D01*
X120368479Y-108648121D01*
X120383005Y-108620945D01*
X120419643Y-108552400D01*
X120488499Y-108468499D01*
X120572400Y-108399643D01*
X120640945Y-108363005D01*
X120668121Y-108348479D01*
X120771985Y-108316973D01*
X120852933Y-108309000D01*
X120907067Y-108309000D01*
X120988015Y-108316973D01*
X120988015Y-108316973D01*
G37*
G36*
X114791000Y-109001000D02*
G01*
X113516749Y-109001000D01*
X113492363Y-109003402D01*
X113468914Y-109010515D01*
X113447303Y-109022066D01*
X113428361Y-109037611D01*
X113412816Y-109056553D01*
X113401265Y-109078164D01*
X113394152Y-109101613D01*
X113391750Y-109125999D01*
X113394152Y-109150385D01*
X113401265Y-109173834D01*
X113412816Y-109195444D01*
X113441218Y-109237951D01*
X113494062Y-109365527D01*
X113521000Y-109500956D01*
X113521000Y-109639044D01*
X113494062Y-109774473D01*
X113441218Y-109902049D01*
X113364505Y-110016859D01*
X113266859Y-110114505D01*
X113152049Y-110191218D01*
X113024473Y-110244062D01*
X112889044Y-110271000D01*
X112750956Y-110271000D01*
X112615527Y-110244062D01*
X112487951Y-110191218D01*
X112373141Y-110114505D01*
X112275495Y-110016859D01*
X112198782Y-109902049D01*
X112145938Y-109774473D01*
X112119000Y-109639044D01*
X112119000Y-109500956D01*
X112145938Y-109365527D01*
X112198782Y-109237951D01*
X112275495Y-109123141D01*
X112373141Y-109025495D01*
X112487951Y-108948782D01*
X112615527Y-108895938D01*
X112750956Y-108869000D01*
X112889044Y-108869000D01*
X113024473Y-108895938D01*
X113152049Y-108948782D01*
X113194556Y-108977184D01*
X113216167Y-108988735D01*
X113239616Y-108995848D01*
X113264002Y-108998250D01*
X113288388Y-108995848D01*
X113311837Y-108988735D01*
X113333447Y-108977183D01*
X113352389Y-108961638D01*
X113367934Y-108942696D01*
X113379485Y-108921085D01*
X113386598Y-108897636D01*
X113389000Y-108873251D01*
X113389000Y-107599000D01*
X114791000Y-107599000D01*
X114791000Y-109001000D01*
X114791000Y-109001000D01*
G37*
G36*
X111754473Y-107625938D02*
G01*
X111882049Y-107678782D01*
X111996859Y-107755495D01*
X112094505Y-107853141D01*
X112171218Y-107967951D01*
X112224062Y-108095527D01*
X112251000Y-108230956D01*
X112251000Y-108369044D01*
X112224062Y-108504473D01*
X112171218Y-108632049D01*
X112094505Y-108746859D01*
X111996859Y-108844505D01*
X111882049Y-108921218D01*
X111754473Y-108974062D01*
X111619044Y-109001000D01*
X111480956Y-109001000D01*
X111345527Y-108974062D01*
X111217951Y-108921218D01*
X111103141Y-108844505D01*
X111005495Y-108746859D01*
X110928782Y-108632049D01*
X110875938Y-108504473D01*
X110849000Y-108369044D01*
X110849000Y-108230956D01*
X110875938Y-108095527D01*
X110928782Y-107967951D01*
X111005495Y-107853141D01*
X111103141Y-107755495D01*
X111217951Y-107678782D01*
X111345527Y-107625938D01*
X111480956Y-107599000D01*
X111619044Y-107599000D01*
X111754473Y-107625938D01*
X111754473Y-107625938D01*
G37*
G36*
X112078015Y-103956973D02*
G01*
X112181879Y-103988479D01*
X112209055Y-104003005D01*
X112277600Y-104039643D01*
X112361501Y-104108499D01*
X112430356Y-104192400D01*
X112453764Y-104236193D01*
X112467375Y-104256563D01*
X112484702Y-104273890D01*
X112505076Y-104287504D01*
X112527715Y-104296881D01*
X112551748Y-104301662D01*
X112576252Y-104301662D01*
X112600286Y-104296882D01*
X112622924Y-104287505D01*
X112643299Y-104273891D01*
X112660626Y-104256564D01*
X112674240Y-104236190D01*
X112683617Y-104213551D01*
X112688398Y-104189518D01*
X112689000Y-104177265D01*
X112689000Y-103949000D01*
X113791000Y-103949000D01*
X113791000Y-105051000D01*
X112689000Y-105051000D01*
X112689000Y-104822735D01*
X112686598Y-104798349D01*
X112679485Y-104774900D01*
X112667934Y-104753289D01*
X112652389Y-104734347D01*
X112633447Y-104718802D01*
X112611836Y-104707251D01*
X112588387Y-104700138D01*
X112564001Y-104697736D01*
X112539615Y-104700138D01*
X112516166Y-104707251D01*
X112494555Y-104718802D01*
X112475613Y-104734347D01*
X112460068Y-104753289D01*
X112453767Y-104763802D01*
X112430356Y-104807600D01*
X112430355Y-104807601D01*
X112361501Y-104891501D01*
X112277600Y-104960357D01*
X112209055Y-104996995D01*
X112181879Y-105011521D01*
X112078015Y-105043027D01*
X111997067Y-105051000D01*
X111942933Y-105051000D01*
X111861985Y-105043027D01*
X111758121Y-105011521D01*
X111730945Y-104996995D01*
X111662400Y-104960357D01*
X111578499Y-104891501D01*
X111509643Y-104807600D01*
X111470489Y-104734347D01*
X111458479Y-104711879D01*
X111426973Y-104608015D01*
X111416334Y-104500000D01*
X111426973Y-104391985D01*
X111458479Y-104288121D01*
X111498338Y-104213551D01*
X111509643Y-104192400D01*
X111578499Y-104108499D01*
X111662400Y-104039643D01*
X111730945Y-104003005D01*
X111758121Y-103988479D01*
X111861985Y-103956973D01*
X111942933Y-103949000D01*
X111997067Y-103949000D01*
X112078015Y-103956973D01*
X112078015Y-103956973D01*
G37*
M02*
