G04 #@! TF.GenerationSoftware,KiCad,Pcbnew,(5.1.4)-1*
G04 #@! TF.CreationDate,2020-05-05T22:33:11+03:00*
G04 #@! TF.ProjectId,Single_Transitor_Amp,53696e67-6c65-45f5-9472-616e7369746f,V1.0*
G04 #@! TF.SameCoordinates,Original*
G04 #@! TF.FileFunction,Legend,Top*
G04 #@! TF.FilePolarity,Positive*
%FSLAX46Y46*%
G04 Gerber Fmt 4.6, Leading zero omitted, Abs format (unit mm)*
G04 Created by KiCad (PCBNEW (5.1.4)-1) date 2020-05-05 22:33:11*
%MOMM*%
%LPD*%
G04 APERTURE LIST*
%ADD10C,0.120000*%
%ADD11C,0.150000*%
G04 APERTURE END LIST*
D10*
X104494759Y-111796000D02*
X104494759Y-112426000D01*
X104179759Y-112111000D02*
X104809759Y-112111000D01*
X110921000Y-113548000D02*
X110921000Y-114352000D01*
X110881000Y-113317000D02*
X110881000Y-114583000D01*
X110841000Y-113148000D02*
X110841000Y-114752000D01*
X110801000Y-113010000D02*
X110801000Y-114890000D01*
X110761000Y-112891000D02*
X110761000Y-115009000D01*
X110721000Y-112785000D02*
X110721000Y-115115000D01*
X110681000Y-112688000D02*
X110681000Y-115212000D01*
X110641000Y-112600000D02*
X110641000Y-115300000D01*
X110601000Y-112518000D02*
X110601000Y-115382000D01*
X110561000Y-112441000D02*
X110561000Y-115459000D01*
X110521000Y-112369000D02*
X110521000Y-115531000D01*
X110481000Y-112300000D02*
X110481000Y-115600000D01*
X110441000Y-112236000D02*
X110441000Y-115664000D01*
X110401000Y-112174000D02*
X110401000Y-115726000D01*
X110361000Y-112116000D02*
X110361000Y-115784000D01*
X110321000Y-112060000D02*
X110321000Y-115840000D01*
X110281000Y-112006000D02*
X110281000Y-115894000D01*
X110241000Y-111955000D02*
X110241000Y-115945000D01*
X110201000Y-111906000D02*
X110201000Y-115994000D01*
X110161000Y-111858000D02*
X110161000Y-116042000D01*
X110121000Y-111813000D02*
X110121000Y-116087000D01*
X110081000Y-111768000D02*
X110081000Y-116132000D01*
X110041000Y-111726000D02*
X110041000Y-116174000D01*
X110001000Y-111685000D02*
X110001000Y-116215000D01*
X109961000Y-114990000D02*
X109961000Y-116255000D01*
X109961000Y-111645000D02*
X109961000Y-112910000D01*
X109921000Y-114990000D02*
X109921000Y-116293000D01*
X109921000Y-111607000D02*
X109921000Y-112910000D01*
X109881000Y-114990000D02*
X109881000Y-116330000D01*
X109881000Y-111570000D02*
X109881000Y-112910000D01*
X109841000Y-114990000D02*
X109841000Y-116366000D01*
X109841000Y-111534000D02*
X109841000Y-112910000D01*
X109801000Y-114990000D02*
X109801000Y-116400000D01*
X109801000Y-111500000D02*
X109801000Y-112910000D01*
X109761000Y-114990000D02*
X109761000Y-116434000D01*
X109761000Y-111466000D02*
X109761000Y-112910000D01*
X109721000Y-114990000D02*
X109721000Y-116466000D01*
X109721000Y-111434000D02*
X109721000Y-112910000D01*
X109681000Y-114990000D02*
X109681000Y-116498000D01*
X109681000Y-111402000D02*
X109681000Y-112910000D01*
X109641000Y-114990000D02*
X109641000Y-116528000D01*
X109641000Y-111372000D02*
X109641000Y-112910000D01*
X109601000Y-114990000D02*
X109601000Y-116557000D01*
X109601000Y-111343000D02*
X109601000Y-112910000D01*
X109561000Y-114990000D02*
X109561000Y-116586000D01*
X109561000Y-111314000D02*
X109561000Y-112910000D01*
X109521000Y-114990000D02*
X109521000Y-116614000D01*
X109521000Y-111286000D02*
X109521000Y-112910000D01*
X109481000Y-114990000D02*
X109481000Y-116640000D01*
X109481000Y-111260000D02*
X109481000Y-112910000D01*
X109441000Y-114990000D02*
X109441000Y-116666000D01*
X109441000Y-111234000D02*
X109441000Y-112910000D01*
X109401000Y-114990000D02*
X109401000Y-116692000D01*
X109401000Y-111208000D02*
X109401000Y-112910000D01*
X109361000Y-114990000D02*
X109361000Y-116716000D01*
X109361000Y-111184000D02*
X109361000Y-112910000D01*
X109321000Y-114990000D02*
X109321000Y-116740000D01*
X109321000Y-111160000D02*
X109321000Y-112910000D01*
X109281000Y-114990000D02*
X109281000Y-116762000D01*
X109281000Y-111138000D02*
X109281000Y-112910000D01*
X109241000Y-114990000D02*
X109241000Y-116784000D01*
X109241000Y-111116000D02*
X109241000Y-112910000D01*
X109201000Y-114990000D02*
X109201000Y-116806000D01*
X109201000Y-111094000D02*
X109201000Y-112910000D01*
X109161000Y-114990000D02*
X109161000Y-116826000D01*
X109161000Y-111074000D02*
X109161000Y-112910000D01*
X109121000Y-114990000D02*
X109121000Y-116846000D01*
X109121000Y-111054000D02*
X109121000Y-112910000D01*
X109081000Y-114990000D02*
X109081000Y-116866000D01*
X109081000Y-111034000D02*
X109081000Y-112910000D01*
X109041000Y-114990000D02*
X109041000Y-116884000D01*
X109041000Y-111016000D02*
X109041000Y-112910000D01*
X109001000Y-114990000D02*
X109001000Y-116902000D01*
X109001000Y-110998000D02*
X109001000Y-112910000D01*
X108961000Y-114990000D02*
X108961000Y-116920000D01*
X108961000Y-110980000D02*
X108961000Y-112910000D01*
X108921000Y-114990000D02*
X108921000Y-116936000D01*
X108921000Y-110964000D02*
X108921000Y-112910000D01*
X108881000Y-114990000D02*
X108881000Y-116952000D01*
X108881000Y-110948000D02*
X108881000Y-112910000D01*
X108841000Y-114990000D02*
X108841000Y-116968000D01*
X108841000Y-110932000D02*
X108841000Y-112910000D01*
X108801000Y-114990000D02*
X108801000Y-116983000D01*
X108801000Y-110917000D02*
X108801000Y-112910000D01*
X108761000Y-114990000D02*
X108761000Y-116997000D01*
X108761000Y-110903000D02*
X108761000Y-112910000D01*
X108721000Y-114990000D02*
X108721000Y-117011000D01*
X108721000Y-110889000D02*
X108721000Y-112910000D01*
X108681000Y-114990000D02*
X108681000Y-117024000D01*
X108681000Y-110876000D02*
X108681000Y-112910000D01*
X108641000Y-114990000D02*
X108641000Y-117036000D01*
X108641000Y-110864000D02*
X108641000Y-112910000D01*
X108601000Y-114990000D02*
X108601000Y-117048000D01*
X108601000Y-110852000D02*
X108601000Y-112910000D01*
X108561000Y-114990000D02*
X108561000Y-117060000D01*
X108561000Y-110840000D02*
X108561000Y-112910000D01*
X108521000Y-114990000D02*
X108521000Y-117071000D01*
X108521000Y-110829000D02*
X108521000Y-112910000D01*
X108481000Y-114990000D02*
X108481000Y-117081000D01*
X108481000Y-110819000D02*
X108481000Y-112910000D01*
X108441000Y-114990000D02*
X108441000Y-117091000D01*
X108441000Y-110809000D02*
X108441000Y-112910000D01*
X108401000Y-114990000D02*
X108401000Y-117100000D01*
X108401000Y-110800000D02*
X108401000Y-112910000D01*
X108360000Y-114990000D02*
X108360000Y-117109000D01*
X108360000Y-110791000D02*
X108360000Y-112910000D01*
X108320000Y-114990000D02*
X108320000Y-117117000D01*
X108320000Y-110783000D02*
X108320000Y-112910000D01*
X108280000Y-114990000D02*
X108280000Y-117125000D01*
X108280000Y-110775000D02*
X108280000Y-112910000D01*
X108240000Y-114990000D02*
X108240000Y-117132000D01*
X108240000Y-110768000D02*
X108240000Y-112910000D01*
X108200000Y-114990000D02*
X108200000Y-117139000D01*
X108200000Y-110761000D02*
X108200000Y-112910000D01*
X108160000Y-114990000D02*
X108160000Y-117145000D01*
X108160000Y-110755000D02*
X108160000Y-112910000D01*
X108120000Y-114990000D02*
X108120000Y-117151000D01*
X108120000Y-110749000D02*
X108120000Y-112910000D01*
X108080000Y-114990000D02*
X108080000Y-117156000D01*
X108080000Y-110744000D02*
X108080000Y-112910000D01*
X108040000Y-114990000D02*
X108040000Y-117161000D01*
X108040000Y-110739000D02*
X108040000Y-112910000D01*
X108000000Y-114990000D02*
X108000000Y-117165000D01*
X108000000Y-110735000D02*
X108000000Y-112910000D01*
X107960000Y-114990000D02*
X107960000Y-117168000D01*
X107960000Y-110732000D02*
X107960000Y-112910000D01*
X107920000Y-114990000D02*
X107920000Y-117172000D01*
X107920000Y-110728000D02*
X107920000Y-112910000D01*
X107880000Y-110726000D02*
X107880000Y-117174000D01*
X107840000Y-110723000D02*
X107840000Y-117177000D01*
X107800000Y-110722000D02*
X107800000Y-117178000D01*
X107760000Y-110720000D02*
X107760000Y-117180000D01*
X107720000Y-110720000D02*
X107720000Y-117180000D01*
X107680000Y-110720000D02*
X107680000Y-117180000D01*
X110950000Y-113950000D02*
G75*
G03X110950000Y-113950000I-3270000J0D01*
G01*
X118490000Y-109487221D02*
X118490000Y-109812779D01*
X117470000Y-109487221D02*
X117470000Y-109812779D01*
X121990000Y-108165000D02*
X121187530Y-108165000D01*
X120572470Y-108165000D02*
X119770000Y-108165000D01*
X121990000Y-109370000D02*
X121990000Y-108165000D01*
X119770000Y-109370000D02*
X119770000Y-108165000D01*
X121990000Y-109370000D02*
X121443471Y-109370000D01*
X120316529Y-109370000D02*
X119770000Y-109370000D01*
X121990000Y-110130000D02*
X121990000Y-110890000D01*
X121990000Y-110890000D02*
X120880000Y-110890000D01*
X115900000Y-109487221D02*
X115900000Y-109812779D01*
X116920000Y-109487221D02*
X116920000Y-109812779D01*
X108252064Y-106480000D02*
X107047936Y-106480000D01*
X108252064Y-108300000D02*
X107047936Y-108300000D01*
X107212779Y-108860000D02*
X106887221Y-108860000D01*
X107212779Y-109880000D02*
X106887221Y-109880000D01*
X102110000Y-108520000D02*
X103220000Y-108520000D01*
X102110000Y-109280000D02*
X102110000Y-108520000D01*
X103783471Y-110040000D02*
X104330000Y-110040000D01*
X102110000Y-110040000D02*
X102656529Y-110040000D01*
X104330000Y-110040000D02*
X104330000Y-111245000D01*
X102110000Y-110040000D02*
X102110000Y-111245000D01*
X103527530Y-111245000D02*
X104330000Y-111245000D01*
X102110000Y-111245000D02*
X102912470Y-111245000D01*
X110981522Y-106461522D02*
G75*
G03X112820000Y-110900000I1838478J-1838478D01*
G01*
X114658478Y-106461522D02*
G75*
G02X112820000Y-110900000I-1838478J-1838478D01*
G01*
X114620000Y-106450000D02*
X111020000Y-106450000D01*
X114000000Y-103390000D02*
X114000000Y-104500000D01*
X113240000Y-103390000D02*
X114000000Y-103390000D01*
X112480000Y-105063471D02*
X112480000Y-105610000D01*
X112480000Y-103390000D02*
X112480000Y-103936529D01*
X112480000Y-105610000D02*
X111275000Y-105610000D01*
X112480000Y-103390000D02*
X111275000Y-103390000D01*
X111275000Y-104807530D02*
X111275000Y-105610000D01*
X111275000Y-103390000D02*
X111275000Y-104192470D01*
D11*
X111453333Y-117047142D02*
X111405714Y-117094761D01*
X111262857Y-117142380D01*
X111167619Y-117142380D01*
X111024761Y-117094761D01*
X110929523Y-116999523D01*
X110881904Y-116904285D01*
X110834285Y-116713809D01*
X110834285Y-116570952D01*
X110881904Y-116380476D01*
X110929523Y-116285238D01*
X111024761Y-116190000D01*
X111167619Y-116142380D01*
X111262857Y-116142380D01*
X111405714Y-116190000D01*
X111453333Y-116237619D01*
X112405714Y-117142380D02*
X111834285Y-117142380D01*
X112120000Y-117142380D02*
X112120000Y-116142380D01*
X112024761Y-116285238D01*
X111929523Y-116380476D01*
X111834285Y-116428095D01*
X118153333Y-112462380D02*
X117820000Y-111986190D01*
X117581904Y-112462380D02*
X117581904Y-111462380D01*
X117962857Y-111462380D01*
X118058095Y-111510000D01*
X118105714Y-111557619D01*
X118153333Y-111652857D01*
X118153333Y-111795714D01*
X118105714Y-111890952D01*
X118058095Y-111938571D01*
X117962857Y-111986190D01*
X117581904Y-111986190D01*
X119105714Y-112462380D02*
X118534285Y-112462380D01*
X118820000Y-112462380D02*
X118820000Y-111462380D01*
X118724761Y-111605238D01*
X118629523Y-111700476D01*
X118534285Y-111748095D01*
X121156666Y-106372380D02*
X121156666Y-107086666D01*
X121109047Y-107229523D01*
X121013809Y-107324761D01*
X120870952Y-107372380D01*
X120775714Y-107372380D01*
X121585238Y-106467619D02*
X121632857Y-106420000D01*
X121728095Y-106372380D01*
X121966190Y-106372380D01*
X122061428Y-106420000D01*
X122109047Y-106467619D01*
X122156666Y-106562857D01*
X122156666Y-106658095D01*
X122109047Y-106800952D01*
X121537619Y-107372380D01*
X122156666Y-107372380D01*
X115893333Y-112337142D02*
X115845714Y-112384761D01*
X115702857Y-112432380D01*
X115607619Y-112432380D01*
X115464761Y-112384761D01*
X115369523Y-112289523D01*
X115321904Y-112194285D01*
X115274285Y-112003809D01*
X115274285Y-111860952D01*
X115321904Y-111670476D01*
X115369523Y-111575238D01*
X115464761Y-111480000D01*
X115607619Y-111432380D01*
X115702857Y-111432380D01*
X115845714Y-111480000D01*
X115893333Y-111527619D01*
X116274285Y-111527619D02*
X116321904Y-111480000D01*
X116417142Y-111432380D01*
X116655238Y-111432380D01*
X116750476Y-111480000D01*
X116798095Y-111527619D01*
X116845714Y-111622857D01*
X116845714Y-111718095D01*
X116798095Y-111860952D01*
X116226666Y-112432380D01*
X116845714Y-112432380D01*
X104713333Y-105787142D02*
X104665714Y-105834761D01*
X104522857Y-105882380D01*
X104427619Y-105882380D01*
X104284761Y-105834761D01*
X104189523Y-105739523D01*
X104141904Y-105644285D01*
X104094285Y-105453809D01*
X104094285Y-105310952D01*
X104141904Y-105120476D01*
X104189523Y-105025238D01*
X104284761Y-104930000D01*
X104427619Y-104882380D01*
X104522857Y-104882380D01*
X104665714Y-104930000D01*
X104713333Y-104977619D01*
X105046666Y-104882380D02*
X105665714Y-104882380D01*
X105332380Y-105263333D01*
X105475238Y-105263333D01*
X105570476Y-105310952D01*
X105618095Y-105358571D01*
X105665714Y-105453809D01*
X105665714Y-105691904D01*
X105618095Y-105787142D01*
X105570476Y-105834761D01*
X105475238Y-105882380D01*
X105189523Y-105882380D01*
X105094285Y-105834761D01*
X105046666Y-105787142D01*
X109383333Y-109872380D02*
X109050000Y-109396190D01*
X108811904Y-109872380D02*
X108811904Y-108872380D01*
X109192857Y-108872380D01*
X109288095Y-108920000D01*
X109335714Y-108967619D01*
X109383333Y-109062857D01*
X109383333Y-109205714D01*
X109335714Y-109300952D01*
X109288095Y-109348571D01*
X109192857Y-109396190D01*
X108811904Y-109396190D01*
X109764285Y-108967619D02*
X109811904Y-108920000D01*
X109907142Y-108872380D01*
X110145238Y-108872380D01*
X110240476Y-108920000D01*
X110288095Y-108967619D01*
X110335714Y-109062857D01*
X110335714Y-109158095D01*
X110288095Y-109300952D01*
X109716666Y-109872380D01*
X110335714Y-109872380D01*
X100326666Y-107392380D02*
X100326666Y-108106666D01*
X100279047Y-108249523D01*
X100183809Y-108344761D01*
X100040952Y-108392380D01*
X99945714Y-108392380D01*
X101326666Y-108392380D02*
X100755238Y-108392380D01*
X101040952Y-108392380D02*
X101040952Y-107392380D01*
X100945714Y-107535238D01*
X100850476Y-107630476D01*
X100755238Y-107678095D01*
X116364761Y-106407619D02*
X116269523Y-106360000D01*
X116174285Y-106264761D01*
X116031428Y-106121904D01*
X115936190Y-106074285D01*
X115840952Y-106074285D01*
X115888571Y-106312380D02*
X115793333Y-106264761D01*
X115698095Y-106169523D01*
X115650476Y-105979047D01*
X115650476Y-105645714D01*
X115698095Y-105455238D01*
X115793333Y-105360000D01*
X115888571Y-105312380D01*
X116079047Y-105312380D01*
X116174285Y-105360000D01*
X116269523Y-105455238D01*
X116317142Y-105645714D01*
X116317142Y-105979047D01*
X116269523Y-106169523D01*
X116174285Y-106264761D01*
X116079047Y-106312380D01*
X115888571Y-106312380D01*
X117269523Y-106312380D02*
X116698095Y-106312380D01*
X116983809Y-106312380D02*
X116983809Y-105312380D01*
X116888571Y-105455238D01*
X116793333Y-105550476D01*
X116698095Y-105598095D01*
X115054285Y-103178571D02*
X115197142Y-103226190D01*
X115244761Y-103273809D01*
X115292380Y-103369047D01*
X115292380Y-103511904D01*
X115244761Y-103607142D01*
X115197142Y-103654761D01*
X115101904Y-103702380D01*
X114720952Y-103702380D01*
X114720952Y-102702380D01*
X115054285Y-102702380D01*
X115149523Y-102750000D01*
X115197142Y-102797619D01*
X115244761Y-102892857D01*
X115244761Y-102988095D01*
X115197142Y-103083333D01*
X115149523Y-103130952D01*
X115054285Y-103178571D01*
X114720952Y-103178571D01*
X115578095Y-102702380D02*
X116149523Y-102702380D01*
X115863809Y-103702380D02*
X115863809Y-102702380D01*
X117006666Y-103702380D02*
X116435238Y-103702380D01*
X116720952Y-103702380D02*
X116720952Y-102702380D01*
X116625714Y-102845238D01*
X116530476Y-102940476D01*
X116435238Y-102988095D01*
M02*
