G04 #@! TF.GenerationSoftware,KiCad,Pcbnew,(5.1.4)-1*
G04 #@! TF.CreationDate,2020-05-05T22:33:11+03:00*
G04 #@! TF.ProjectId,Single_Transitor_Amp,53696e67-6c65-45f5-9472-616e7369746f,V1.0*
G04 #@! TF.SameCoordinates,Original*
G04 #@! TF.FileFunction,Copper,L4,Bot*
G04 #@! TF.FilePolarity,Positive*
%FSLAX46Y46*%
G04 Gerber Fmt 4.6, Leading zero omitted, Abs format (unit mm)*
G04 Created by KiCad (PCBNEW (5.1.4)-1) date 2020-05-05 22:33:11*
%MOMM*%
%LPD*%
G04 APERTURE LIST*
%ADD10C,1.600000*%
%ADD11R,1.600000X1.600000*%
%ADD12R,1.000000X1.000000*%
%ADD13O,1.000000X1.000000*%
%ADD14R,1.300000X1.300000*%
%ADD15C,1.300000*%
%ADD16C,0.254000*%
G04 APERTURE END LIST*
D10*
X108930000Y-113950000D03*
D11*
X106430000Y-113950000D03*
D12*
X120880000Y-110130000D03*
D13*
X120880000Y-108860000D03*
X103220000Y-110550000D03*
D12*
X103220000Y-109280000D03*
D14*
X114090000Y-108300000D03*
D15*
X111550000Y-108300000D03*
X112820000Y-109570000D03*
D13*
X111970000Y-104500000D03*
D12*
X113240000Y-104500000D03*
D16*
G36*
X121000310Y-103423902D02*
G01*
X121591999Y-104576190D01*
X122049438Y-105788041D01*
X122366750Y-107043883D01*
X122539859Y-108327588D01*
X122566535Y-109622625D01*
X122446438Y-110912356D01*
X122181109Y-112180215D01*
X121773963Y-113409875D01*
X121230229Y-114585549D01*
X120556900Y-115692111D01*
X119759099Y-116719891D01*
X119325301Y-117179905D01*
X102977697Y-117174446D01*
X102277310Y-116404372D01*
X101519926Y-115353721D01*
X100886336Y-114224063D01*
X100435136Y-113150000D01*
X104991928Y-113150000D01*
X104991928Y-114750000D01*
X105004188Y-114874482D01*
X105040498Y-114994180D01*
X105099463Y-115104494D01*
X105178815Y-115201185D01*
X105275506Y-115280537D01*
X105385820Y-115339502D01*
X105505518Y-115375812D01*
X105630000Y-115388072D01*
X107230000Y-115388072D01*
X107354482Y-115375812D01*
X107474180Y-115339502D01*
X107584494Y-115280537D01*
X107681185Y-115201185D01*
X107760537Y-115104494D01*
X107819502Y-114994180D01*
X107848661Y-114898057D01*
X108015241Y-115064637D01*
X108250273Y-115221680D01*
X108511426Y-115329853D01*
X108788665Y-115385000D01*
X109071335Y-115385000D01*
X109348574Y-115329853D01*
X109609727Y-115221680D01*
X109844759Y-115064637D01*
X110044637Y-114864759D01*
X110201680Y-114629727D01*
X110309853Y-114368574D01*
X110365000Y-114091335D01*
X110365000Y-113808665D01*
X110309853Y-113531426D01*
X110201680Y-113270273D01*
X110044637Y-113035241D01*
X109844759Y-112835363D01*
X109609727Y-112678320D01*
X109348574Y-112570147D01*
X109071335Y-112515000D01*
X108788665Y-112515000D01*
X108511426Y-112570147D01*
X108250273Y-112678320D01*
X108015241Y-112835363D01*
X107848661Y-113001943D01*
X107819502Y-112905820D01*
X107760537Y-112795506D01*
X107681185Y-112698815D01*
X107584494Y-112619463D01*
X107474180Y-112560498D01*
X107354482Y-112524188D01*
X107230000Y-112511928D01*
X105630000Y-112511928D01*
X105505518Y-112524188D01*
X105385820Y-112560498D01*
X105275506Y-112619463D01*
X105178815Y-112698815D01*
X105099463Y-112795506D01*
X105040498Y-112905820D01*
X105004188Y-113025518D01*
X104991928Y-113150000D01*
X100435136Y-113150000D01*
X100384708Y-113029960D01*
X100021476Y-111786737D01*
X99808150Y-110550000D01*
X102079509Y-110550000D01*
X102101423Y-110772499D01*
X102166324Y-110986447D01*
X102271716Y-111183623D01*
X102413551Y-111356449D01*
X102586377Y-111498284D01*
X102783553Y-111603676D01*
X102997501Y-111668577D01*
X103164248Y-111685000D01*
X103275752Y-111685000D01*
X103442499Y-111668577D01*
X103656447Y-111603676D01*
X103853623Y-111498284D01*
X104026449Y-111356449D01*
X104168284Y-111183623D01*
X104273676Y-110986447D01*
X104338577Y-110772499D01*
X104360491Y-110550000D01*
X104338577Y-110327501D01*
X104273676Y-110113553D01*
X104267703Y-110102379D01*
X104309502Y-110024180D01*
X104345812Y-109904482D01*
X104358072Y-109780000D01*
X104358072Y-108780000D01*
X104345812Y-108655518D01*
X104309502Y-108535820D01*
X104250537Y-108425506D01*
X104171185Y-108328815D01*
X104074494Y-108249463D01*
X103964180Y-108190498D01*
X103907945Y-108173439D01*
X110265000Y-108173439D01*
X110265000Y-108426561D01*
X110314381Y-108674821D01*
X110411247Y-108908676D01*
X110551875Y-109119140D01*
X110730860Y-109298125D01*
X110941324Y-109438753D01*
X111175179Y-109535619D01*
X111423439Y-109585000D01*
X111535000Y-109585000D01*
X111535000Y-109696561D01*
X111584381Y-109944821D01*
X111681247Y-110178676D01*
X111821875Y-110389140D01*
X112000860Y-110568125D01*
X112211324Y-110708753D01*
X112445179Y-110805619D01*
X112693439Y-110855000D01*
X112946561Y-110855000D01*
X113194821Y-110805619D01*
X113428676Y-110708753D01*
X113639140Y-110568125D01*
X113818125Y-110389140D01*
X113958753Y-110178676D01*
X114055619Y-109944821D01*
X114105000Y-109696561D01*
X114105000Y-109630000D01*
X119741928Y-109630000D01*
X119741928Y-110630000D01*
X119754188Y-110754482D01*
X119790498Y-110874180D01*
X119849463Y-110984494D01*
X119928815Y-111081185D01*
X120025506Y-111160537D01*
X120135820Y-111219502D01*
X120255518Y-111255812D01*
X120380000Y-111268072D01*
X121380000Y-111268072D01*
X121504482Y-111255812D01*
X121624180Y-111219502D01*
X121734494Y-111160537D01*
X121831185Y-111081185D01*
X121910537Y-110984494D01*
X121969502Y-110874180D01*
X122005812Y-110754482D01*
X122018072Y-110630000D01*
X122018072Y-109630000D01*
X122005812Y-109505518D01*
X121969502Y-109385820D01*
X121921930Y-109296820D01*
X121957446Y-109216864D01*
X121974119Y-109161874D01*
X121847954Y-108987000D01*
X121007000Y-108987000D01*
X121007000Y-108991928D01*
X120753000Y-108991928D01*
X120753000Y-108987000D01*
X119912046Y-108987000D01*
X119785881Y-109161874D01*
X119802554Y-109216864D01*
X119838070Y-109296820D01*
X119790498Y-109385820D01*
X119754188Y-109505518D01*
X119741928Y-109630000D01*
X114105000Y-109630000D01*
X114105000Y-109588072D01*
X114740000Y-109588072D01*
X114864482Y-109575812D01*
X114984180Y-109539502D01*
X115094494Y-109480537D01*
X115191185Y-109401185D01*
X115270537Y-109304494D01*
X115329502Y-109194180D01*
X115365812Y-109074482D01*
X115378072Y-108950000D01*
X115378072Y-108558126D01*
X119785881Y-108558126D01*
X119912046Y-108733000D01*
X120753000Y-108733000D01*
X120753000Y-107890871D01*
X121007000Y-107890871D01*
X121007000Y-108733000D01*
X121847954Y-108733000D01*
X121974119Y-108558126D01*
X121957446Y-108503136D01*
X121867123Y-108299794D01*
X121738865Y-108117980D01*
X121577601Y-107964682D01*
X121389529Y-107845790D01*
X121181876Y-107765874D01*
X121007000Y-107890871D01*
X120753000Y-107890871D01*
X120578124Y-107765874D01*
X120370471Y-107845790D01*
X120182399Y-107964682D01*
X120021135Y-108117980D01*
X119892877Y-108299794D01*
X119802554Y-108503136D01*
X119785881Y-108558126D01*
X115378072Y-108558126D01*
X115378072Y-107650000D01*
X115365812Y-107525518D01*
X115329502Y-107405820D01*
X115270537Y-107295506D01*
X115191185Y-107198815D01*
X115094494Y-107119463D01*
X114984180Y-107060498D01*
X114864482Y-107024188D01*
X114740000Y-107011928D01*
X113440000Y-107011928D01*
X113315518Y-107024188D01*
X113195820Y-107060498D01*
X113085506Y-107119463D01*
X112988815Y-107198815D01*
X112909463Y-107295506D01*
X112850498Y-107405820D01*
X112814188Y-107525518D01*
X112801928Y-107650000D01*
X112801928Y-108007172D01*
X112785619Y-107925179D01*
X112688753Y-107691324D01*
X112548125Y-107480860D01*
X112369140Y-107301875D01*
X112158676Y-107161247D01*
X111924821Y-107064381D01*
X111676561Y-107015000D01*
X111423439Y-107015000D01*
X111175179Y-107064381D01*
X110941324Y-107161247D01*
X110730860Y-107301875D01*
X110551875Y-107480860D01*
X110411247Y-107691324D01*
X110314381Y-107925179D01*
X110265000Y-108173439D01*
X103907945Y-108173439D01*
X103844482Y-108154188D01*
X103720000Y-108141928D01*
X102720000Y-108141928D01*
X102595518Y-108154188D01*
X102475820Y-108190498D01*
X102365506Y-108249463D01*
X102268815Y-108328815D01*
X102189463Y-108425506D01*
X102130498Y-108535820D01*
X102094188Y-108655518D01*
X102081928Y-108780000D01*
X102081928Y-109780000D01*
X102094188Y-109904482D01*
X102130498Y-110024180D01*
X102172297Y-110102379D01*
X102166324Y-110113553D01*
X102101423Y-110327501D01*
X102079509Y-110550000D01*
X99808150Y-110550000D01*
X99801316Y-110510383D01*
X99727060Y-109217320D01*
X99799659Y-107924166D01*
X100018184Y-106647523D01*
X100379819Y-105403844D01*
X100758150Y-104500000D01*
X110829509Y-104500000D01*
X110851423Y-104722499D01*
X110916324Y-104936447D01*
X111021716Y-105133623D01*
X111163551Y-105306449D01*
X111336377Y-105448284D01*
X111533553Y-105553676D01*
X111747501Y-105618577D01*
X111914248Y-105635000D01*
X112025752Y-105635000D01*
X112192499Y-105618577D01*
X112406447Y-105553676D01*
X112417621Y-105547703D01*
X112495820Y-105589502D01*
X112615518Y-105625812D01*
X112740000Y-105638072D01*
X112954250Y-105635000D01*
X113113000Y-105476250D01*
X113113000Y-104627000D01*
X113367000Y-104627000D01*
X113367000Y-105476250D01*
X113525750Y-105635000D01*
X113740000Y-105638072D01*
X113864482Y-105625812D01*
X113984180Y-105589502D01*
X114094494Y-105530537D01*
X114191185Y-105451185D01*
X114270537Y-105354494D01*
X114329502Y-105244180D01*
X114365812Y-105124482D01*
X114378072Y-105000000D01*
X114375000Y-104785750D01*
X114216250Y-104627000D01*
X113367000Y-104627000D01*
X113113000Y-104627000D01*
X113097983Y-104627000D01*
X113110491Y-104500000D01*
X113097983Y-104373000D01*
X113113000Y-104373000D01*
X113113000Y-103523750D01*
X113367000Y-103523750D01*
X113367000Y-104373000D01*
X114216250Y-104373000D01*
X114375000Y-104214250D01*
X114378072Y-104000000D01*
X114365812Y-103875518D01*
X114329502Y-103755820D01*
X114270537Y-103645506D01*
X114191185Y-103548815D01*
X114094494Y-103469463D01*
X113984180Y-103410498D01*
X113864482Y-103374188D01*
X113740000Y-103361928D01*
X113525750Y-103365000D01*
X113367000Y-103523750D01*
X113113000Y-103523750D01*
X112954250Y-103365000D01*
X112740000Y-103361928D01*
X112615518Y-103374188D01*
X112495820Y-103410498D01*
X112417621Y-103452297D01*
X112406447Y-103446324D01*
X112192499Y-103381423D01*
X112025752Y-103365000D01*
X111914248Y-103365000D01*
X111747501Y-103381423D01*
X111533553Y-103446324D01*
X111336377Y-103551716D01*
X111163551Y-103693551D01*
X111021716Y-103866377D01*
X110916324Y-104063553D01*
X110851423Y-104277501D01*
X110829509Y-104500000D01*
X100758150Y-104500000D01*
X100879919Y-104209093D01*
X101514931Y-103073494D01*
X101835818Y-102609989D01*
X120457502Y-102609382D01*
X121000310Y-103423902D01*
X121000310Y-103423902D01*
G37*
X121000310Y-103423902D02*
X121591999Y-104576190D01*
X122049438Y-105788041D01*
X122366750Y-107043883D01*
X122539859Y-108327588D01*
X122566535Y-109622625D01*
X122446438Y-110912356D01*
X122181109Y-112180215D01*
X121773963Y-113409875D01*
X121230229Y-114585549D01*
X120556900Y-115692111D01*
X119759099Y-116719891D01*
X119325301Y-117179905D01*
X102977697Y-117174446D01*
X102277310Y-116404372D01*
X101519926Y-115353721D01*
X100886336Y-114224063D01*
X100435136Y-113150000D01*
X104991928Y-113150000D01*
X104991928Y-114750000D01*
X105004188Y-114874482D01*
X105040498Y-114994180D01*
X105099463Y-115104494D01*
X105178815Y-115201185D01*
X105275506Y-115280537D01*
X105385820Y-115339502D01*
X105505518Y-115375812D01*
X105630000Y-115388072D01*
X107230000Y-115388072D01*
X107354482Y-115375812D01*
X107474180Y-115339502D01*
X107584494Y-115280537D01*
X107681185Y-115201185D01*
X107760537Y-115104494D01*
X107819502Y-114994180D01*
X107848661Y-114898057D01*
X108015241Y-115064637D01*
X108250273Y-115221680D01*
X108511426Y-115329853D01*
X108788665Y-115385000D01*
X109071335Y-115385000D01*
X109348574Y-115329853D01*
X109609727Y-115221680D01*
X109844759Y-115064637D01*
X110044637Y-114864759D01*
X110201680Y-114629727D01*
X110309853Y-114368574D01*
X110365000Y-114091335D01*
X110365000Y-113808665D01*
X110309853Y-113531426D01*
X110201680Y-113270273D01*
X110044637Y-113035241D01*
X109844759Y-112835363D01*
X109609727Y-112678320D01*
X109348574Y-112570147D01*
X109071335Y-112515000D01*
X108788665Y-112515000D01*
X108511426Y-112570147D01*
X108250273Y-112678320D01*
X108015241Y-112835363D01*
X107848661Y-113001943D01*
X107819502Y-112905820D01*
X107760537Y-112795506D01*
X107681185Y-112698815D01*
X107584494Y-112619463D01*
X107474180Y-112560498D01*
X107354482Y-112524188D01*
X107230000Y-112511928D01*
X105630000Y-112511928D01*
X105505518Y-112524188D01*
X105385820Y-112560498D01*
X105275506Y-112619463D01*
X105178815Y-112698815D01*
X105099463Y-112795506D01*
X105040498Y-112905820D01*
X105004188Y-113025518D01*
X104991928Y-113150000D01*
X100435136Y-113150000D01*
X100384708Y-113029960D01*
X100021476Y-111786737D01*
X99808150Y-110550000D01*
X102079509Y-110550000D01*
X102101423Y-110772499D01*
X102166324Y-110986447D01*
X102271716Y-111183623D01*
X102413551Y-111356449D01*
X102586377Y-111498284D01*
X102783553Y-111603676D01*
X102997501Y-111668577D01*
X103164248Y-111685000D01*
X103275752Y-111685000D01*
X103442499Y-111668577D01*
X103656447Y-111603676D01*
X103853623Y-111498284D01*
X104026449Y-111356449D01*
X104168284Y-111183623D01*
X104273676Y-110986447D01*
X104338577Y-110772499D01*
X104360491Y-110550000D01*
X104338577Y-110327501D01*
X104273676Y-110113553D01*
X104267703Y-110102379D01*
X104309502Y-110024180D01*
X104345812Y-109904482D01*
X104358072Y-109780000D01*
X104358072Y-108780000D01*
X104345812Y-108655518D01*
X104309502Y-108535820D01*
X104250537Y-108425506D01*
X104171185Y-108328815D01*
X104074494Y-108249463D01*
X103964180Y-108190498D01*
X103907945Y-108173439D01*
X110265000Y-108173439D01*
X110265000Y-108426561D01*
X110314381Y-108674821D01*
X110411247Y-108908676D01*
X110551875Y-109119140D01*
X110730860Y-109298125D01*
X110941324Y-109438753D01*
X111175179Y-109535619D01*
X111423439Y-109585000D01*
X111535000Y-109585000D01*
X111535000Y-109696561D01*
X111584381Y-109944821D01*
X111681247Y-110178676D01*
X111821875Y-110389140D01*
X112000860Y-110568125D01*
X112211324Y-110708753D01*
X112445179Y-110805619D01*
X112693439Y-110855000D01*
X112946561Y-110855000D01*
X113194821Y-110805619D01*
X113428676Y-110708753D01*
X113639140Y-110568125D01*
X113818125Y-110389140D01*
X113958753Y-110178676D01*
X114055619Y-109944821D01*
X114105000Y-109696561D01*
X114105000Y-109630000D01*
X119741928Y-109630000D01*
X119741928Y-110630000D01*
X119754188Y-110754482D01*
X119790498Y-110874180D01*
X119849463Y-110984494D01*
X119928815Y-111081185D01*
X120025506Y-111160537D01*
X120135820Y-111219502D01*
X120255518Y-111255812D01*
X120380000Y-111268072D01*
X121380000Y-111268072D01*
X121504482Y-111255812D01*
X121624180Y-111219502D01*
X121734494Y-111160537D01*
X121831185Y-111081185D01*
X121910537Y-110984494D01*
X121969502Y-110874180D01*
X122005812Y-110754482D01*
X122018072Y-110630000D01*
X122018072Y-109630000D01*
X122005812Y-109505518D01*
X121969502Y-109385820D01*
X121921930Y-109296820D01*
X121957446Y-109216864D01*
X121974119Y-109161874D01*
X121847954Y-108987000D01*
X121007000Y-108987000D01*
X121007000Y-108991928D01*
X120753000Y-108991928D01*
X120753000Y-108987000D01*
X119912046Y-108987000D01*
X119785881Y-109161874D01*
X119802554Y-109216864D01*
X119838070Y-109296820D01*
X119790498Y-109385820D01*
X119754188Y-109505518D01*
X119741928Y-109630000D01*
X114105000Y-109630000D01*
X114105000Y-109588072D01*
X114740000Y-109588072D01*
X114864482Y-109575812D01*
X114984180Y-109539502D01*
X115094494Y-109480537D01*
X115191185Y-109401185D01*
X115270537Y-109304494D01*
X115329502Y-109194180D01*
X115365812Y-109074482D01*
X115378072Y-108950000D01*
X115378072Y-108558126D01*
X119785881Y-108558126D01*
X119912046Y-108733000D01*
X120753000Y-108733000D01*
X120753000Y-107890871D01*
X121007000Y-107890871D01*
X121007000Y-108733000D01*
X121847954Y-108733000D01*
X121974119Y-108558126D01*
X121957446Y-108503136D01*
X121867123Y-108299794D01*
X121738865Y-108117980D01*
X121577601Y-107964682D01*
X121389529Y-107845790D01*
X121181876Y-107765874D01*
X121007000Y-107890871D01*
X120753000Y-107890871D01*
X120578124Y-107765874D01*
X120370471Y-107845790D01*
X120182399Y-107964682D01*
X120021135Y-108117980D01*
X119892877Y-108299794D01*
X119802554Y-108503136D01*
X119785881Y-108558126D01*
X115378072Y-108558126D01*
X115378072Y-107650000D01*
X115365812Y-107525518D01*
X115329502Y-107405820D01*
X115270537Y-107295506D01*
X115191185Y-107198815D01*
X115094494Y-107119463D01*
X114984180Y-107060498D01*
X114864482Y-107024188D01*
X114740000Y-107011928D01*
X113440000Y-107011928D01*
X113315518Y-107024188D01*
X113195820Y-107060498D01*
X113085506Y-107119463D01*
X112988815Y-107198815D01*
X112909463Y-107295506D01*
X112850498Y-107405820D01*
X112814188Y-107525518D01*
X112801928Y-107650000D01*
X112801928Y-108007172D01*
X112785619Y-107925179D01*
X112688753Y-107691324D01*
X112548125Y-107480860D01*
X112369140Y-107301875D01*
X112158676Y-107161247D01*
X111924821Y-107064381D01*
X111676561Y-107015000D01*
X111423439Y-107015000D01*
X111175179Y-107064381D01*
X110941324Y-107161247D01*
X110730860Y-107301875D01*
X110551875Y-107480860D01*
X110411247Y-107691324D01*
X110314381Y-107925179D01*
X110265000Y-108173439D01*
X103907945Y-108173439D01*
X103844482Y-108154188D01*
X103720000Y-108141928D01*
X102720000Y-108141928D01*
X102595518Y-108154188D01*
X102475820Y-108190498D01*
X102365506Y-108249463D01*
X102268815Y-108328815D01*
X102189463Y-108425506D01*
X102130498Y-108535820D01*
X102094188Y-108655518D01*
X102081928Y-108780000D01*
X102081928Y-109780000D01*
X102094188Y-109904482D01*
X102130498Y-110024180D01*
X102172297Y-110102379D01*
X102166324Y-110113553D01*
X102101423Y-110327501D01*
X102079509Y-110550000D01*
X99808150Y-110550000D01*
X99801316Y-110510383D01*
X99727060Y-109217320D01*
X99799659Y-107924166D01*
X100018184Y-106647523D01*
X100379819Y-105403844D01*
X100758150Y-104500000D01*
X110829509Y-104500000D01*
X110851423Y-104722499D01*
X110916324Y-104936447D01*
X111021716Y-105133623D01*
X111163551Y-105306449D01*
X111336377Y-105448284D01*
X111533553Y-105553676D01*
X111747501Y-105618577D01*
X111914248Y-105635000D01*
X112025752Y-105635000D01*
X112192499Y-105618577D01*
X112406447Y-105553676D01*
X112417621Y-105547703D01*
X112495820Y-105589502D01*
X112615518Y-105625812D01*
X112740000Y-105638072D01*
X112954250Y-105635000D01*
X113113000Y-105476250D01*
X113113000Y-104627000D01*
X113367000Y-104627000D01*
X113367000Y-105476250D01*
X113525750Y-105635000D01*
X113740000Y-105638072D01*
X113864482Y-105625812D01*
X113984180Y-105589502D01*
X114094494Y-105530537D01*
X114191185Y-105451185D01*
X114270537Y-105354494D01*
X114329502Y-105244180D01*
X114365812Y-105124482D01*
X114378072Y-105000000D01*
X114375000Y-104785750D01*
X114216250Y-104627000D01*
X113367000Y-104627000D01*
X113113000Y-104627000D01*
X113097983Y-104627000D01*
X113110491Y-104500000D01*
X113097983Y-104373000D01*
X113113000Y-104373000D01*
X113113000Y-103523750D01*
X113367000Y-103523750D01*
X113367000Y-104373000D01*
X114216250Y-104373000D01*
X114375000Y-104214250D01*
X114378072Y-104000000D01*
X114365812Y-103875518D01*
X114329502Y-103755820D01*
X114270537Y-103645506D01*
X114191185Y-103548815D01*
X114094494Y-103469463D01*
X113984180Y-103410498D01*
X113864482Y-103374188D01*
X113740000Y-103361928D01*
X113525750Y-103365000D01*
X113367000Y-103523750D01*
X113113000Y-103523750D01*
X112954250Y-103365000D01*
X112740000Y-103361928D01*
X112615518Y-103374188D01*
X112495820Y-103410498D01*
X112417621Y-103452297D01*
X112406447Y-103446324D01*
X112192499Y-103381423D01*
X112025752Y-103365000D01*
X111914248Y-103365000D01*
X111747501Y-103381423D01*
X111533553Y-103446324D01*
X111336377Y-103551716D01*
X111163551Y-103693551D01*
X111021716Y-103866377D01*
X110916324Y-104063553D01*
X110851423Y-104277501D01*
X110829509Y-104500000D01*
X100758150Y-104500000D01*
X100879919Y-104209093D01*
X101514931Y-103073494D01*
X101835818Y-102609989D01*
X120457502Y-102609382D01*
X121000310Y-103423902D01*
M02*
