G04 #@! TF.GenerationSoftware,KiCad,Pcbnew,(5.1.4)-1*
G04 #@! TF.CreationDate,2020-05-05T22:33:11+03:00*
G04 #@! TF.ProjectId,Single_Transitor_Amp,53696e67-6c65-45f5-9472-616e7369746f,V1.0*
G04 #@! TF.SameCoordinates,Original*
G04 #@! TF.FileFunction,Copper,L1,Top*
G04 #@! TF.FilePolarity,Positive*
%FSLAX46Y46*%
G04 Gerber Fmt 4.6, Leading zero omitted, Abs format (unit mm)*
G04 Created by KiCad (PCBNEW (5.1.4)-1) date 2020-05-05 22:33:11*
%MOMM*%
%LPD*%
G04 APERTURE LIST*
%ADD10C,1.600000*%
%ADD11R,1.600000X1.600000*%
%ADD12C,0.100000*%
%ADD13C,0.875000*%
%ADD14R,1.000000X1.000000*%
%ADD15O,1.000000X1.000000*%
%ADD16C,1.250000*%
%ADD17R,1.300000X1.300000*%
%ADD18C,1.300000*%
%ADD19C,0.500000*%
%ADD20C,0.250000*%
%ADD21C,0.254000*%
G04 APERTURE END LIST*
D10*
X108930000Y-113950000D03*
D11*
X106430000Y-113950000D03*
D12*
G36*
X118257691Y-108426053D02*
G01*
X118278926Y-108429203D01*
X118299750Y-108434419D01*
X118319962Y-108441651D01*
X118339368Y-108450830D01*
X118357781Y-108461866D01*
X118375024Y-108474654D01*
X118390930Y-108489070D01*
X118405346Y-108504976D01*
X118418134Y-108522219D01*
X118429170Y-108540632D01*
X118438349Y-108560038D01*
X118445581Y-108580250D01*
X118450797Y-108601074D01*
X118453947Y-108622309D01*
X118455000Y-108643750D01*
X118455000Y-109081250D01*
X118453947Y-109102691D01*
X118450797Y-109123926D01*
X118445581Y-109144750D01*
X118438349Y-109164962D01*
X118429170Y-109184368D01*
X118418134Y-109202781D01*
X118405346Y-109220024D01*
X118390930Y-109235930D01*
X118375024Y-109250346D01*
X118357781Y-109263134D01*
X118339368Y-109274170D01*
X118319962Y-109283349D01*
X118299750Y-109290581D01*
X118278926Y-109295797D01*
X118257691Y-109298947D01*
X118236250Y-109300000D01*
X117723750Y-109300000D01*
X117702309Y-109298947D01*
X117681074Y-109295797D01*
X117660250Y-109290581D01*
X117640038Y-109283349D01*
X117620632Y-109274170D01*
X117602219Y-109263134D01*
X117584976Y-109250346D01*
X117569070Y-109235930D01*
X117554654Y-109220024D01*
X117541866Y-109202781D01*
X117530830Y-109184368D01*
X117521651Y-109164962D01*
X117514419Y-109144750D01*
X117509203Y-109123926D01*
X117506053Y-109102691D01*
X117505000Y-109081250D01*
X117505000Y-108643750D01*
X117506053Y-108622309D01*
X117509203Y-108601074D01*
X117514419Y-108580250D01*
X117521651Y-108560038D01*
X117530830Y-108540632D01*
X117541866Y-108522219D01*
X117554654Y-108504976D01*
X117569070Y-108489070D01*
X117584976Y-108474654D01*
X117602219Y-108461866D01*
X117620632Y-108450830D01*
X117640038Y-108441651D01*
X117660250Y-108434419D01*
X117681074Y-108429203D01*
X117702309Y-108426053D01*
X117723750Y-108425000D01*
X118236250Y-108425000D01*
X118257691Y-108426053D01*
X118257691Y-108426053D01*
G37*
D13*
X117980000Y-108862500D03*
D12*
G36*
X118257691Y-110001053D02*
G01*
X118278926Y-110004203D01*
X118299750Y-110009419D01*
X118319962Y-110016651D01*
X118339368Y-110025830D01*
X118357781Y-110036866D01*
X118375024Y-110049654D01*
X118390930Y-110064070D01*
X118405346Y-110079976D01*
X118418134Y-110097219D01*
X118429170Y-110115632D01*
X118438349Y-110135038D01*
X118445581Y-110155250D01*
X118450797Y-110176074D01*
X118453947Y-110197309D01*
X118455000Y-110218750D01*
X118455000Y-110656250D01*
X118453947Y-110677691D01*
X118450797Y-110698926D01*
X118445581Y-110719750D01*
X118438349Y-110739962D01*
X118429170Y-110759368D01*
X118418134Y-110777781D01*
X118405346Y-110795024D01*
X118390930Y-110810930D01*
X118375024Y-110825346D01*
X118357781Y-110838134D01*
X118339368Y-110849170D01*
X118319962Y-110858349D01*
X118299750Y-110865581D01*
X118278926Y-110870797D01*
X118257691Y-110873947D01*
X118236250Y-110875000D01*
X117723750Y-110875000D01*
X117702309Y-110873947D01*
X117681074Y-110870797D01*
X117660250Y-110865581D01*
X117640038Y-110858349D01*
X117620632Y-110849170D01*
X117602219Y-110838134D01*
X117584976Y-110825346D01*
X117569070Y-110810930D01*
X117554654Y-110795024D01*
X117541866Y-110777781D01*
X117530830Y-110759368D01*
X117521651Y-110739962D01*
X117514419Y-110719750D01*
X117509203Y-110698926D01*
X117506053Y-110677691D01*
X117505000Y-110656250D01*
X117505000Y-110218750D01*
X117506053Y-110197309D01*
X117509203Y-110176074D01*
X117514419Y-110155250D01*
X117521651Y-110135038D01*
X117530830Y-110115632D01*
X117541866Y-110097219D01*
X117554654Y-110079976D01*
X117569070Y-110064070D01*
X117584976Y-110049654D01*
X117602219Y-110036866D01*
X117620632Y-110025830D01*
X117640038Y-110016651D01*
X117660250Y-110009419D01*
X117681074Y-110004203D01*
X117702309Y-110001053D01*
X117723750Y-110000000D01*
X118236250Y-110000000D01*
X118257691Y-110001053D01*
X118257691Y-110001053D01*
G37*
D13*
X117980000Y-110437500D03*
D14*
X120880000Y-110130000D03*
D15*
X120880000Y-108860000D03*
D12*
G36*
X116687691Y-110001053D02*
G01*
X116708926Y-110004203D01*
X116729750Y-110009419D01*
X116749962Y-110016651D01*
X116769368Y-110025830D01*
X116787781Y-110036866D01*
X116805024Y-110049654D01*
X116820930Y-110064070D01*
X116835346Y-110079976D01*
X116848134Y-110097219D01*
X116859170Y-110115632D01*
X116868349Y-110135038D01*
X116875581Y-110155250D01*
X116880797Y-110176074D01*
X116883947Y-110197309D01*
X116885000Y-110218750D01*
X116885000Y-110656250D01*
X116883947Y-110677691D01*
X116880797Y-110698926D01*
X116875581Y-110719750D01*
X116868349Y-110739962D01*
X116859170Y-110759368D01*
X116848134Y-110777781D01*
X116835346Y-110795024D01*
X116820930Y-110810930D01*
X116805024Y-110825346D01*
X116787781Y-110838134D01*
X116769368Y-110849170D01*
X116749962Y-110858349D01*
X116729750Y-110865581D01*
X116708926Y-110870797D01*
X116687691Y-110873947D01*
X116666250Y-110875000D01*
X116153750Y-110875000D01*
X116132309Y-110873947D01*
X116111074Y-110870797D01*
X116090250Y-110865581D01*
X116070038Y-110858349D01*
X116050632Y-110849170D01*
X116032219Y-110838134D01*
X116014976Y-110825346D01*
X115999070Y-110810930D01*
X115984654Y-110795024D01*
X115971866Y-110777781D01*
X115960830Y-110759368D01*
X115951651Y-110739962D01*
X115944419Y-110719750D01*
X115939203Y-110698926D01*
X115936053Y-110677691D01*
X115935000Y-110656250D01*
X115935000Y-110218750D01*
X115936053Y-110197309D01*
X115939203Y-110176074D01*
X115944419Y-110155250D01*
X115951651Y-110135038D01*
X115960830Y-110115632D01*
X115971866Y-110097219D01*
X115984654Y-110079976D01*
X115999070Y-110064070D01*
X116014976Y-110049654D01*
X116032219Y-110036866D01*
X116050632Y-110025830D01*
X116070038Y-110016651D01*
X116090250Y-110009419D01*
X116111074Y-110004203D01*
X116132309Y-110001053D01*
X116153750Y-110000000D01*
X116666250Y-110000000D01*
X116687691Y-110001053D01*
X116687691Y-110001053D01*
G37*
D13*
X116410000Y-110437500D03*
D12*
G36*
X116687691Y-108426053D02*
G01*
X116708926Y-108429203D01*
X116729750Y-108434419D01*
X116749962Y-108441651D01*
X116769368Y-108450830D01*
X116787781Y-108461866D01*
X116805024Y-108474654D01*
X116820930Y-108489070D01*
X116835346Y-108504976D01*
X116848134Y-108522219D01*
X116859170Y-108540632D01*
X116868349Y-108560038D01*
X116875581Y-108580250D01*
X116880797Y-108601074D01*
X116883947Y-108622309D01*
X116885000Y-108643750D01*
X116885000Y-109081250D01*
X116883947Y-109102691D01*
X116880797Y-109123926D01*
X116875581Y-109144750D01*
X116868349Y-109164962D01*
X116859170Y-109184368D01*
X116848134Y-109202781D01*
X116835346Y-109220024D01*
X116820930Y-109235930D01*
X116805024Y-109250346D01*
X116787781Y-109263134D01*
X116769368Y-109274170D01*
X116749962Y-109283349D01*
X116729750Y-109290581D01*
X116708926Y-109295797D01*
X116687691Y-109298947D01*
X116666250Y-109300000D01*
X116153750Y-109300000D01*
X116132309Y-109298947D01*
X116111074Y-109295797D01*
X116090250Y-109290581D01*
X116070038Y-109283349D01*
X116050632Y-109274170D01*
X116032219Y-109263134D01*
X116014976Y-109250346D01*
X115999070Y-109235930D01*
X115984654Y-109220024D01*
X115971866Y-109202781D01*
X115960830Y-109184368D01*
X115951651Y-109164962D01*
X115944419Y-109144750D01*
X115939203Y-109123926D01*
X115936053Y-109102691D01*
X115935000Y-109081250D01*
X115935000Y-108643750D01*
X115936053Y-108622309D01*
X115939203Y-108601074D01*
X115944419Y-108580250D01*
X115951651Y-108560038D01*
X115960830Y-108540632D01*
X115971866Y-108522219D01*
X115984654Y-108504976D01*
X115999070Y-108489070D01*
X116014976Y-108474654D01*
X116032219Y-108461866D01*
X116050632Y-108450830D01*
X116070038Y-108441651D01*
X116090250Y-108434419D01*
X116111074Y-108429203D01*
X116132309Y-108426053D01*
X116153750Y-108425000D01*
X116666250Y-108425000D01*
X116687691Y-108426053D01*
X116687691Y-108426053D01*
G37*
D13*
X116410000Y-108862500D03*
D12*
G36*
X106649504Y-106516204D02*
G01*
X106673773Y-106519804D01*
X106697571Y-106525765D01*
X106720671Y-106534030D01*
X106742849Y-106544520D01*
X106763893Y-106557133D01*
X106783598Y-106571747D01*
X106801777Y-106588223D01*
X106818253Y-106606402D01*
X106832867Y-106626107D01*
X106845480Y-106647151D01*
X106855970Y-106669329D01*
X106864235Y-106692429D01*
X106870196Y-106716227D01*
X106873796Y-106740496D01*
X106875000Y-106765000D01*
X106875000Y-108015000D01*
X106873796Y-108039504D01*
X106870196Y-108063773D01*
X106864235Y-108087571D01*
X106855970Y-108110671D01*
X106845480Y-108132849D01*
X106832867Y-108153893D01*
X106818253Y-108173598D01*
X106801777Y-108191777D01*
X106783598Y-108208253D01*
X106763893Y-108222867D01*
X106742849Y-108235480D01*
X106720671Y-108245970D01*
X106697571Y-108254235D01*
X106673773Y-108260196D01*
X106649504Y-108263796D01*
X106625000Y-108265000D01*
X105875000Y-108265000D01*
X105850496Y-108263796D01*
X105826227Y-108260196D01*
X105802429Y-108254235D01*
X105779329Y-108245970D01*
X105757151Y-108235480D01*
X105736107Y-108222867D01*
X105716402Y-108208253D01*
X105698223Y-108191777D01*
X105681747Y-108173598D01*
X105667133Y-108153893D01*
X105654520Y-108132849D01*
X105644030Y-108110671D01*
X105635765Y-108087571D01*
X105629804Y-108063773D01*
X105626204Y-108039504D01*
X105625000Y-108015000D01*
X105625000Y-106765000D01*
X105626204Y-106740496D01*
X105629804Y-106716227D01*
X105635765Y-106692429D01*
X105644030Y-106669329D01*
X105654520Y-106647151D01*
X105667133Y-106626107D01*
X105681747Y-106606402D01*
X105698223Y-106588223D01*
X105716402Y-106571747D01*
X105736107Y-106557133D01*
X105757151Y-106544520D01*
X105779329Y-106534030D01*
X105802429Y-106525765D01*
X105826227Y-106519804D01*
X105850496Y-106516204D01*
X105875000Y-106515000D01*
X106625000Y-106515000D01*
X106649504Y-106516204D01*
X106649504Y-106516204D01*
G37*
D16*
X106250000Y-107390000D03*
D12*
G36*
X109449504Y-106516204D02*
G01*
X109473773Y-106519804D01*
X109497571Y-106525765D01*
X109520671Y-106534030D01*
X109542849Y-106544520D01*
X109563893Y-106557133D01*
X109583598Y-106571747D01*
X109601777Y-106588223D01*
X109618253Y-106606402D01*
X109632867Y-106626107D01*
X109645480Y-106647151D01*
X109655970Y-106669329D01*
X109664235Y-106692429D01*
X109670196Y-106716227D01*
X109673796Y-106740496D01*
X109675000Y-106765000D01*
X109675000Y-108015000D01*
X109673796Y-108039504D01*
X109670196Y-108063773D01*
X109664235Y-108087571D01*
X109655970Y-108110671D01*
X109645480Y-108132849D01*
X109632867Y-108153893D01*
X109618253Y-108173598D01*
X109601777Y-108191777D01*
X109583598Y-108208253D01*
X109563893Y-108222867D01*
X109542849Y-108235480D01*
X109520671Y-108245970D01*
X109497571Y-108254235D01*
X109473773Y-108260196D01*
X109449504Y-108263796D01*
X109425000Y-108265000D01*
X108675000Y-108265000D01*
X108650496Y-108263796D01*
X108626227Y-108260196D01*
X108602429Y-108254235D01*
X108579329Y-108245970D01*
X108557151Y-108235480D01*
X108536107Y-108222867D01*
X108516402Y-108208253D01*
X108498223Y-108191777D01*
X108481747Y-108173598D01*
X108467133Y-108153893D01*
X108454520Y-108132849D01*
X108444030Y-108110671D01*
X108435765Y-108087571D01*
X108429804Y-108063773D01*
X108426204Y-108039504D01*
X108425000Y-108015000D01*
X108425000Y-106765000D01*
X108426204Y-106740496D01*
X108429804Y-106716227D01*
X108435765Y-106692429D01*
X108444030Y-106669329D01*
X108454520Y-106647151D01*
X108467133Y-106626107D01*
X108481747Y-106606402D01*
X108498223Y-106588223D01*
X108516402Y-106571747D01*
X108536107Y-106557133D01*
X108557151Y-106544520D01*
X108579329Y-106534030D01*
X108602429Y-106525765D01*
X108626227Y-106519804D01*
X108650496Y-106516204D01*
X108675000Y-106515000D01*
X109425000Y-106515000D01*
X109449504Y-106516204D01*
X109449504Y-106516204D01*
G37*
D16*
X109050000Y-107390000D03*
D12*
G36*
X106502691Y-108896053D02*
G01*
X106523926Y-108899203D01*
X106544750Y-108904419D01*
X106564962Y-108911651D01*
X106584368Y-108920830D01*
X106602781Y-108931866D01*
X106620024Y-108944654D01*
X106635930Y-108959070D01*
X106650346Y-108974976D01*
X106663134Y-108992219D01*
X106674170Y-109010632D01*
X106683349Y-109030038D01*
X106690581Y-109050250D01*
X106695797Y-109071074D01*
X106698947Y-109092309D01*
X106700000Y-109113750D01*
X106700000Y-109626250D01*
X106698947Y-109647691D01*
X106695797Y-109668926D01*
X106690581Y-109689750D01*
X106683349Y-109709962D01*
X106674170Y-109729368D01*
X106663134Y-109747781D01*
X106650346Y-109765024D01*
X106635930Y-109780930D01*
X106620024Y-109795346D01*
X106602781Y-109808134D01*
X106584368Y-109819170D01*
X106564962Y-109828349D01*
X106544750Y-109835581D01*
X106523926Y-109840797D01*
X106502691Y-109843947D01*
X106481250Y-109845000D01*
X106043750Y-109845000D01*
X106022309Y-109843947D01*
X106001074Y-109840797D01*
X105980250Y-109835581D01*
X105960038Y-109828349D01*
X105940632Y-109819170D01*
X105922219Y-109808134D01*
X105904976Y-109795346D01*
X105889070Y-109780930D01*
X105874654Y-109765024D01*
X105861866Y-109747781D01*
X105850830Y-109729368D01*
X105841651Y-109709962D01*
X105834419Y-109689750D01*
X105829203Y-109668926D01*
X105826053Y-109647691D01*
X105825000Y-109626250D01*
X105825000Y-109113750D01*
X105826053Y-109092309D01*
X105829203Y-109071074D01*
X105834419Y-109050250D01*
X105841651Y-109030038D01*
X105850830Y-109010632D01*
X105861866Y-108992219D01*
X105874654Y-108974976D01*
X105889070Y-108959070D01*
X105904976Y-108944654D01*
X105922219Y-108931866D01*
X105940632Y-108920830D01*
X105960038Y-108911651D01*
X105980250Y-108904419D01*
X106001074Y-108899203D01*
X106022309Y-108896053D01*
X106043750Y-108895000D01*
X106481250Y-108895000D01*
X106502691Y-108896053D01*
X106502691Y-108896053D01*
G37*
D13*
X106262500Y-109370000D03*
D12*
G36*
X108077691Y-108896053D02*
G01*
X108098926Y-108899203D01*
X108119750Y-108904419D01*
X108139962Y-108911651D01*
X108159368Y-108920830D01*
X108177781Y-108931866D01*
X108195024Y-108944654D01*
X108210930Y-108959070D01*
X108225346Y-108974976D01*
X108238134Y-108992219D01*
X108249170Y-109010632D01*
X108258349Y-109030038D01*
X108265581Y-109050250D01*
X108270797Y-109071074D01*
X108273947Y-109092309D01*
X108275000Y-109113750D01*
X108275000Y-109626250D01*
X108273947Y-109647691D01*
X108270797Y-109668926D01*
X108265581Y-109689750D01*
X108258349Y-109709962D01*
X108249170Y-109729368D01*
X108238134Y-109747781D01*
X108225346Y-109765024D01*
X108210930Y-109780930D01*
X108195024Y-109795346D01*
X108177781Y-109808134D01*
X108159368Y-109819170D01*
X108139962Y-109828349D01*
X108119750Y-109835581D01*
X108098926Y-109840797D01*
X108077691Y-109843947D01*
X108056250Y-109845000D01*
X107618750Y-109845000D01*
X107597309Y-109843947D01*
X107576074Y-109840797D01*
X107555250Y-109835581D01*
X107535038Y-109828349D01*
X107515632Y-109819170D01*
X107497219Y-109808134D01*
X107479976Y-109795346D01*
X107464070Y-109780930D01*
X107449654Y-109765024D01*
X107436866Y-109747781D01*
X107425830Y-109729368D01*
X107416651Y-109709962D01*
X107409419Y-109689750D01*
X107404203Y-109668926D01*
X107401053Y-109647691D01*
X107400000Y-109626250D01*
X107400000Y-109113750D01*
X107401053Y-109092309D01*
X107404203Y-109071074D01*
X107409419Y-109050250D01*
X107416651Y-109030038D01*
X107425830Y-109010632D01*
X107436866Y-108992219D01*
X107449654Y-108974976D01*
X107464070Y-108959070D01*
X107479976Y-108944654D01*
X107497219Y-108931866D01*
X107515632Y-108920830D01*
X107535038Y-108911651D01*
X107555250Y-108904419D01*
X107576074Y-108899203D01*
X107597309Y-108896053D01*
X107618750Y-108895000D01*
X108056250Y-108895000D01*
X108077691Y-108896053D01*
X108077691Y-108896053D01*
G37*
D13*
X107837500Y-109370000D03*
D15*
X103220000Y-110550000D03*
D14*
X103220000Y-109280000D03*
D17*
X114090000Y-108300000D03*
D18*
X111550000Y-108300000D03*
X112820000Y-109570000D03*
D15*
X111970000Y-104500000D03*
D14*
X113240000Y-104500000D03*
D19*
X116520000Y-104500000D02*
X113240000Y-104500000D01*
X120880000Y-108860000D02*
X116520000Y-104500000D01*
X109140000Y-104500000D02*
X106250000Y-107390000D01*
X111970000Y-104500000D02*
X109140000Y-104500000D01*
X105110000Y-107390000D02*
X103220000Y-109280000D01*
X106250000Y-107390000D02*
X105110000Y-107390000D01*
X106250000Y-109357500D02*
X106262500Y-109370000D01*
X106250000Y-107390000D02*
X106250000Y-109357500D01*
D20*
X106430000Y-113760000D02*
X106430000Y-113950000D01*
X103220000Y-110550000D02*
X106430000Y-113760000D01*
X112820000Y-110489238D02*
X112820000Y-109570000D01*
X112820000Y-111191370D02*
X112820000Y-110489238D01*
X110061370Y-113950000D02*
X112820000Y-111191370D01*
X108930000Y-113950000D02*
X110061370Y-113950000D01*
X117980000Y-110437500D02*
X116410000Y-110437500D01*
X115948388Y-109975888D02*
X115385888Y-109975888D01*
X116410000Y-110437500D02*
X115948388Y-109975888D01*
X114980000Y-109570000D02*
X112820000Y-109570000D01*
X115385888Y-109975888D02*
X114980000Y-109570000D01*
X116410000Y-108862500D02*
X117980000Y-108862500D01*
X115847500Y-108300000D02*
X114090000Y-108300000D01*
X116410000Y-108862500D02*
X115847500Y-108300000D01*
X109745710Y-106694290D02*
X109050000Y-107390000D01*
X113384290Y-106694290D02*
X109745710Y-106694290D01*
X114090000Y-107400000D02*
X113384290Y-106694290D01*
X114090000Y-108300000D02*
X114090000Y-107400000D01*
X119247500Y-110130000D02*
X117980000Y-108862500D01*
X120880000Y-110130000D02*
X119247500Y-110130000D01*
X110480000Y-109370000D02*
X111550000Y-108300000D01*
X107837500Y-109370000D02*
X110480000Y-109370000D01*
D21*
G36*
X121000310Y-103423902D02*
G01*
X121591999Y-104576190D01*
X122049438Y-105788041D01*
X122366750Y-107043883D01*
X122539859Y-108327588D01*
X122566535Y-109622625D01*
X122446438Y-110912356D01*
X122181109Y-112180215D01*
X121773963Y-113409875D01*
X121230229Y-114585549D01*
X120556900Y-115692111D01*
X119759099Y-116719891D01*
X119325301Y-117179905D01*
X102977697Y-117174446D01*
X102277310Y-116404372D01*
X101519926Y-115353721D01*
X100886336Y-114224063D01*
X100384708Y-113029960D01*
X100021476Y-111786737D01*
X99808150Y-110550000D01*
X102079509Y-110550000D01*
X102101423Y-110772499D01*
X102166324Y-110986447D01*
X102271716Y-111183623D01*
X102413551Y-111356449D01*
X102586377Y-111498284D01*
X102783553Y-111603676D01*
X102997501Y-111668577D01*
X103164248Y-111685000D01*
X103275752Y-111685000D01*
X103279800Y-111684601D01*
X104991928Y-113396730D01*
X104991928Y-114750000D01*
X105004188Y-114874482D01*
X105040498Y-114994180D01*
X105099463Y-115104494D01*
X105178815Y-115201185D01*
X105275506Y-115280537D01*
X105385820Y-115339502D01*
X105505518Y-115375812D01*
X105630000Y-115388072D01*
X107230000Y-115388072D01*
X107354482Y-115375812D01*
X107474180Y-115339502D01*
X107584494Y-115280537D01*
X107681185Y-115201185D01*
X107760537Y-115104494D01*
X107819502Y-114994180D01*
X107848661Y-114898057D01*
X108015241Y-115064637D01*
X108250273Y-115221680D01*
X108511426Y-115329853D01*
X108788665Y-115385000D01*
X109071335Y-115385000D01*
X109348574Y-115329853D01*
X109609727Y-115221680D01*
X109844759Y-115064637D01*
X110044637Y-114864759D01*
X110151519Y-114704798D01*
X110210356Y-114699003D01*
X110353617Y-114655546D01*
X110485646Y-114584974D01*
X110601371Y-114490001D01*
X110625174Y-114460997D01*
X113331004Y-111755168D01*
X113360001Y-111731371D01*
X113401967Y-111680235D01*
X113454974Y-111615647D01*
X113525546Y-111483617D01*
X113525546Y-111483616D01*
X113569003Y-111340356D01*
X113580000Y-111228703D01*
X113580000Y-111228693D01*
X113583676Y-111191370D01*
X113580000Y-111154047D01*
X113580000Y-110607641D01*
X113639140Y-110568125D01*
X113818125Y-110389140D01*
X113857641Y-110330000D01*
X114665199Y-110330000D01*
X114822084Y-110486885D01*
X114845887Y-110515889D01*
X114961612Y-110610862D01*
X115093641Y-110681434D01*
X115236902Y-110724891D01*
X115304343Y-110731533D01*
X115313392Y-110823408D01*
X115362150Y-110984142D01*
X115441329Y-111132275D01*
X115547885Y-111262115D01*
X115677725Y-111368671D01*
X115825858Y-111447850D01*
X115986592Y-111496608D01*
X116153750Y-111513072D01*
X116666250Y-111513072D01*
X116833408Y-111496608D01*
X116994142Y-111447850D01*
X117142275Y-111368671D01*
X117195000Y-111325401D01*
X117247725Y-111368671D01*
X117395858Y-111447850D01*
X117556592Y-111496608D01*
X117723750Y-111513072D01*
X118236250Y-111513072D01*
X118403408Y-111496608D01*
X118564142Y-111447850D01*
X118712275Y-111368671D01*
X118842115Y-111262115D01*
X118948671Y-111132275D01*
X119027850Y-110984142D01*
X119063010Y-110868233D01*
X119098514Y-110879003D01*
X119210167Y-110890000D01*
X119210175Y-110890000D01*
X119247500Y-110893676D01*
X119284825Y-110890000D01*
X119798954Y-110890000D01*
X119849463Y-110984494D01*
X119928815Y-111081185D01*
X120025506Y-111160537D01*
X120135820Y-111219502D01*
X120255518Y-111255812D01*
X120380000Y-111268072D01*
X121380000Y-111268072D01*
X121504482Y-111255812D01*
X121624180Y-111219502D01*
X121734494Y-111160537D01*
X121831185Y-111081185D01*
X121910537Y-110984494D01*
X121969502Y-110874180D01*
X122005812Y-110754482D01*
X122018072Y-110630000D01*
X122018072Y-109630000D01*
X122005812Y-109505518D01*
X121969502Y-109385820D01*
X121921930Y-109296820D01*
X121957446Y-109216864D01*
X121974119Y-109161874D01*
X121847954Y-108987000D01*
X121007000Y-108987000D01*
X121007000Y-108991928D01*
X120753000Y-108991928D01*
X120753000Y-108987000D01*
X119912046Y-108987000D01*
X119785881Y-109161874D01*
X119802554Y-109216864D01*
X119838070Y-109296820D01*
X119798954Y-109370000D01*
X119562302Y-109370000D01*
X119093072Y-108900771D01*
X119093072Y-108643750D01*
X119084639Y-108558126D01*
X119785881Y-108558126D01*
X119912046Y-108733000D01*
X120753000Y-108733000D01*
X120753000Y-107890871D01*
X121007000Y-107890871D01*
X121007000Y-108733000D01*
X121847954Y-108733000D01*
X121974119Y-108558126D01*
X121957446Y-108503136D01*
X121867123Y-108299794D01*
X121738865Y-108117980D01*
X121577601Y-107964682D01*
X121389529Y-107845790D01*
X121181876Y-107765874D01*
X121007000Y-107890871D01*
X120753000Y-107890871D01*
X120578124Y-107765874D01*
X120370471Y-107845790D01*
X120182399Y-107964682D01*
X120021135Y-108117980D01*
X119892877Y-108299794D01*
X119802554Y-108503136D01*
X119785881Y-108558126D01*
X119084639Y-108558126D01*
X119076608Y-108476592D01*
X119027850Y-108315858D01*
X118948671Y-108167725D01*
X118842115Y-108037885D01*
X118712275Y-107931329D01*
X118564142Y-107852150D01*
X118403408Y-107803392D01*
X118236250Y-107786928D01*
X117723750Y-107786928D01*
X117556592Y-107803392D01*
X117395858Y-107852150D01*
X117247725Y-107931329D01*
X117195000Y-107974599D01*
X117142275Y-107931329D01*
X116994142Y-107852150D01*
X116833408Y-107803392D01*
X116666250Y-107786928D01*
X116409601Y-107786928D01*
X116387501Y-107759999D01*
X116271776Y-107665026D01*
X116139747Y-107594454D01*
X115996486Y-107550997D01*
X115884833Y-107540000D01*
X115884822Y-107540000D01*
X115847500Y-107536324D01*
X115810178Y-107540000D01*
X115367238Y-107540000D01*
X115365812Y-107525518D01*
X115329502Y-107405820D01*
X115270537Y-107295506D01*
X115191185Y-107198815D01*
X115094494Y-107119463D01*
X114984180Y-107060498D01*
X114864482Y-107024188D01*
X114744566Y-107012378D01*
X114724974Y-106975724D01*
X114630001Y-106859999D01*
X114601002Y-106836201D01*
X113948093Y-106183292D01*
X113924291Y-106154289D01*
X113808566Y-106059316D01*
X113676537Y-105988744D01*
X113533276Y-105945287D01*
X113421623Y-105934290D01*
X113421612Y-105934290D01*
X113384290Y-105930614D01*
X113346968Y-105934290D01*
X109783043Y-105934290D01*
X109745710Y-105930613D01*
X109725530Y-105932601D01*
X109598254Y-105893992D01*
X109425000Y-105876928D01*
X109014651Y-105876928D01*
X109506579Y-105385000D01*
X111259265Y-105385000D01*
X111336377Y-105448284D01*
X111533553Y-105553676D01*
X111747501Y-105618577D01*
X111914248Y-105635000D01*
X112025752Y-105635000D01*
X112192499Y-105618577D01*
X112406447Y-105553676D01*
X112417621Y-105547703D01*
X112495820Y-105589502D01*
X112615518Y-105625812D01*
X112740000Y-105638072D01*
X112954250Y-105635000D01*
X113113000Y-105476250D01*
X113113000Y-104627000D01*
X113367000Y-104627000D01*
X113367000Y-105476250D01*
X113525750Y-105635000D01*
X113740000Y-105638072D01*
X113864482Y-105625812D01*
X113984180Y-105589502D01*
X114094494Y-105530537D01*
X114191185Y-105451185D01*
X114270537Y-105354494D01*
X114329502Y-105244180D01*
X114365812Y-105124482D01*
X114378072Y-105000000D01*
X114375000Y-104785750D01*
X114216250Y-104627000D01*
X113367000Y-104627000D01*
X113113000Y-104627000D01*
X113097983Y-104627000D01*
X113110491Y-104500000D01*
X113097983Y-104373000D01*
X113113000Y-104373000D01*
X113113000Y-103523750D01*
X113367000Y-103523750D01*
X113367000Y-104373000D01*
X114216250Y-104373000D01*
X114375000Y-104214250D01*
X114378072Y-104000000D01*
X114365812Y-103875518D01*
X114329502Y-103755820D01*
X114270537Y-103645506D01*
X114191185Y-103548815D01*
X114094494Y-103469463D01*
X113984180Y-103410498D01*
X113864482Y-103374188D01*
X113740000Y-103361928D01*
X113525750Y-103365000D01*
X113367000Y-103523750D01*
X113113000Y-103523750D01*
X112954250Y-103365000D01*
X112740000Y-103361928D01*
X112615518Y-103374188D01*
X112495820Y-103410498D01*
X112417621Y-103452297D01*
X112406447Y-103446324D01*
X112192499Y-103381423D01*
X112025752Y-103365000D01*
X111914248Y-103365000D01*
X111747501Y-103381423D01*
X111533553Y-103446324D01*
X111336377Y-103551716D01*
X111259265Y-103615000D01*
X109183465Y-103615000D01*
X109139999Y-103610719D01*
X109096533Y-103615000D01*
X109096523Y-103615000D01*
X108966510Y-103627805D01*
X108799687Y-103678411D01*
X108645941Y-103760589D01*
X108645939Y-103760590D01*
X108645940Y-103760590D01*
X108544953Y-103843468D01*
X108544951Y-103843470D01*
X108511183Y-103871183D01*
X108483470Y-103904951D01*
X106511494Y-105876928D01*
X105875000Y-105876928D01*
X105701746Y-105893992D01*
X105535150Y-105944528D01*
X105381614Y-106026595D01*
X105247038Y-106137038D01*
X105136595Y-106271614D01*
X105054528Y-106425150D01*
X105029191Y-106508677D01*
X104936510Y-106517805D01*
X104769686Y-106568411D01*
X104615941Y-106650589D01*
X104514953Y-106733468D01*
X104514951Y-106733470D01*
X104481183Y-106761183D01*
X104453470Y-106794951D01*
X103106494Y-108141928D01*
X102720000Y-108141928D01*
X102595518Y-108154188D01*
X102475820Y-108190498D01*
X102365506Y-108249463D01*
X102268815Y-108328815D01*
X102189463Y-108425506D01*
X102130498Y-108535820D01*
X102094188Y-108655518D01*
X102081928Y-108780000D01*
X102081928Y-109780000D01*
X102094188Y-109904482D01*
X102130498Y-110024180D01*
X102172297Y-110102379D01*
X102166324Y-110113553D01*
X102101423Y-110327501D01*
X102079509Y-110550000D01*
X99808150Y-110550000D01*
X99801316Y-110510383D01*
X99727060Y-109217320D01*
X99799659Y-107924166D01*
X100018184Y-106647523D01*
X100379819Y-105403844D01*
X100879919Y-104209093D01*
X101514931Y-103073494D01*
X101835818Y-102609989D01*
X120457502Y-102609382D01*
X121000310Y-103423902D01*
X121000310Y-103423902D01*
G37*
X121000310Y-103423902D02*
X121591999Y-104576190D01*
X122049438Y-105788041D01*
X122366750Y-107043883D01*
X122539859Y-108327588D01*
X122566535Y-109622625D01*
X122446438Y-110912356D01*
X122181109Y-112180215D01*
X121773963Y-113409875D01*
X121230229Y-114585549D01*
X120556900Y-115692111D01*
X119759099Y-116719891D01*
X119325301Y-117179905D01*
X102977697Y-117174446D01*
X102277310Y-116404372D01*
X101519926Y-115353721D01*
X100886336Y-114224063D01*
X100384708Y-113029960D01*
X100021476Y-111786737D01*
X99808150Y-110550000D01*
X102079509Y-110550000D01*
X102101423Y-110772499D01*
X102166324Y-110986447D01*
X102271716Y-111183623D01*
X102413551Y-111356449D01*
X102586377Y-111498284D01*
X102783553Y-111603676D01*
X102997501Y-111668577D01*
X103164248Y-111685000D01*
X103275752Y-111685000D01*
X103279800Y-111684601D01*
X104991928Y-113396730D01*
X104991928Y-114750000D01*
X105004188Y-114874482D01*
X105040498Y-114994180D01*
X105099463Y-115104494D01*
X105178815Y-115201185D01*
X105275506Y-115280537D01*
X105385820Y-115339502D01*
X105505518Y-115375812D01*
X105630000Y-115388072D01*
X107230000Y-115388072D01*
X107354482Y-115375812D01*
X107474180Y-115339502D01*
X107584494Y-115280537D01*
X107681185Y-115201185D01*
X107760537Y-115104494D01*
X107819502Y-114994180D01*
X107848661Y-114898057D01*
X108015241Y-115064637D01*
X108250273Y-115221680D01*
X108511426Y-115329853D01*
X108788665Y-115385000D01*
X109071335Y-115385000D01*
X109348574Y-115329853D01*
X109609727Y-115221680D01*
X109844759Y-115064637D01*
X110044637Y-114864759D01*
X110151519Y-114704798D01*
X110210356Y-114699003D01*
X110353617Y-114655546D01*
X110485646Y-114584974D01*
X110601371Y-114490001D01*
X110625174Y-114460997D01*
X113331004Y-111755168D01*
X113360001Y-111731371D01*
X113401967Y-111680235D01*
X113454974Y-111615647D01*
X113525546Y-111483617D01*
X113525546Y-111483616D01*
X113569003Y-111340356D01*
X113580000Y-111228703D01*
X113580000Y-111228693D01*
X113583676Y-111191370D01*
X113580000Y-111154047D01*
X113580000Y-110607641D01*
X113639140Y-110568125D01*
X113818125Y-110389140D01*
X113857641Y-110330000D01*
X114665199Y-110330000D01*
X114822084Y-110486885D01*
X114845887Y-110515889D01*
X114961612Y-110610862D01*
X115093641Y-110681434D01*
X115236902Y-110724891D01*
X115304343Y-110731533D01*
X115313392Y-110823408D01*
X115362150Y-110984142D01*
X115441329Y-111132275D01*
X115547885Y-111262115D01*
X115677725Y-111368671D01*
X115825858Y-111447850D01*
X115986592Y-111496608D01*
X116153750Y-111513072D01*
X116666250Y-111513072D01*
X116833408Y-111496608D01*
X116994142Y-111447850D01*
X117142275Y-111368671D01*
X117195000Y-111325401D01*
X117247725Y-111368671D01*
X117395858Y-111447850D01*
X117556592Y-111496608D01*
X117723750Y-111513072D01*
X118236250Y-111513072D01*
X118403408Y-111496608D01*
X118564142Y-111447850D01*
X118712275Y-111368671D01*
X118842115Y-111262115D01*
X118948671Y-111132275D01*
X119027850Y-110984142D01*
X119063010Y-110868233D01*
X119098514Y-110879003D01*
X119210167Y-110890000D01*
X119210175Y-110890000D01*
X119247500Y-110893676D01*
X119284825Y-110890000D01*
X119798954Y-110890000D01*
X119849463Y-110984494D01*
X119928815Y-111081185D01*
X120025506Y-111160537D01*
X120135820Y-111219502D01*
X120255518Y-111255812D01*
X120380000Y-111268072D01*
X121380000Y-111268072D01*
X121504482Y-111255812D01*
X121624180Y-111219502D01*
X121734494Y-111160537D01*
X121831185Y-111081185D01*
X121910537Y-110984494D01*
X121969502Y-110874180D01*
X122005812Y-110754482D01*
X122018072Y-110630000D01*
X122018072Y-109630000D01*
X122005812Y-109505518D01*
X121969502Y-109385820D01*
X121921930Y-109296820D01*
X121957446Y-109216864D01*
X121974119Y-109161874D01*
X121847954Y-108987000D01*
X121007000Y-108987000D01*
X121007000Y-108991928D01*
X120753000Y-108991928D01*
X120753000Y-108987000D01*
X119912046Y-108987000D01*
X119785881Y-109161874D01*
X119802554Y-109216864D01*
X119838070Y-109296820D01*
X119798954Y-109370000D01*
X119562302Y-109370000D01*
X119093072Y-108900771D01*
X119093072Y-108643750D01*
X119084639Y-108558126D01*
X119785881Y-108558126D01*
X119912046Y-108733000D01*
X120753000Y-108733000D01*
X120753000Y-107890871D01*
X121007000Y-107890871D01*
X121007000Y-108733000D01*
X121847954Y-108733000D01*
X121974119Y-108558126D01*
X121957446Y-108503136D01*
X121867123Y-108299794D01*
X121738865Y-108117980D01*
X121577601Y-107964682D01*
X121389529Y-107845790D01*
X121181876Y-107765874D01*
X121007000Y-107890871D01*
X120753000Y-107890871D01*
X120578124Y-107765874D01*
X120370471Y-107845790D01*
X120182399Y-107964682D01*
X120021135Y-108117980D01*
X119892877Y-108299794D01*
X119802554Y-108503136D01*
X119785881Y-108558126D01*
X119084639Y-108558126D01*
X119076608Y-108476592D01*
X119027850Y-108315858D01*
X118948671Y-108167725D01*
X118842115Y-108037885D01*
X118712275Y-107931329D01*
X118564142Y-107852150D01*
X118403408Y-107803392D01*
X118236250Y-107786928D01*
X117723750Y-107786928D01*
X117556592Y-107803392D01*
X117395858Y-107852150D01*
X117247725Y-107931329D01*
X117195000Y-107974599D01*
X117142275Y-107931329D01*
X116994142Y-107852150D01*
X116833408Y-107803392D01*
X116666250Y-107786928D01*
X116409601Y-107786928D01*
X116387501Y-107759999D01*
X116271776Y-107665026D01*
X116139747Y-107594454D01*
X115996486Y-107550997D01*
X115884833Y-107540000D01*
X115884822Y-107540000D01*
X115847500Y-107536324D01*
X115810178Y-107540000D01*
X115367238Y-107540000D01*
X115365812Y-107525518D01*
X115329502Y-107405820D01*
X115270537Y-107295506D01*
X115191185Y-107198815D01*
X115094494Y-107119463D01*
X114984180Y-107060498D01*
X114864482Y-107024188D01*
X114744566Y-107012378D01*
X114724974Y-106975724D01*
X114630001Y-106859999D01*
X114601002Y-106836201D01*
X113948093Y-106183292D01*
X113924291Y-106154289D01*
X113808566Y-106059316D01*
X113676537Y-105988744D01*
X113533276Y-105945287D01*
X113421623Y-105934290D01*
X113421612Y-105934290D01*
X113384290Y-105930614D01*
X113346968Y-105934290D01*
X109783043Y-105934290D01*
X109745710Y-105930613D01*
X109725530Y-105932601D01*
X109598254Y-105893992D01*
X109425000Y-105876928D01*
X109014651Y-105876928D01*
X109506579Y-105385000D01*
X111259265Y-105385000D01*
X111336377Y-105448284D01*
X111533553Y-105553676D01*
X111747501Y-105618577D01*
X111914248Y-105635000D01*
X112025752Y-105635000D01*
X112192499Y-105618577D01*
X112406447Y-105553676D01*
X112417621Y-105547703D01*
X112495820Y-105589502D01*
X112615518Y-105625812D01*
X112740000Y-105638072D01*
X112954250Y-105635000D01*
X113113000Y-105476250D01*
X113113000Y-104627000D01*
X113367000Y-104627000D01*
X113367000Y-105476250D01*
X113525750Y-105635000D01*
X113740000Y-105638072D01*
X113864482Y-105625812D01*
X113984180Y-105589502D01*
X114094494Y-105530537D01*
X114191185Y-105451185D01*
X114270537Y-105354494D01*
X114329502Y-105244180D01*
X114365812Y-105124482D01*
X114378072Y-105000000D01*
X114375000Y-104785750D01*
X114216250Y-104627000D01*
X113367000Y-104627000D01*
X113113000Y-104627000D01*
X113097983Y-104627000D01*
X113110491Y-104500000D01*
X113097983Y-104373000D01*
X113113000Y-104373000D01*
X113113000Y-103523750D01*
X113367000Y-103523750D01*
X113367000Y-104373000D01*
X114216250Y-104373000D01*
X114375000Y-104214250D01*
X114378072Y-104000000D01*
X114365812Y-103875518D01*
X114329502Y-103755820D01*
X114270537Y-103645506D01*
X114191185Y-103548815D01*
X114094494Y-103469463D01*
X113984180Y-103410498D01*
X113864482Y-103374188D01*
X113740000Y-103361928D01*
X113525750Y-103365000D01*
X113367000Y-103523750D01*
X113113000Y-103523750D01*
X112954250Y-103365000D01*
X112740000Y-103361928D01*
X112615518Y-103374188D01*
X112495820Y-103410498D01*
X112417621Y-103452297D01*
X112406447Y-103446324D01*
X112192499Y-103381423D01*
X112025752Y-103365000D01*
X111914248Y-103365000D01*
X111747501Y-103381423D01*
X111533553Y-103446324D01*
X111336377Y-103551716D01*
X111259265Y-103615000D01*
X109183465Y-103615000D01*
X109139999Y-103610719D01*
X109096533Y-103615000D01*
X109096523Y-103615000D01*
X108966510Y-103627805D01*
X108799687Y-103678411D01*
X108645941Y-103760589D01*
X108645939Y-103760590D01*
X108645940Y-103760590D01*
X108544953Y-103843468D01*
X108544951Y-103843470D01*
X108511183Y-103871183D01*
X108483470Y-103904951D01*
X106511494Y-105876928D01*
X105875000Y-105876928D01*
X105701746Y-105893992D01*
X105535150Y-105944528D01*
X105381614Y-106026595D01*
X105247038Y-106137038D01*
X105136595Y-106271614D01*
X105054528Y-106425150D01*
X105029191Y-106508677D01*
X104936510Y-106517805D01*
X104769686Y-106568411D01*
X104615941Y-106650589D01*
X104514953Y-106733468D01*
X104514951Y-106733470D01*
X104481183Y-106761183D01*
X104453470Y-106794951D01*
X103106494Y-108141928D01*
X102720000Y-108141928D01*
X102595518Y-108154188D01*
X102475820Y-108190498D01*
X102365506Y-108249463D01*
X102268815Y-108328815D01*
X102189463Y-108425506D01*
X102130498Y-108535820D01*
X102094188Y-108655518D01*
X102081928Y-108780000D01*
X102081928Y-109780000D01*
X102094188Y-109904482D01*
X102130498Y-110024180D01*
X102172297Y-110102379D01*
X102166324Y-110113553D01*
X102101423Y-110327501D01*
X102079509Y-110550000D01*
X99808150Y-110550000D01*
X99801316Y-110510383D01*
X99727060Y-109217320D01*
X99799659Y-107924166D01*
X100018184Y-106647523D01*
X100379819Y-105403844D01*
X100879919Y-104209093D01*
X101514931Y-103073494D01*
X101835818Y-102609989D01*
X120457502Y-102609382D01*
X121000310Y-103423902D01*
G36*
X105143020Y-110197746D02*
G01*
X105145020Y-110222562D01*
X105151823Y-110246511D01*
X105163168Y-110268672D01*
X105178618Y-110288195D01*
X105197579Y-110304328D01*
X105229839Y-110320483D01*
X105529839Y-110420483D01*
X105554116Y-110426003D01*
X105570000Y-110427000D01*
X105746022Y-110427000D01*
X105876592Y-110466608D01*
X106043750Y-110483072D01*
X106481250Y-110483072D01*
X106648408Y-110466608D01*
X106778978Y-110427000D01*
X107321022Y-110427000D01*
X107451592Y-110466608D01*
X107618750Y-110483072D01*
X108056250Y-110483072D01*
X108223408Y-110466608D01*
X108353978Y-110427000D01*
X108590000Y-110427000D01*
X108614776Y-110424560D01*
X108638601Y-110417333D01*
X108658901Y-110406685D01*
X109087316Y-110130000D01*
X110442678Y-110130000D01*
X110480000Y-110133676D01*
X110517322Y-110130000D01*
X110517333Y-110130000D01*
X110628986Y-110119003D01*
X110772247Y-110075546D01*
X110904276Y-110004974D01*
X111020001Y-109910001D01*
X111035827Y-109890718D01*
X111516334Y-109835201D01*
X111583019Y-109937975D01*
X111584381Y-109944821D01*
X111681247Y-110178676D01*
X111821875Y-110389140D01*
X111975330Y-110542595D01*
X112060000Y-110673087D01*
X112060000Y-110876568D01*
X110371455Y-112565113D01*
X109451864Y-112612931D01*
X109348574Y-112570147D01*
X109071335Y-112515000D01*
X108788665Y-112515000D01*
X108511426Y-112570147D01*
X108270756Y-112669836D01*
X107558144Y-112605378D01*
X107474180Y-112560498D01*
X107354482Y-112524188D01*
X107230000Y-112511928D01*
X106525000Y-112511928D01*
X106361311Y-112497122D01*
X105596487Y-111851686D01*
X104371556Y-110626755D01*
X104331393Y-109952015D01*
X104345812Y-109904482D01*
X104358072Y-109780000D01*
X104358072Y-109393506D01*
X105171740Y-108579838D01*
X105143020Y-110197746D01*
X105143020Y-110197746D01*
G37*
X105143020Y-110197746D02*
X105145020Y-110222562D01*
X105151823Y-110246511D01*
X105163168Y-110268672D01*
X105178618Y-110288195D01*
X105197579Y-110304328D01*
X105229839Y-110320483D01*
X105529839Y-110420483D01*
X105554116Y-110426003D01*
X105570000Y-110427000D01*
X105746022Y-110427000D01*
X105876592Y-110466608D01*
X106043750Y-110483072D01*
X106481250Y-110483072D01*
X106648408Y-110466608D01*
X106778978Y-110427000D01*
X107321022Y-110427000D01*
X107451592Y-110466608D01*
X107618750Y-110483072D01*
X108056250Y-110483072D01*
X108223408Y-110466608D01*
X108353978Y-110427000D01*
X108590000Y-110427000D01*
X108614776Y-110424560D01*
X108638601Y-110417333D01*
X108658901Y-110406685D01*
X109087316Y-110130000D01*
X110442678Y-110130000D01*
X110480000Y-110133676D01*
X110517322Y-110130000D01*
X110517333Y-110130000D01*
X110628986Y-110119003D01*
X110772247Y-110075546D01*
X110904276Y-110004974D01*
X111020001Y-109910001D01*
X111035827Y-109890718D01*
X111516334Y-109835201D01*
X111583019Y-109937975D01*
X111584381Y-109944821D01*
X111681247Y-110178676D01*
X111821875Y-110389140D01*
X111975330Y-110542595D01*
X112060000Y-110673087D01*
X112060000Y-110876568D01*
X110371455Y-112565113D01*
X109451864Y-112612931D01*
X109348574Y-112570147D01*
X109071335Y-112515000D01*
X108788665Y-112515000D01*
X108511426Y-112570147D01*
X108270756Y-112669836D01*
X107558144Y-112605378D01*
X107474180Y-112560498D01*
X107354482Y-112524188D01*
X107230000Y-112511928D01*
X106525000Y-112511928D01*
X106361311Y-112497122D01*
X105596487Y-111851686D01*
X104371556Y-110626755D01*
X104331393Y-109952015D01*
X104345812Y-109904482D01*
X104358072Y-109780000D01*
X104358072Y-109393506D01*
X105171740Y-108579838D01*
X105143020Y-110197746D01*
M02*
