G04 #@! TF.GenerationSoftware,KiCad,Pcbnew,(5.1.4)-1*
G04 #@! TF.CreationDate,2020-05-05T22:33:11+03:00*
G04 #@! TF.ProjectId,Single_Transitor_Amp,53696e67-6c65-45f5-9472-616e7369746f,V1.0*
G04 #@! TF.SameCoordinates,Original*
G04 #@! TF.FileFunction,Paste,Top*
G04 #@! TF.FilePolarity,Positive*
%FSLAX46Y46*%
G04 Gerber Fmt 4.6, Leading zero omitted, Abs format (unit mm)*
G04 Created by KiCad (PCBNEW (5.1.4)-1) date 2020-05-05 22:33:11*
%MOMM*%
%LPD*%
G04 APERTURE LIST*
%ADD10C,0.100000*%
%ADD11C,0.875000*%
%ADD12C,1.250000*%
G04 APERTURE END LIST*
D10*
G36*
X118257691Y-108426053D02*
G01*
X118278926Y-108429203D01*
X118299750Y-108434419D01*
X118319962Y-108441651D01*
X118339368Y-108450830D01*
X118357781Y-108461866D01*
X118375024Y-108474654D01*
X118390930Y-108489070D01*
X118405346Y-108504976D01*
X118418134Y-108522219D01*
X118429170Y-108540632D01*
X118438349Y-108560038D01*
X118445581Y-108580250D01*
X118450797Y-108601074D01*
X118453947Y-108622309D01*
X118455000Y-108643750D01*
X118455000Y-109081250D01*
X118453947Y-109102691D01*
X118450797Y-109123926D01*
X118445581Y-109144750D01*
X118438349Y-109164962D01*
X118429170Y-109184368D01*
X118418134Y-109202781D01*
X118405346Y-109220024D01*
X118390930Y-109235930D01*
X118375024Y-109250346D01*
X118357781Y-109263134D01*
X118339368Y-109274170D01*
X118319962Y-109283349D01*
X118299750Y-109290581D01*
X118278926Y-109295797D01*
X118257691Y-109298947D01*
X118236250Y-109300000D01*
X117723750Y-109300000D01*
X117702309Y-109298947D01*
X117681074Y-109295797D01*
X117660250Y-109290581D01*
X117640038Y-109283349D01*
X117620632Y-109274170D01*
X117602219Y-109263134D01*
X117584976Y-109250346D01*
X117569070Y-109235930D01*
X117554654Y-109220024D01*
X117541866Y-109202781D01*
X117530830Y-109184368D01*
X117521651Y-109164962D01*
X117514419Y-109144750D01*
X117509203Y-109123926D01*
X117506053Y-109102691D01*
X117505000Y-109081250D01*
X117505000Y-108643750D01*
X117506053Y-108622309D01*
X117509203Y-108601074D01*
X117514419Y-108580250D01*
X117521651Y-108560038D01*
X117530830Y-108540632D01*
X117541866Y-108522219D01*
X117554654Y-108504976D01*
X117569070Y-108489070D01*
X117584976Y-108474654D01*
X117602219Y-108461866D01*
X117620632Y-108450830D01*
X117640038Y-108441651D01*
X117660250Y-108434419D01*
X117681074Y-108429203D01*
X117702309Y-108426053D01*
X117723750Y-108425000D01*
X118236250Y-108425000D01*
X118257691Y-108426053D01*
X118257691Y-108426053D01*
G37*
D11*
X117980000Y-108862500D03*
D10*
G36*
X118257691Y-110001053D02*
G01*
X118278926Y-110004203D01*
X118299750Y-110009419D01*
X118319962Y-110016651D01*
X118339368Y-110025830D01*
X118357781Y-110036866D01*
X118375024Y-110049654D01*
X118390930Y-110064070D01*
X118405346Y-110079976D01*
X118418134Y-110097219D01*
X118429170Y-110115632D01*
X118438349Y-110135038D01*
X118445581Y-110155250D01*
X118450797Y-110176074D01*
X118453947Y-110197309D01*
X118455000Y-110218750D01*
X118455000Y-110656250D01*
X118453947Y-110677691D01*
X118450797Y-110698926D01*
X118445581Y-110719750D01*
X118438349Y-110739962D01*
X118429170Y-110759368D01*
X118418134Y-110777781D01*
X118405346Y-110795024D01*
X118390930Y-110810930D01*
X118375024Y-110825346D01*
X118357781Y-110838134D01*
X118339368Y-110849170D01*
X118319962Y-110858349D01*
X118299750Y-110865581D01*
X118278926Y-110870797D01*
X118257691Y-110873947D01*
X118236250Y-110875000D01*
X117723750Y-110875000D01*
X117702309Y-110873947D01*
X117681074Y-110870797D01*
X117660250Y-110865581D01*
X117640038Y-110858349D01*
X117620632Y-110849170D01*
X117602219Y-110838134D01*
X117584976Y-110825346D01*
X117569070Y-110810930D01*
X117554654Y-110795024D01*
X117541866Y-110777781D01*
X117530830Y-110759368D01*
X117521651Y-110739962D01*
X117514419Y-110719750D01*
X117509203Y-110698926D01*
X117506053Y-110677691D01*
X117505000Y-110656250D01*
X117505000Y-110218750D01*
X117506053Y-110197309D01*
X117509203Y-110176074D01*
X117514419Y-110155250D01*
X117521651Y-110135038D01*
X117530830Y-110115632D01*
X117541866Y-110097219D01*
X117554654Y-110079976D01*
X117569070Y-110064070D01*
X117584976Y-110049654D01*
X117602219Y-110036866D01*
X117620632Y-110025830D01*
X117640038Y-110016651D01*
X117660250Y-110009419D01*
X117681074Y-110004203D01*
X117702309Y-110001053D01*
X117723750Y-110000000D01*
X118236250Y-110000000D01*
X118257691Y-110001053D01*
X118257691Y-110001053D01*
G37*
D11*
X117980000Y-110437500D03*
D10*
G36*
X116687691Y-110001053D02*
G01*
X116708926Y-110004203D01*
X116729750Y-110009419D01*
X116749962Y-110016651D01*
X116769368Y-110025830D01*
X116787781Y-110036866D01*
X116805024Y-110049654D01*
X116820930Y-110064070D01*
X116835346Y-110079976D01*
X116848134Y-110097219D01*
X116859170Y-110115632D01*
X116868349Y-110135038D01*
X116875581Y-110155250D01*
X116880797Y-110176074D01*
X116883947Y-110197309D01*
X116885000Y-110218750D01*
X116885000Y-110656250D01*
X116883947Y-110677691D01*
X116880797Y-110698926D01*
X116875581Y-110719750D01*
X116868349Y-110739962D01*
X116859170Y-110759368D01*
X116848134Y-110777781D01*
X116835346Y-110795024D01*
X116820930Y-110810930D01*
X116805024Y-110825346D01*
X116787781Y-110838134D01*
X116769368Y-110849170D01*
X116749962Y-110858349D01*
X116729750Y-110865581D01*
X116708926Y-110870797D01*
X116687691Y-110873947D01*
X116666250Y-110875000D01*
X116153750Y-110875000D01*
X116132309Y-110873947D01*
X116111074Y-110870797D01*
X116090250Y-110865581D01*
X116070038Y-110858349D01*
X116050632Y-110849170D01*
X116032219Y-110838134D01*
X116014976Y-110825346D01*
X115999070Y-110810930D01*
X115984654Y-110795024D01*
X115971866Y-110777781D01*
X115960830Y-110759368D01*
X115951651Y-110739962D01*
X115944419Y-110719750D01*
X115939203Y-110698926D01*
X115936053Y-110677691D01*
X115935000Y-110656250D01*
X115935000Y-110218750D01*
X115936053Y-110197309D01*
X115939203Y-110176074D01*
X115944419Y-110155250D01*
X115951651Y-110135038D01*
X115960830Y-110115632D01*
X115971866Y-110097219D01*
X115984654Y-110079976D01*
X115999070Y-110064070D01*
X116014976Y-110049654D01*
X116032219Y-110036866D01*
X116050632Y-110025830D01*
X116070038Y-110016651D01*
X116090250Y-110009419D01*
X116111074Y-110004203D01*
X116132309Y-110001053D01*
X116153750Y-110000000D01*
X116666250Y-110000000D01*
X116687691Y-110001053D01*
X116687691Y-110001053D01*
G37*
D11*
X116410000Y-110437500D03*
D10*
G36*
X116687691Y-108426053D02*
G01*
X116708926Y-108429203D01*
X116729750Y-108434419D01*
X116749962Y-108441651D01*
X116769368Y-108450830D01*
X116787781Y-108461866D01*
X116805024Y-108474654D01*
X116820930Y-108489070D01*
X116835346Y-108504976D01*
X116848134Y-108522219D01*
X116859170Y-108540632D01*
X116868349Y-108560038D01*
X116875581Y-108580250D01*
X116880797Y-108601074D01*
X116883947Y-108622309D01*
X116885000Y-108643750D01*
X116885000Y-109081250D01*
X116883947Y-109102691D01*
X116880797Y-109123926D01*
X116875581Y-109144750D01*
X116868349Y-109164962D01*
X116859170Y-109184368D01*
X116848134Y-109202781D01*
X116835346Y-109220024D01*
X116820930Y-109235930D01*
X116805024Y-109250346D01*
X116787781Y-109263134D01*
X116769368Y-109274170D01*
X116749962Y-109283349D01*
X116729750Y-109290581D01*
X116708926Y-109295797D01*
X116687691Y-109298947D01*
X116666250Y-109300000D01*
X116153750Y-109300000D01*
X116132309Y-109298947D01*
X116111074Y-109295797D01*
X116090250Y-109290581D01*
X116070038Y-109283349D01*
X116050632Y-109274170D01*
X116032219Y-109263134D01*
X116014976Y-109250346D01*
X115999070Y-109235930D01*
X115984654Y-109220024D01*
X115971866Y-109202781D01*
X115960830Y-109184368D01*
X115951651Y-109164962D01*
X115944419Y-109144750D01*
X115939203Y-109123926D01*
X115936053Y-109102691D01*
X115935000Y-109081250D01*
X115935000Y-108643750D01*
X115936053Y-108622309D01*
X115939203Y-108601074D01*
X115944419Y-108580250D01*
X115951651Y-108560038D01*
X115960830Y-108540632D01*
X115971866Y-108522219D01*
X115984654Y-108504976D01*
X115999070Y-108489070D01*
X116014976Y-108474654D01*
X116032219Y-108461866D01*
X116050632Y-108450830D01*
X116070038Y-108441651D01*
X116090250Y-108434419D01*
X116111074Y-108429203D01*
X116132309Y-108426053D01*
X116153750Y-108425000D01*
X116666250Y-108425000D01*
X116687691Y-108426053D01*
X116687691Y-108426053D01*
G37*
D11*
X116410000Y-108862500D03*
D10*
G36*
X106649504Y-106516204D02*
G01*
X106673773Y-106519804D01*
X106697571Y-106525765D01*
X106720671Y-106534030D01*
X106742849Y-106544520D01*
X106763893Y-106557133D01*
X106783598Y-106571747D01*
X106801777Y-106588223D01*
X106818253Y-106606402D01*
X106832867Y-106626107D01*
X106845480Y-106647151D01*
X106855970Y-106669329D01*
X106864235Y-106692429D01*
X106870196Y-106716227D01*
X106873796Y-106740496D01*
X106875000Y-106765000D01*
X106875000Y-108015000D01*
X106873796Y-108039504D01*
X106870196Y-108063773D01*
X106864235Y-108087571D01*
X106855970Y-108110671D01*
X106845480Y-108132849D01*
X106832867Y-108153893D01*
X106818253Y-108173598D01*
X106801777Y-108191777D01*
X106783598Y-108208253D01*
X106763893Y-108222867D01*
X106742849Y-108235480D01*
X106720671Y-108245970D01*
X106697571Y-108254235D01*
X106673773Y-108260196D01*
X106649504Y-108263796D01*
X106625000Y-108265000D01*
X105875000Y-108265000D01*
X105850496Y-108263796D01*
X105826227Y-108260196D01*
X105802429Y-108254235D01*
X105779329Y-108245970D01*
X105757151Y-108235480D01*
X105736107Y-108222867D01*
X105716402Y-108208253D01*
X105698223Y-108191777D01*
X105681747Y-108173598D01*
X105667133Y-108153893D01*
X105654520Y-108132849D01*
X105644030Y-108110671D01*
X105635765Y-108087571D01*
X105629804Y-108063773D01*
X105626204Y-108039504D01*
X105625000Y-108015000D01*
X105625000Y-106765000D01*
X105626204Y-106740496D01*
X105629804Y-106716227D01*
X105635765Y-106692429D01*
X105644030Y-106669329D01*
X105654520Y-106647151D01*
X105667133Y-106626107D01*
X105681747Y-106606402D01*
X105698223Y-106588223D01*
X105716402Y-106571747D01*
X105736107Y-106557133D01*
X105757151Y-106544520D01*
X105779329Y-106534030D01*
X105802429Y-106525765D01*
X105826227Y-106519804D01*
X105850496Y-106516204D01*
X105875000Y-106515000D01*
X106625000Y-106515000D01*
X106649504Y-106516204D01*
X106649504Y-106516204D01*
G37*
D12*
X106250000Y-107390000D03*
D10*
G36*
X109449504Y-106516204D02*
G01*
X109473773Y-106519804D01*
X109497571Y-106525765D01*
X109520671Y-106534030D01*
X109542849Y-106544520D01*
X109563893Y-106557133D01*
X109583598Y-106571747D01*
X109601777Y-106588223D01*
X109618253Y-106606402D01*
X109632867Y-106626107D01*
X109645480Y-106647151D01*
X109655970Y-106669329D01*
X109664235Y-106692429D01*
X109670196Y-106716227D01*
X109673796Y-106740496D01*
X109675000Y-106765000D01*
X109675000Y-108015000D01*
X109673796Y-108039504D01*
X109670196Y-108063773D01*
X109664235Y-108087571D01*
X109655970Y-108110671D01*
X109645480Y-108132849D01*
X109632867Y-108153893D01*
X109618253Y-108173598D01*
X109601777Y-108191777D01*
X109583598Y-108208253D01*
X109563893Y-108222867D01*
X109542849Y-108235480D01*
X109520671Y-108245970D01*
X109497571Y-108254235D01*
X109473773Y-108260196D01*
X109449504Y-108263796D01*
X109425000Y-108265000D01*
X108675000Y-108265000D01*
X108650496Y-108263796D01*
X108626227Y-108260196D01*
X108602429Y-108254235D01*
X108579329Y-108245970D01*
X108557151Y-108235480D01*
X108536107Y-108222867D01*
X108516402Y-108208253D01*
X108498223Y-108191777D01*
X108481747Y-108173598D01*
X108467133Y-108153893D01*
X108454520Y-108132849D01*
X108444030Y-108110671D01*
X108435765Y-108087571D01*
X108429804Y-108063773D01*
X108426204Y-108039504D01*
X108425000Y-108015000D01*
X108425000Y-106765000D01*
X108426204Y-106740496D01*
X108429804Y-106716227D01*
X108435765Y-106692429D01*
X108444030Y-106669329D01*
X108454520Y-106647151D01*
X108467133Y-106626107D01*
X108481747Y-106606402D01*
X108498223Y-106588223D01*
X108516402Y-106571747D01*
X108536107Y-106557133D01*
X108557151Y-106544520D01*
X108579329Y-106534030D01*
X108602429Y-106525765D01*
X108626227Y-106519804D01*
X108650496Y-106516204D01*
X108675000Y-106515000D01*
X109425000Y-106515000D01*
X109449504Y-106516204D01*
X109449504Y-106516204D01*
G37*
D12*
X109050000Y-107390000D03*
D10*
G36*
X106502691Y-108896053D02*
G01*
X106523926Y-108899203D01*
X106544750Y-108904419D01*
X106564962Y-108911651D01*
X106584368Y-108920830D01*
X106602781Y-108931866D01*
X106620024Y-108944654D01*
X106635930Y-108959070D01*
X106650346Y-108974976D01*
X106663134Y-108992219D01*
X106674170Y-109010632D01*
X106683349Y-109030038D01*
X106690581Y-109050250D01*
X106695797Y-109071074D01*
X106698947Y-109092309D01*
X106700000Y-109113750D01*
X106700000Y-109626250D01*
X106698947Y-109647691D01*
X106695797Y-109668926D01*
X106690581Y-109689750D01*
X106683349Y-109709962D01*
X106674170Y-109729368D01*
X106663134Y-109747781D01*
X106650346Y-109765024D01*
X106635930Y-109780930D01*
X106620024Y-109795346D01*
X106602781Y-109808134D01*
X106584368Y-109819170D01*
X106564962Y-109828349D01*
X106544750Y-109835581D01*
X106523926Y-109840797D01*
X106502691Y-109843947D01*
X106481250Y-109845000D01*
X106043750Y-109845000D01*
X106022309Y-109843947D01*
X106001074Y-109840797D01*
X105980250Y-109835581D01*
X105960038Y-109828349D01*
X105940632Y-109819170D01*
X105922219Y-109808134D01*
X105904976Y-109795346D01*
X105889070Y-109780930D01*
X105874654Y-109765024D01*
X105861866Y-109747781D01*
X105850830Y-109729368D01*
X105841651Y-109709962D01*
X105834419Y-109689750D01*
X105829203Y-109668926D01*
X105826053Y-109647691D01*
X105825000Y-109626250D01*
X105825000Y-109113750D01*
X105826053Y-109092309D01*
X105829203Y-109071074D01*
X105834419Y-109050250D01*
X105841651Y-109030038D01*
X105850830Y-109010632D01*
X105861866Y-108992219D01*
X105874654Y-108974976D01*
X105889070Y-108959070D01*
X105904976Y-108944654D01*
X105922219Y-108931866D01*
X105940632Y-108920830D01*
X105960038Y-108911651D01*
X105980250Y-108904419D01*
X106001074Y-108899203D01*
X106022309Y-108896053D01*
X106043750Y-108895000D01*
X106481250Y-108895000D01*
X106502691Y-108896053D01*
X106502691Y-108896053D01*
G37*
D11*
X106262500Y-109370000D03*
D10*
G36*
X108077691Y-108896053D02*
G01*
X108098926Y-108899203D01*
X108119750Y-108904419D01*
X108139962Y-108911651D01*
X108159368Y-108920830D01*
X108177781Y-108931866D01*
X108195024Y-108944654D01*
X108210930Y-108959070D01*
X108225346Y-108974976D01*
X108238134Y-108992219D01*
X108249170Y-109010632D01*
X108258349Y-109030038D01*
X108265581Y-109050250D01*
X108270797Y-109071074D01*
X108273947Y-109092309D01*
X108275000Y-109113750D01*
X108275000Y-109626250D01*
X108273947Y-109647691D01*
X108270797Y-109668926D01*
X108265581Y-109689750D01*
X108258349Y-109709962D01*
X108249170Y-109729368D01*
X108238134Y-109747781D01*
X108225346Y-109765024D01*
X108210930Y-109780930D01*
X108195024Y-109795346D01*
X108177781Y-109808134D01*
X108159368Y-109819170D01*
X108139962Y-109828349D01*
X108119750Y-109835581D01*
X108098926Y-109840797D01*
X108077691Y-109843947D01*
X108056250Y-109845000D01*
X107618750Y-109845000D01*
X107597309Y-109843947D01*
X107576074Y-109840797D01*
X107555250Y-109835581D01*
X107535038Y-109828349D01*
X107515632Y-109819170D01*
X107497219Y-109808134D01*
X107479976Y-109795346D01*
X107464070Y-109780930D01*
X107449654Y-109765024D01*
X107436866Y-109747781D01*
X107425830Y-109729368D01*
X107416651Y-109709962D01*
X107409419Y-109689750D01*
X107404203Y-109668926D01*
X107401053Y-109647691D01*
X107400000Y-109626250D01*
X107400000Y-109113750D01*
X107401053Y-109092309D01*
X107404203Y-109071074D01*
X107409419Y-109050250D01*
X107416651Y-109030038D01*
X107425830Y-109010632D01*
X107436866Y-108992219D01*
X107449654Y-108974976D01*
X107464070Y-108959070D01*
X107479976Y-108944654D01*
X107497219Y-108931866D01*
X107515632Y-108920830D01*
X107535038Y-108911651D01*
X107555250Y-108904419D01*
X107576074Y-108899203D01*
X107597309Y-108896053D01*
X107618750Y-108895000D01*
X108056250Y-108895000D01*
X108077691Y-108896053D01*
X108077691Y-108896053D01*
G37*
D11*
X107837500Y-109370000D03*
M02*
