<?xml version="1.0" standalone="no"?>
 <!DOCTYPE svg PUBLIC "-//W3C//DTD SVG 1.1//EN" 
 "http://www.w3.org/Graphics/SVG/1.1/DTD/svg11.dtd"> 
<svg xmlns="http://www.w3.org/2000/svg" version="1.1" 
    width="29.7002cm" height="21.0007cm" viewBox="0 0 116930 82680 ">
<title>SVG Picture created as Single_Transitor_Amp-F_SilkS.svg date 2020/05/12 21:13:24 </title>
  <desc>Picture generated by PCBNEW </desc>
<g style="fill:#000000; fill-opacity:1;stroke:#000000; stroke-opacity:1;
stroke-linecap:round; stroke-linejoin:round; "
 transform="translate(0 0) scale(1 1)">
</g>
<g style="fill:#000000; fill-opacity:0.0; 
stroke:#000000; stroke-width:-0.000393701; stroke-opacity:1; 
stroke-linecap:round; stroke-linejoin:round;">
</g>
<g style="fill:#000000; fill-opacity:0.0; 
stroke:#000000; stroke-width:39.3701; stroke-opacity:1; 
stroke-linecap:round; stroke-linejoin:round;">
</g>
<g style="fill:#000000; fill-opacity:0.0; 
stroke:#000000; stroke-width:59.0551; stroke-opacity:1; 
stroke-linecap:round; stroke-linejoin:round;">
<rect x="69685.9" y="65357.2" width="42519.7" height="12598.4" rx="0" />
</g>
<g style="fill:#000000; fill-opacity:0.0; 
stroke:#000000; stroke-width:39.3701; stroke-opacity:1; 
stroke-linecap:round; stroke-linejoin:round;">
</g>
<g style="fill:#000000; fill-opacity:0.0; 
stroke:#000000; stroke-width:59.0551; stroke-opacity:1; 
stroke-linecap:round; stroke-linejoin:round;">
<rect x="3937.01" y="3937.01" width="109056" height="74806" rx="0" />
</g>
<g style="fill:#000000; fill-opacity:0.0; 
stroke:#000000; stroke-width:39.3701; stroke-opacity:1; 
stroke-linecap:round; stroke-linejoin:round;">
</g>
<g style="fill:#000000; fill-opacity:0.0; 
stroke:#000000; stroke-width:59.0551; stroke-opacity:1; 
stroke-linecap:round; stroke-linejoin:round;">
<rect x="4724.41" y="4724.41" width="107481" height="73231.2" rx="0" />
</g>
<g style="fill:#000000; fill-opacity:0.0; 
stroke:#000000; stroke-width:39.3701; stroke-opacity:1; 
stroke-linecap:round; stroke-linejoin:round;">
</g>
<g style="fill:#000000; fill-opacity:0.0; 
stroke:#000000; stroke-width:59.0551; stroke-opacity:1; 
stroke-linecap:round; stroke-linejoin:round;">
<path d="M23622 4724
L23622 3937
" />
</g>
<g style="fill:#000000; fill-opacity:0.0; 
stroke:#000000; stroke-width:39.3701; stroke-opacity:1; 
stroke-linecap:round; stroke-linejoin:round;">
</g>
<g style="fill:#000000; fill-opacity:0.0; 
stroke:#000000; stroke-width:59.0551; stroke-opacity:1; 
stroke-linecap:round; stroke-linejoin:round;">
<path d="M43307 4724
L43307 3937
" />
</g>
<g style="fill:#000000; fill-opacity:0.0; 
stroke:#000000; stroke-width:39.3701; stroke-opacity:1; 
stroke-linecap:round; stroke-linejoin:round;">
</g>
<g style="fill:#000000; fill-opacity:0.0; 
stroke:#000000; stroke-width:59.0551; stroke-opacity:1; 
stroke-linecap:round; stroke-linejoin:round;">
<path d="M62992 4724
L62992 3937
" />
</g>
<g style="fill:#000000; fill-opacity:0.0; 
stroke:#000000; stroke-width:39.3701; stroke-opacity:1; 
stroke-linecap:round; stroke-linejoin:round;">
</g>
<g style="fill:#000000; fill-opacity:0.0; 
stroke:#000000; stroke-width:59.0551; stroke-opacity:1; 
stroke-linecap:round; stroke-linejoin:round;">
<path d="M82677 4724
L82677 3937
" />
</g>
<g style="fill:#000000; fill-opacity:0.0; 
stroke:#000000; stroke-width:39.3701; stroke-opacity:1; 
stroke-linecap:round; stroke-linejoin:round;">
</g>
<g style="fill:#000000; fill-opacity:0.0; 
stroke:#000000; stroke-width:59.0551; stroke-opacity:1; 
stroke-linecap:round; stroke-linejoin:round;">
<path d="M102362 4724
L102362 3937
" />
</g>
<g style="fill:#000000; fill-opacity:0.0; 
stroke:#000000; stroke-width:39.3701; stroke-opacity:1; 
stroke-linecap:round; stroke-linejoin:round;">
</g>
<g style="fill:#000000; fill-opacity:0.0; 
stroke:#000000; stroke-width:59.0551; stroke-opacity:1; 
stroke-linecap:round; stroke-linejoin:round;">
<path d="M14199 4562
L13906 4562
" />
<path d="M14052 4562
L14052 4050
L14004 4123
L13955 4172
L13906 4196
" />
</g>
<g style="fill:#000000; fill-opacity:0.0; 
stroke:#000000; stroke-width:39.3701; stroke-opacity:1; 
stroke-linecap:round; stroke-linejoin:round;">
</g>
<g style="fill:#000000; fill-opacity:0.0; 
stroke:#000000; stroke-width:59.0551; stroke-opacity:1; 
stroke-linecap:round; stroke-linejoin:round;">
<path d="M33591 4099
L33615 4074
L33664 4050
L33786 4050
L33835 4074
L33859 4099
L33884 4147
L33884 4196
L33859 4269
L33567 4562
L33884 4562
" />
</g>
<g style="fill:#000000; fill-opacity:0.0; 
stroke:#000000; stroke-width:39.3701; stroke-opacity:1; 
stroke-linecap:round; stroke-linejoin:round;">
</g>
<g style="fill:#000000; fill-opacity:0.0; 
stroke:#000000; stroke-width:59.0551; stroke-opacity:1; 
stroke-linecap:round; stroke-linejoin:round;">
<path d="M53252 4050
L53569 4050
L53398 4245
L53471 4245
L53520 4269
L53544 4294
L53569 4342
L53569 4464
L53544 4513
L53520 4537
L53471 4562
L53325 4562
L53276 4537
L53252 4513
" />
</g>
<g style="fill:#000000; fill-opacity:0.0; 
stroke:#000000; stroke-width:39.3701; stroke-opacity:1; 
stroke-linecap:round; stroke-linejoin:round;">
</g>
<g style="fill:#000000; fill-opacity:0.0; 
stroke:#000000; stroke-width:59.0551; stroke-opacity:1; 
stroke-linecap:round; stroke-linejoin:round;">
<path d="M73205 4221
L73205 4562
" />
<path d="M73083 4026
L72961 4391
L73278 4391
" />
</g>
<g style="fill:#000000; fill-opacity:0.0; 
stroke:#000000; stroke-width:39.3701; stroke-opacity:1; 
stroke-linecap:round; stroke-linejoin:round;">
</g>
<g style="fill:#000000; fill-opacity:0.0; 
stroke:#000000; stroke-width:59.0551; stroke-opacity:1; 
stroke-linecap:round; stroke-linejoin:round;">
<path d="M92914 4050
L92671 4050
L92646 4294
L92671 4269
L92719 4245
L92841 4245
L92890 4269
L92914 4294
L92939 4342
L92939 4464
L92914 4513
L92890 4537
L92841 4562
L92719 4562
L92671 4537
L92646 4513
" />
</g>
<g style="fill:#000000; fill-opacity:0.0; 
stroke:#000000; stroke-width:39.3701; stroke-opacity:1; 
stroke-linecap:round; stroke-linejoin:round;">
</g>
<g style="fill:#000000; fill-opacity:0.0; 
stroke:#000000; stroke-width:59.0551; stroke-opacity:1; 
stroke-linecap:round; stroke-linejoin:round;">
<path d="M112575 4050
L112477 4050
L112429 4074
L112404 4099
L112356 4172
L112331 4269
L112331 4464
L112356 4513
L112380 4537
L112429 4562
L112526 4562
L112575 4537
L112599 4513
L112624 4464
L112624 4342
L112599 4294
L112575 4269
L112526 4245
L112429 4245
L112380 4269
L112356 4294
L112331 4342
" />
</g>
<g style="fill:#000000; fill-opacity:0.0; 
stroke:#000000; stroke-width:39.3701; stroke-opacity:1; 
stroke-linecap:round; stroke-linejoin:round;">
</g>
<g style="fill:#000000; fill-opacity:0.0; 
stroke:#000000; stroke-width:59.0551; stroke-opacity:1; 
stroke-linecap:round; stroke-linejoin:round;">
<path d="M23622 77955
L23622 78742
" />
</g>
<g style="fill:#000000; fill-opacity:0.0; 
stroke:#000000; stroke-width:39.3701; stroke-opacity:1; 
stroke-linecap:round; stroke-linejoin:round;">
</g>
<g style="fill:#000000; fill-opacity:0.0; 
stroke:#000000; stroke-width:59.0551; stroke-opacity:1; 
stroke-linecap:round; stroke-linejoin:round;">
<path d="M43307 77955
L43307 78742
" />
</g>
<g style="fill:#000000; fill-opacity:0.0; 
stroke:#000000; stroke-width:39.3701; stroke-opacity:1; 
stroke-linecap:round; stroke-linejoin:round;">
</g>
<g style="fill:#000000; fill-opacity:0.0; 
stroke:#000000; stroke-width:59.0551; stroke-opacity:1; 
stroke-linecap:round; stroke-linejoin:round;">
<path d="M62992 77955
L62992 78742
" />
</g>
<g style="fill:#000000; fill-opacity:0.0; 
stroke:#000000; stroke-width:39.3701; stroke-opacity:1; 
stroke-linecap:round; stroke-linejoin:round;">
</g>
<g style="fill:#000000; fill-opacity:0.0; 
stroke:#000000; stroke-width:59.0551; stroke-opacity:1; 
stroke-linecap:round; stroke-linejoin:round;">
<path d="M82677 77955
L82677 78742
" />
</g>
<g style="fill:#000000; fill-opacity:0.0; 
stroke:#000000; stroke-width:39.3701; stroke-opacity:1; 
stroke-linecap:round; stroke-linejoin:round;">
</g>
<g style="fill:#000000; fill-opacity:0.0; 
stroke:#000000; stroke-width:59.0551; stroke-opacity:1; 
stroke-linecap:round; stroke-linejoin:round;">
<path d="M102362 77955
L102362 78742
" />
</g>
<g style="fill:#000000; fill-opacity:0.0; 
stroke:#000000; stroke-width:39.3701; stroke-opacity:1; 
stroke-linecap:round; stroke-linejoin:round;">
</g>
<g style="fill:#000000; fill-opacity:0.0; 
stroke:#000000; stroke-width:59.0551; stroke-opacity:1; 
stroke-linecap:round; stroke-linejoin:round;">
<path d="M14199 78580
L13906 78580
" />
<path d="M14052 78580
L14052 78069
L14004 78142
L13955 78190
L13906 78215
" />
</g>
<g style="fill:#000000; fill-opacity:0.0; 
stroke:#000000; stroke-width:39.3701; stroke-opacity:1; 
stroke-linecap:round; stroke-linejoin:round;">
</g>
<g style="fill:#000000; fill-opacity:0.0; 
stroke:#000000; stroke-width:59.0551; stroke-opacity:1; 
stroke-linecap:round; stroke-linejoin:round;">
<path d="M33591 78117
L33615 78093
L33664 78069
L33786 78069
L33835 78093
L33859 78117
L33884 78166
L33884 78215
L33859 78288
L33567 78580
L33884 78580
" />
</g>
<g style="fill:#000000; fill-opacity:0.0; 
stroke:#000000; stroke-width:39.3701; stroke-opacity:1; 
stroke-linecap:round; stroke-linejoin:round;">
</g>
<g style="fill:#000000; fill-opacity:0.0; 
stroke:#000000; stroke-width:59.0551; stroke-opacity:1; 
stroke-linecap:round; stroke-linejoin:round;">
<path d="M53252 78069
L53569 78069
L53398 78263
L53471 78263
L53520 78288
L53544 78312
L53569 78361
L53569 78483
L53544 78532
L53520 78556
L53471 78580
L53325 78580
L53276 78556
L53252 78532
" />
</g>
<g style="fill:#000000; fill-opacity:0.0; 
stroke:#000000; stroke-width:39.3701; stroke-opacity:1; 
stroke-linecap:round; stroke-linejoin:round;">
</g>
<g style="fill:#000000; fill-opacity:0.0; 
stroke:#000000; stroke-width:59.0551; stroke-opacity:1; 
stroke-linecap:round; stroke-linejoin:round;">
<path d="M73205 78239
L73205 78580
" />
<path d="M73083 78044
L72961 78410
L73278 78410
" />
</g>
<g style="fill:#000000; fill-opacity:0.0; 
stroke:#000000; stroke-width:39.3701; stroke-opacity:1; 
stroke-linecap:round; stroke-linejoin:round;">
</g>
<g style="fill:#000000; fill-opacity:0.0; 
stroke:#000000; stroke-width:59.0551; stroke-opacity:1; 
stroke-linecap:round; stroke-linejoin:round;">
<path d="M92914 78069
L92671 78069
L92646 78312
L92671 78288
L92719 78263
L92841 78263
L92890 78288
L92914 78312
L92939 78361
L92939 78483
L92914 78532
L92890 78556
L92841 78580
L92719 78580
L92671 78556
L92646 78532
" />
</g>
<g style="fill:#000000; fill-opacity:0.0; 
stroke:#000000; stroke-width:39.3701; stroke-opacity:1; 
stroke-linecap:round; stroke-linejoin:round;">
</g>
<g style="fill:#000000; fill-opacity:0.0; 
stroke:#000000; stroke-width:59.0551; stroke-opacity:1; 
stroke-linecap:round; stroke-linejoin:round;">
<path d="M112575 78069
L112477 78069
L112429 78093
L112404 78117
L112356 78190
L112331 78288
L112331 78483
L112356 78532
L112380 78556
L112429 78580
L112526 78580
L112575 78556
L112599 78532
L112624 78483
L112624 78361
L112599 78312
L112575 78288
L112526 78263
L112429 78263
L112380 78288
L112356 78312
L112331 78361
" />
</g>
<g style="fill:#000000; fill-opacity:0.0; 
stroke:#000000; stroke-width:39.3701; stroke-opacity:1; 
stroke-linecap:round; stroke-linejoin:round;">
</g>
<g style="fill:#000000; fill-opacity:0.0; 
stroke:#000000; stroke-width:59.0551; stroke-opacity:1; 
stroke-linecap:round; stroke-linejoin:round;">
<path d="M3937 23622
L4724 23622
" />
</g>
<g style="fill:#000000; fill-opacity:0.0; 
stroke:#000000; stroke-width:39.3701; stroke-opacity:1; 
stroke-linecap:round; stroke-linejoin:round;">
</g>
<g style="fill:#000000; fill-opacity:0.0; 
stroke:#000000; stroke-width:59.0551; stroke-opacity:1; 
stroke-linecap:round; stroke-linejoin:round;">
<path d="M3937 43307
L4724 43307
" />
</g>
<g style="fill:#000000; fill-opacity:0.0; 
stroke:#000000; stroke-width:39.3701; stroke-opacity:1; 
stroke-linecap:round; stroke-linejoin:round;">
</g>
<g style="fill:#000000; fill-opacity:0.0; 
stroke:#000000; stroke-width:59.0551; stroke-opacity:1; 
stroke-linecap:round; stroke-linejoin:round;">
<path d="M3937 62992
L4724 62992
" />
</g>
<g style="fill:#000000; fill-opacity:0.0; 
stroke:#000000; stroke-width:39.3701; stroke-opacity:1; 
stroke-linecap:round; stroke-linejoin:round;">
</g>
<g style="fill:#000000; fill-opacity:0.0; 
stroke:#000000; stroke-width:59.0551; stroke-opacity:1; 
stroke-linecap:round; stroke-linejoin:round;">
<path d="M4208 13864
L4452 13864
" />
<path d="M4160 14011
L4330 13499
L4501 14011
" />
</g>
<g style="fill:#000000; fill-opacity:0.0; 
stroke:#000000; stroke-width:39.3701; stroke-opacity:1; 
stroke-linecap:round; stroke-linejoin:round;">
</g>
<g style="fill:#000000; fill-opacity:0.0; 
stroke:#000000; stroke-width:59.0551; stroke-opacity:1; 
stroke-linecap:round; stroke-linejoin:round;">
<path d="M4367 33428
L4440 33452
L4464 33476
L4489 33525
L4489 33598
L4464 33647
L4440 33671
L4391 33696
L4196 33696
L4196 33184
L4367 33184
L4416 33208
L4440 33233
L4464 33281
L4464 33330
L4440 33379
L4416 33403
L4367 33428
L4196 33428
" />
</g>
<g style="fill:#000000; fill-opacity:0.0; 
stroke:#000000; stroke-width:39.3701; stroke-opacity:1; 
stroke-linecap:round; stroke-linejoin:round;">
</g>
<g style="fill:#000000; fill-opacity:0.0; 
stroke:#000000; stroke-width:59.0551; stroke-opacity:1; 
stroke-linecap:round; stroke-linejoin:round;">
<path d="M4489 53332
L4464 53356
L4391 53381
L4342 53381
L4269 53356
L4221 53308
L4196 53259
L4172 53161
L4172 53088
L4196 52991
L4221 52942
L4269 52893
L4342 52869
L4391 52869
L4464 52893
L4489 52918
" />
</g>
<g style="fill:#000000; fill-opacity:0.0; 
stroke:#000000; stroke-width:39.3701; stroke-opacity:1; 
stroke-linecap:round; stroke-linejoin:round;">
</g>
<g style="fill:#000000; fill-opacity:0.0; 
stroke:#000000; stroke-width:59.0551; stroke-opacity:1; 
stroke-linecap:round; stroke-linejoin:round;">
<path d="M4196 73066
L4196 72554
L4318 72554
L4391 72578
L4440 72627
L4464 72676
L4489 72773
L4489 72846
L4464 72944
L4440 72993
L4391 73041
L4318 73066
L4196 73066
" />
</g>
<g style="fill:#000000; fill-opacity:0.0; 
stroke:#000000; stroke-width:39.3701; stroke-opacity:1; 
stroke-linecap:round; stroke-linejoin:round;">
</g>
<g style="fill:#000000; fill-opacity:0.0; 
stroke:#000000; stroke-width:59.0551; stroke-opacity:1; 
stroke-linecap:round; stroke-linejoin:round;">
<path d="M112992 23622
L112205 23622
" />
</g>
<g style="fill:#000000; fill-opacity:0.0; 
stroke:#000000; stroke-width:39.3701; stroke-opacity:1; 
stroke-linecap:round; stroke-linejoin:round;">
</g>
<g style="fill:#000000; fill-opacity:0.0; 
stroke:#000000; stroke-width:59.0551; stroke-opacity:1; 
stroke-linecap:round; stroke-linejoin:round;">
<path d="M112992 43307
L112205 43307
" />
</g>
<g style="fill:#000000; fill-opacity:0.0; 
stroke:#000000; stroke-width:39.3701; stroke-opacity:1; 
stroke-linecap:round; stroke-linejoin:round;">
</g>
<g style="fill:#000000; fill-opacity:0.0; 
stroke:#000000; stroke-width:59.0551; stroke-opacity:1; 
stroke-linecap:round; stroke-linejoin:round;">
<path d="M112992 62992
L112205 62992
" />
</g>
<g style="fill:#000000; fill-opacity:0.0; 
stroke:#000000; stroke-width:39.3701; stroke-opacity:1; 
stroke-linecap:round; stroke-linejoin:round;">
</g>
<g style="fill:#000000; fill-opacity:0.0; 
stroke:#000000; stroke-width:59.0551; stroke-opacity:1; 
stroke-linecap:round; stroke-linejoin:round;">
<path d="M112477 13864
L112721 13864
" />
<path d="M112428 14011
L112599 13499
L112769 14011
" />
</g>
<g style="fill:#000000; fill-opacity:0.0; 
stroke:#000000; stroke-width:39.3701; stroke-opacity:1; 
stroke-linecap:round; stroke-linejoin:round;">
</g>
<g style="fill:#000000; fill-opacity:0.0; 
stroke:#000000; stroke-width:59.0551; stroke-opacity:1; 
stroke-linecap:round; stroke-linejoin:round;">
<path d="M112635 33428
L112708 33452
L112733 33476
L112757 33525
L112757 33598
L112733 33647
L112708 33671
L112660 33696
L112465 33696
L112465 33184
L112635 33184
L112684 33208
L112708 33233
L112733 33281
L112733 33330
L112708 33379
L112684 33403
L112635 33428
L112465 33428
" />
</g>
<g style="fill:#000000; fill-opacity:0.0; 
stroke:#000000; stroke-width:39.3701; stroke-opacity:1; 
stroke-linecap:round; stroke-linejoin:round;">
</g>
<g style="fill:#000000; fill-opacity:0.0; 
stroke:#000000; stroke-width:59.0551; stroke-opacity:1; 
stroke-linecap:round; stroke-linejoin:round;">
<path d="M112757 53332
L112733 53356
L112660 53381
L112611 53381
L112538 53356
L112489 53308
L112465 53259
L112440 53161
L112440 53088
L112465 52991
L112489 52942
L112538 52893
L112611 52869
L112660 52869
L112733 52893
L112757 52918
" />
</g>
<g style="fill:#000000; fill-opacity:0.0; 
stroke:#000000; stroke-width:39.3701; stroke-opacity:1; 
stroke-linecap:round; stroke-linejoin:round;">
</g>
<g style="fill:#000000; fill-opacity:0.0; 
stroke:#000000; stroke-width:59.0551; stroke-opacity:1; 
stroke-linecap:round; stroke-linejoin:round;">
<path d="M112465 73066
L112465 72554
L112587 72554
L112660 72578
L112708 72627
L112733 72676
L112757 72773
L112757 72846
L112733 72944
L112708 72993
L112660 73041
L112587 73066
L112465 73066
" />
</g>
<g style="fill:#000000; fill-opacity:0.0; 
stroke:#000000; stroke-width:39.3701; stroke-opacity:1; 
stroke-linecap:round; stroke-linejoin:round;">
</g>
<g style="fill:#000000; fill-opacity:0.0; 
stroke:#000000; stroke-width:59.0551; stroke-opacity:1; 
stroke-linecap:round; stroke-linejoin:round;">
<path d="M78911 76293
L78911 75703
L79051 75703
L79136 75731
L79192 75787
L79220 75843
L79248 75956
L79248 76040
L79220 76153
L79192 76209
L79136 76265
L79051 76293
L78911 76293
" />
<path d="M79754 76293
L79754 75984
L79726 75928
L79670 75899
L79557 75899
L79501 75928
" />
<path d="M79754 76265
L79698 76293
L79557 76293
L79501 76265
L79473 76209
L79473 76153
L79501 76096
L79557 76068
L79698 76068
L79754 76040
" />
<path d="M79951 75899
L80176 75899
" />
<path d="M80036 75703
L80036 76209
L80064 76265
L80120 76293
L80176 76293
" />
<path d="M80598 76265
L80542 76293
L80429 76293
L80373 76265
L80345 76209
L80345 75984
L80373 75928
L80429 75899
L80542 75899
L80598 75928
L80626 75984
L80626 76040
L80345 76096
" />
<path d="M80879 76237
L80907 76265
L80879 76293
L80851 76265
L80879 76237
L80879 76293
" />
<path d="M80879 75928
L80907 75956
L80879 75984
L80851 75956
L80879 75928
L80879 75984
" />
<path d="M81582 75759
L81610 75731
L81667 75703
L81807 75703
L81863 75731
L81892 75759
L81920 75815
L81920 75871
L81892 75956
L81554 76293
L81920 76293
" />
<path d="M82285 75703
L82341 75703
L82398 75731
L82426 75759
L82454 75815
L82482 75928
L82482 76068
L82454 76181
L82426 76237
L82398 76265
L82341 76293
L82285 76293
L82229 76265
L82201 76237
L82173 76181
L82145 76068
L82145 75928
L82173 75815
L82201 75759
L82229 75731
L82285 75703
" />
<path d="M82707 75759
L82735 75731
L82791 75703
L82932 75703
L82988 75731
L83016 75759
L83045 75815
L83045 75871
L83016 75956
L82679 76293
L83045 76293
" />
<path d="M83410 75703
L83466 75703
L83523 75731
L83551 75759
L83579 75815
L83607 75928
L83607 76068
L83579 76181
L83551 76237
L83523 76265
L83466 76293
L83410 76293
L83354 76265
L83326 76237
L83298 76181
L83269 76068
L83269 75928
L83298 75815
L83326 75759
L83354 75731
L83410 75703
" />
<path d="M83860 76068
L84310 76068
" />
<path d="M84704 75703
L84760 75703
L84816 75731
L84844 75759
L84872 75815
L84901 75928
L84901 76068
L84872 76181
L84844 76237
L84816 76265
L84760 76293
L84704 76293
L84647 76265
L84619 76237
L84591 76181
L84563 76068
L84563 75928
L84591 75815
L84619 75759
L84647 75731
L84704 75703
" />
<path d="M85407 75899
L85407 76293
" />
<path d="M85266 75674
L85126 76096
L85491 76096
" />
<path d="M85716 76068
L86166 76068
" />
<path d="M86560 75703
L86616 75703
L86672 75731
L86700 75759
L86728 75815
L86757 75928
L86757 76068
L86728 76181
L86700 76237
L86672 76265
L86616 76293
L86560 76293
L86503 76265
L86475 76237
L86447 76181
L86419 76068
L86419 75928
L86447 75815
L86475 75759
L86503 75731
L86560 75703
" />
<path d="M87319 76293
L86982 76293
" />
<path d="M87150 76293
L87150 75703
L87094 75787
L87038 75843
L86982 75871
" />
</g>
<g style="fill:#000000; fill-opacity:0.0; 
stroke:#000000; stroke-width:39.3701; stroke-opacity:1; 
stroke-linecap:round; stroke-linejoin:round;">
</g>
<g style="fill:#000000; fill-opacity:0.0; 
stroke:#000000; stroke-width:59.0551; stroke-opacity:1; 
stroke-linecap:round; stroke-linejoin:round;">
<path d="M69685 76577
L112205 76577
" />
</g>
<g style="fill:#000000; fill-opacity:0.0; 
stroke:#000000; stroke-width:39.3701; stroke-opacity:1; 
stroke-linecap:round; stroke-linejoin:round;">
</g>
<g style="fill:#000000; fill-opacity:0.0; 
stroke:#000000; stroke-width:59.0551; stroke-opacity:1; 
stroke-linecap:round; stroke-linejoin:round;">
<path d="M70249 77395
L70249 76805
" />
<path d="M70587 77395
L70334 77058
" />
<path d="M70587 76805
L70249 77142
" />
<path d="M70840 77395
L70840 77002
" />
<path d="M70840 76805
L70812 76833
L70840 76861
L70868 76833
L70840 76805
L70840 76861
" />
<path d="M71458 77339
L71430 77367
L71346 77395
L71290 77395
L71205 77367
L71149 77311
L71121 77255
L71093 77142
L71093 77058
L71121 76946
L71149 76889
L71205 76833
L71290 76805
L71346 76805
L71430 76833
L71458 76861
" />
<path d="M71965 77395
L71965 77086
L71937 77030
L71880 77002
L71768 77002
L71712 77030
" />
<path d="M71965 77367
L71908 77395
L71768 77395
L71712 77367
L71683 77311
L71683 77255
L71712 77199
L71768 77171
L71908 77171
L71965 77142
" />
<path d="M72499 77395
L72499 76805
" />
<path d="M72499 77367
L72443 77395
L72330 77395
L72274 77367
L72246 77339
L72218 77283
L72218 77114
L72246 77058
L72274 77030
L72330 77002
L72443 77002
L72499 77030
" />
<path d="M73230 77086
L73427 77086
" />
<path d="M73511 77395
L73230 77395
L73230 76805
L73511 76805
" />
<path d="M73764 77339
L73793 77367
L73764 77395
L73736 77367
L73764 77339
L73764 77395
" />
<path d="M74046 77395
L74046 76805
L74186 76805
L74271 76833
L74327 76889
L74355 76946
L74383 77058
L74383 77142
L74355 77255
L74327 77311
L74271 77367
L74186 77395
L74046 77395
" />
<path d="M74636 77339
L74664 77367
L74636 77395
L74608 77367
L74636 77339
L74636 77395
" />
<path d="M74889 77227
L75171 77227
" />
<path d="M74833 77395
L75030 76805
L75227 77395
" />
<path d="M75424 77339
L75452 77367
L75424 77395
L75395 77367
L75424 77339
L75424 77395
" />
<path d="M76605 77395
L76605 76805
" />
<path d="M76661 77171
L76830 77395
" />
<path d="M76830 77002
L76605 77227
" />
<path d="M77083 77395
L77083 77002
" />
<path d="M77083 76805
L77055 76833
L77083 76861
L77111 76833
L77083 76805
L77083 76861
" />
<path d="M77617 77367
L77561 77395
L77448 77395
L77392 77367
L77364 77339
L77336 77283
L77336 77114
L77364 77058
L77392 77030
L77448 77002
L77561 77002
L77617 77030
" />
<path d="M78123 77395
L78123 77086
L78095 77030
L78039 77002
L77926 77002
L77870 77030
" />
<path d="M78123 77367
L78067 77395
L77926 77395
L77870 77367
L77842 77311
L77842 77255
L77870 77199
L77926 77171
L78067 77171
L78123 77142
" />
<path d="M78658 77395
L78658 76805
" />
<path d="M78658 77367
L78601 77395
L78489 77395
L78433 77367
L78404 77339
L78376 77283
L78376 77114
L78404 77058
L78433 77030
L78489 77002
L78601 77002
L78658 77030
" />
<path d="M79557 77620
L79529 77592
L79473 77508
L79445 77452
L79417 77367
L79389 77227
L79389 77114
L79417 76974
L79445 76889
L79473 76833
L79529 76749
L79557 76721
" />
<path d="M80064 76805
L79782 76805
L79754 77086
L79782 77058
L79839 77030
L79979 77030
L80036 77058
L80064 77086
L80092 77142
L80092 77283
L80064 77339
L80036 77367
L79979 77395
L79839 77395
L79782 77367
L79754 77339
" />
<path d="M80345 77339
L80373 77367
L80345 77395
L80317 77367
L80345 77339
L80345 77395
" />
<path d="M80935 77395
L80598 77395
" />
<path d="M80767 77395
L80767 76805
L80710 76889
L80654 76946
L80598 76974
" />
<path d="M81188 77339
L81217 77367
L81188 77395
L81160 77367
L81188 77339
L81188 77395
" />
<path d="M81723 77002
L81723 77395
" />
<path d="M81582 76777
L81442 77199
L81807 77199
" />
<path d="M81976 77620
L82004 77592
L82060 77508
L82088 77452
L82117 77367
L82145 77227
L82145 77114
L82117 76974
L82088 76889
L82060 76833
L82004 76749
L81976 76721
" />
<path d="M82426 77171
L82876 77171
" />
<path d="M83466 77395
L83129 77395
" />
<path d="M83298 77395
L83298 76805
L83241 76889
L83185 76946
L83129 76974
" />
</g>
<g style="fill:#000000; fill-opacity:0.0; 
stroke:#000000; stroke-width:39.3701; stroke-opacity:1; 
stroke-linecap:round; stroke-linejoin:round;">
</g>
<g style="fill:#000000; fill-opacity:0.0; 
stroke:#000000; stroke-width:59.0551; stroke-opacity:1; 
stroke-linecap:round; stroke-linejoin:round;">
<path d="M69685 75396
L112205 75396
" />
</g>
<g style="fill:#000000; fill-opacity:0.0; 
stroke:#000000; stroke-width:39.3701; stroke-opacity:1; 
stroke-linecap:round; stroke-linejoin:round;">
</g>
<g style="fill:#000000; fill-opacity:0.0; 
stroke:#000000; stroke-width:118.11; stroke-opacity:1; 
stroke-linecap:round; stroke-linejoin:round;">
<path d="M104099 76293
L103902 76012
" />
<path d="M103761 76293
L103761 75703
L103986 75703
L104042 75731
L104070 75759
L104099 75815
L104099 75899
L104070 75956
L104042 75984
L103986 76012
L103761 76012
" />
<path d="M104577 76265
L104520 76293
L104408 76293
L104352 76265
L104323 76209
L104323 75984
L104352 75928
L104408 75899
L104520 75899
L104577 75928
L104605 75984
L104605 76040
L104323 76096
" />
<path d="M104802 75899
L104942 76293
L105083 75899
" />
<path d="M105308 76237
L105336 76265
L105308 76293
L105280 76265
L105308 76237
L105308 76293
" />
<path d="M105308 75928
L105336 75956
L105308 75984
L105280 75956
L105308 75928
L105308 75984
" />
<path d="M105955 75703
L106151 76293
L106348 75703
" />
<path d="M106854 76293
L106517 76293
" />
<path d="M106686 76293
L106686 75703
L106629 75787
L106573 75843
L106517 75871
" />
<path d="M107108 76237
L107136 76265
L107108 76293
L107079 76265
L107108 76237
L107108 76293
" />
<path d="M107501 75703
L107557 75703
L107614 75731
L107642 75759
L107670 75815
L107698 75928
L107698 76068
L107670 76181
L107642 76237
L107614 76265
L107557 76293
L107501 76293
L107445 76265
L107417 76237
L107389 76181
L107361 76068
L107361 75928
L107389 75815
L107417 75759
L107445 75731
L107501 75703
" />
</g>
<g style="fill:#000000; fill-opacity:0.0; 
stroke:#000000; stroke-width:39.3701; stroke-opacity:1; 
stroke-linecap:round; stroke-linejoin:round;">
</g>
<g style="fill:#000000; fill-opacity:0.0; 
stroke:#000000; stroke-width:59.0551; stroke-opacity:1; 
stroke-linecap:round; stroke-linejoin:round;">
<path d="M70221 76265
L70305 76293
L70446 76293
L70502 76265
L70530 76237
L70559 76181
L70559 76124
L70530 76068
L70502 76040
L70446 76012
L70334 75984
L70277 75956
L70249 75928
L70221 75871
L70221 75815
L70249 75759
L70277 75731
L70334 75703
L70474 75703
L70559 75731
" />
<path d="M70812 76293
L70812 75899
" />
<path d="M70812 75703
L70784 75731
L70812 75759
L70840 75731
L70812 75703
L70812 75759
" />
<path d="M71037 75899
L71346 75899
L71037 76293
L71346 76293
" />
<path d="M71796 76265
L71740 76293
L71627 76293
L71571 76265
L71543 76209
L71543 75984
L71571 75928
L71627 75899
L71740 75899
L71796 75928
L71824 75984
L71824 76040
L71543 76096
" />
<path d="M72077 76237
L72105 76265
L72077 76293
L72049 76265
L72077 76237
L72077 76293
" />
<path d="M72077 75928
L72105 75956
L72077 75984
L72049 75956
L72077 75928
L72077 75984
" />
<path d="M72780 76124
L73061 76124
" />
<path d="M72724 76293
L72921 75703
L73118 76293
" />
<path d="M73568 75899
L73568 76293
" />
<path d="M73427 75674
L73286 76096
L73652 76096
" />
</g>
<g style="fill:#000000; fill-opacity:0.0; 
stroke:#000000; stroke-width:39.3701; stroke-opacity:1; 
stroke-linecap:round; stroke-linejoin:round;">
</g>
<g style="fill:#000000; fill-opacity:0.0; 
stroke:#000000; stroke-width:59.0551; stroke-opacity:1; 
stroke-linecap:round; stroke-linejoin:round;">
<path d="M103714 77395
L103714 76805
" />
<path d="M104248 77395
L104248 76805
" />
<path d="M104248 77367
L104192 77395
L104079 77395
L104023 77367
L103995 77339
L103967 77283
L103967 77114
L103995 77058
L104023 77030
L104079 77002
L104192 77002
L104248 77030
" />
<path d="M104529 77339
L104557 77367
L104529 77395
L104501 77367
L104529 77339
L104529 77395
" />
<path d="M104529 77030
L104557 77058
L104529 77086
L104501 77058
L104529 77030
L104529 77086
" />
<path d="M105570 77395
L105232 77395
" />
<path d="M105401 77395
L105401 76805
L105345 76889
L105289 76946
L105232 76974
" />
<path d="M106245 76777
L105739 77536
" />
<path d="M106751 77395
L106413 77395
" />
<path d="M106582 77395
L106582 76805
L106526 76889
L106470 76946
L106413 76974
" />
</g>
<g style="fill:#000000; fill-opacity:0.0; 
stroke:#000000; stroke-width:39.3701; stroke-opacity:1; 
stroke-linecap:round; stroke-linejoin:round;">
</g>
<g style="fill:#000000; fill-opacity:0.0; 
stroke:#000000; stroke-width:59.0551; stroke-opacity:1; 
stroke-linecap:round; stroke-linejoin:round;">
<path d="M69685 73821
L112205 73821
" />
</g>
<g style="fill:#000000; fill-opacity:0.0; 
stroke:#000000; stroke-width:39.3701; stroke-opacity:1; 
stroke-linecap:round; stroke-linejoin:round;">
</g>
<g style="fill:#000000; fill-opacity:0.0; 
stroke:#000000; stroke-width:157.48; stroke-opacity:1; 
stroke-linecap:round; stroke-linejoin:round;">
<path d="M70360 74099
L70810 74099
" />
<path d="M70486 74886
L70585 74099
" />
<path d="M70974 74886
L71039 74361
" />
<path d="M71072 74099
L71030 74136
L71063 74174
L71105 74136
L71072 74099
L71063 74174
" />
<path d="M71302 74361
L71602 74361
" />
<path d="M71447 74099
L71363 74774
L71391 74849
L71461 74886
L71536 74886
" />
<path d="M71911 74886
L71841 74849
L71813 74774
L71897 74099
" />
<path d="M72516 74849
L72436 74886
L72286 74886
L72216 74849
L72187 74774
L72225 74474
L72272 74399
L72352 74361
L72501 74361
L72572 74399
L72600 74474
L72591 74549
L72206 74624
" />
<path d="M72895 74811
L72928 74849
L72886 74886
L72853 74849
L72895 74811
L72886 74886
" />
<path d="M72947 74399
L72980 74436
L72937 74474
L72905 74436
L72947 74399
L72937 74474
" />
<path d="M73828 74849
L73936 74886
L74123 74886
L74203 74849
L74245 74811
L74292 74736
L74301 74661
L74273 74586
L74240 74549
L74170 74511
L74025 74474
L73954 74436
L73922 74399
L73894 74324
L73903 74249
L73950 74174
L73992 74136
L74072 74099
L74259 74099
L74367 74136
" />
<path d="M74611 74886
L74676 74361
" />
<path d="M74709 74099
L74667 74136
L74700 74174
L74742 74136
L74709 74099
L74700 74174
" />
<path d="M75051 74361
L74986 74886
" />
<path d="M75042 74436
L75084 74399
L75164 74361
L75276 74361
L75346 74399
L75375 74474
L75323 74886
" />
<path d="M76101 74361
L76021 74999
L75974 75074
L75932 75111
L75853 75149
L75740 75149
L75670 75111
" />
<path d="M76040 74849
L75960 74886
L75810 74886
L75740 74849
L75707 74811
L75679 74736
L75707 74511
L75754 74436
L75796 74399
L75876 74361
L76026 74361
L76096 74399
" />
<path d="M76523 74886
L76453 74849
L76424 74774
L76509 74099
" />
<path d="M77127 74849
L77048 74886
L76898 74886
L76828 74849
L76799 74774
L76837 74474
L76884 74399
L76963 74361
L77113 74361
L77184 74399
L77212 74474
L77202 74549
L76818 74624
" />
<path d="M77301 74961
L77901 74961
" />
<path d="M78084 74099
L78534 74099
" />
<path d="M78210 74886
L78309 74099
" />
<path d="M78698 74886
L78763 74361
" />
<path d="M78744 74511
L78791 74436
L78834 74399
L78913 74361
L78988 74361
" />
<path d="M79522 74886
L79574 74474
L79546 74399
L79476 74361
L79326 74361
L79246 74399
" />
<path d="M79527 74849
L79447 74886
L79260 74886
L79190 74849
L79162 74774
L79171 74699
L79218 74624
L79298 74586
L79485 74586
L79565 74549
" />
<path d="M79963 74361
L79897 74886
" />
<path d="M79954 74436
L79996 74399
L80076 74361
L80188 74361
L80258 74399
L80286 74474
L80235 74886
" />
<path d="M80577 74849
L80647 74886
L80797 74886
L80877 74849
L80924 74774
L80929 74736
L80900 74661
L80830 74624
L80718 74624
L80647 74586
L80619 74511
L80624 74474
L80671 74399
L80750 74361
L80863 74361
L80933 74399
" />
<path d="M81247 74886
L81313 74361
" />
<path d="M81346 74099
L81304 74136
L81336 74174
L81379 74136
L81346 74099
L81336 74174
" />
<path d="M81575 74361
L81875 74361
" />
<path d="M81721 74099
L81636 74774
L81664 74849
L81735 74886
L81810 74886
" />
<path d="M82185 74886
L82114 74849
L82082 74811
L82053 74736
L82082 74511
L82128 74436
L82171 74399
L82250 74361
L82363 74361
L82433 74399
L82466 74436
L82494 74511
L82466 74736
L82419 74811
L82377 74849
L82297 74886
L82185 74886
" />
<path d="M82785 74886
L82850 74361
" />
<path d="M82831 74511
L82878 74436
L82921 74399
L83000 74361
L83075 74361
" />
<path d="M83075 74961
L83675 74961
" />
<path d="M83863 74661
L84238 74661
" />
<path d="M83759 74886
L84120 74099
L84284 74886
" />
<path d="M84547 74886
L84612 74361
" />
<path d="M84603 74436
L84645 74399
L84725 74361
L84837 74361
L84908 74399
L84936 74474
L84884 74886
" />
<path d="M84936 74474
L84983 74399
L85062 74361
L85175 74361
L85245 74399
L85273 74474
L85222 74886
" />
<path d="M85662 74361
L85564 75149
" />
<path d="M85658 74399
L85737 74361
L85887 74361
L85958 74399
L85990 74436
L86019 74511
L85990 74736
L85944 74811
L85901 74849
L85822 74886
L85672 74886
L85601 74849
" />
</g>
<g style="fill:#000000; fill-opacity:0.0; 
stroke:#000000; stroke-width:39.3701; stroke-opacity:1; 
stroke-linecap:round; stroke-linejoin:round;">
</g>
<g style="fill:#000000; fill-opacity:0.0; 
stroke:#000000; stroke-width:59.0551; stroke-opacity:1; 
stroke-linecap:round; stroke-linejoin:round;">
<path d="M70446 73070
L70249 73070
" />
<path d="M70249 73380
L70249 72789
L70530 72789
" />
<path d="M70755 73380
L70755 72986
" />
<path d="M70755 72789
L70727 72817
L70755 72845
L70784 72817
L70755 72789
L70755 72845
" />
<path d="M71121 73380
L71065 73352
L71037 73295
L71037 72789
" />
<path d="M71571 73352
L71515 73380
L71402 73380
L71346 73352
L71318 73295
L71318 73070
L71346 73014
L71402 72986
L71515 72986
L71571 73014
L71599 73070
L71599 73127
L71318 73183
" />
<path d="M71852 73323
L71880 73352
L71852 73380
L71824 73352
L71852 73323
L71852 73380
" />
<path d="M71852 73014
L71880 73042
L71852 73070
L71824 73042
L71852 73014
L71852 73070
" />
<path d="M72555 73352
L72640 73380
L72780 73380
L72836 73352
L72865 73323
L72893 73267
L72893 73211
L72865 73155
L72836 73127
L72780 73099
L72668 73070
L72611 73042
L72583 73014
L72555 72958
L72555 72902
L72583 72845
L72611 72817
L72668 72789
L72808 72789
L72893 72817
" />
<path d="M73146 73380
L73146 72986
" />
<path d="M73146 72789
L73118 72817
L73146 72845
L73174 72817
L73146 72789
L73146 72845
" />
<path d="M73427 72986
L73427 73380
" />
<path d="M73427 73042
L73455 73014
L73511 72986
L73596 72986
L73652 73014
L73680 73070
L73680 73380
" />
<path d="M74214 72986
L74214 73464
L74186 73520
L74158 73548
L74102 73577
L74018 73577
L73961 73548
" />
<path d="M74214 73352
L74158 73380
L74046 73380
L73989 73352
L73961 73323
L73933 73267
L73933 73099
L73961 73042
L73989 73014
L74046 72986
L74158 72986
L74214 73014
" />
<path d="M74580 73380
L74524 73352
L74496 73295
L74496 72789
" />
<path d="M75030 73352
L74974 73380
L74861 73380
L74805 73352
L74777 73295
L74777 73070
L74805 73014
L74861 72986
L74974 72986
L75030 73014
L75058 73070
L75058 73127
L74777 73183
" />
<path d="M75171 73436
L75620 73436
" />
<path d="M75677 72789
L76014 72789
" />
<path d="M75845 73380
L75845 72789
" />
<path d="M76211 73380
L76211 72986
" />
<path d="M76211 73099
L76239 73042
L76267 73014
L76323 72986
L76380 72986
" />
<path d="M76830 73380
L76830 73070
L76802 73014
L76745 72986
L76633 72986
L76577 73014
" />
<path d="M76830 73352
L76773 73380
L76633 73380
L76577 73352
L76548 73295
L76548 73239
L76577 73183
L76633 73155
L76773 73155
L76830 73127
" />
<path d="M77111 72986
L77111 73380
" />
<path d="M77111 73042
L77139 73014
L77195 72986
L77280 72986
L77336 73014
L77364 73070
L77364 73380
" />
<path d="M77617 73352
L77673 73380
L77786 73380
L77842 73352
L77870 73295
L77870 73267
L77842 73211
L77786 73183
L77701 73183
L77645 73155
L77617 73099
L77617 73070
L77645 73014
L77701 72986
L77786 72986
L77842 73014
" />
<path d="M78123 73380
L78123 72986
" />
<path d="M78123 72789
L78095 72817
L78123 72845
L78151 72817
L78123 72789
L78123 72845
" />
<path d="M78320 72986
L78545 72986
" />
<path d="M78404 72789
L78404 73295
L78433 73352
L78489 73380
L78545 73380
" />
<path d="M78826 73380
L78770 73352
L78742 73323
L78714 73267
L78714 73099
L78742 73042
L78770 73014
L78826 72986
L78911 72986
L78967 73014
L78995 73042
L79023 73099
L79023 73267
L78995 73323
L78967 73352
L78911 73380
L78826 73380
" />
<path d="M79276 73380
L79276 72986
" />
<path d="M79276 73099
L79304 73042
L79332 73014
L79389 72986
L79445 72986
" />
<path d="M79501 73436
L79951 73436
" />
<path d="M80064 73211
L80345 73211
" />
<path d="M80007 73380
L80204 72789
L80401 73380
" />
<path d="M80598 73380
L80598 72986
" />
<path d="M80598 73042
L80626 73014
L80682 72986
L80767 72986
L80823 73014
L80851 73070
L80851 73380
" />
<path d="M80851 73070
L80879 73014
L80935 72986
L81020 72986
L81076 73014
L81104 73070
L81104 73380
" />
<path d="M81385 72986
L81385 73577
" />
<path d="M81385 73014
L81442 72986
L81554 72986
L81610 73014
L81638 73042
L81667 73099
L81667 73267
L81638 73323
L81610 73352
L81554 73380
L81442 73380
L81385 73352
" />
<path d="M81920 73323
L81948 73352
L81920 73380
L81892 73352
L81920 73323
L81920 73380
" />
<path d="M82201 73380
L82201 72789
" />
<path d="M82257 73155
L82426 73380
" />
<path d="M82426 72986
L82201 73211
" />
<path d="M82679 73380
L82679 72986
" />
<path d="M82679 72789
L82651 72817
L82679 72845
L82707 72817
L82679 72789
L82679 72845
" />
<path d="M83213 73352
L83157 73380
L83045 73380
L82988 73352
L82960 73323
L82932 73267
L82932 73099
L82960 73042
L82988 73014
L83045 72986
L83157 72986
L83213 73014
" />
<path d="M83719 73380
L83719 73070
L83691 73014
L83635 72986
L83523 72986
L83466 73014
" />
<path d="M83719 73352
L83663 73380
L83523 73380
L83466 73352
L83438 73295
L83438 73239
L83466 73183
L83523 73155
L83663 73155
L83719 73127
" />
<path d="M84254 73380
L84254 72789
" />
<path d="M84254 73352
L84197 73380
L84085 73380
L84029 73352
L84001 73323
L83973 73267
L83973 73099
L84001 73042
L84029 73014
L84085 72986
L84197 72986
L84254 73014
" />
<path d="M84394 73436
L84844 73436
" />
<path d="M84985 72986
L84985 73577
" />
<path d="M84985 73014
L85041 72986
L85154 72986
L85210 73014
L85238 73042
L85266 73099
L85266 73267
L85238 73323
L85210 73352
L85154 73380
L85041 73380
L84985 73352
" />
<path d="M85772 73352
L85716 73380
L85604 73380
L85547 73352
L85519 73323
L85491 73267
L85491 73099
L85519 73042
L85547 73014
L85604 72986
L85716 72986
L85772 73014
" />
<path d="M86025 73380
L86025 72789
" />
<path d="M86025 73014
L86082 72986
L86194 72986
L86250 73014
L86278 73042
L86307 73099
L86307 73267
L86278 73323
L86250 73352
L86194 73380
L86082 73380
L86025 73352
" />
</g>
<g style="fill:#000000; fill-opacity:0.0; 
stroke:#000000; stroke-width:39.3701; stroke-opacity:1; 
stroke-linecap:round; stroke-linejoin:round;">
</g>
<g style="fill:#000000; fill-opacity:0.0; 
stroke:#000000; stroke-width:59.0551; stroke-opacity:1; 
stroke-linecap:round; stroke-linejoin:round;">
<path d="M69685 71459
L112205 71459
" />
</g>
<g style="fill:#000000; fill-opacity:0.0; 
stroke:#000000; stroke-width:39.3701; stroke-opacity:1; 
stroke-linecap:round; stroke-linejoin:round;">
</g>
<g style="fill:#000000; fill-opacity:0.0; 
stroke:#000000; stroke-width:59.0551; stroke-opacity:1; 
stroke-linecap:round; stroke-linejoin:round;">
<path d="M70221 72289
L70305 72317
L70446 72317
L70502 72289
L70530 72260
L70559 72204
L70559 72148
L70530 72092
L70502 72064
L70446 72036
L70334 72007
L70277 71979
L70249 71951
L70221 71895
L70221 71839
L70249 71782
L70277 71754
L70334 71726
L70474 71726
L70559 71754
" />
<path d="M70812 72317
L70812 71726
" />
<path d="M71065 72317
L71065 72007
L71037 71951
L70980 71923
L70896 71923
L70840 71951
L70812 71979
" />
<path d="M71571 72289
L71515 72317
L71402 72317
L71346 72289
L71318 72232
L71318 72007
L71346 71951
L71402 71923
L71515 71923
L71571 71951
L71599 72007
L71599 72064
L71318 72120
" />
<path d="M72077 72289
L72021 72317
L71908 72317
L71852 72289
L71824 72232
L71824 72007
L71852 71951
L71908 71923
L72021 71923
L72077 71951
L72105 72007
L72105 72064
L71824 72120
" />
<path d="M72274 71923
L72499 71923
" />
<path d="M72358 71726
L72358 72232
L72386 72289
L72443 72317
L72499 72317
" />
<path d="M72696 72260
L72724 72289
L72696 72317
L72668 72289
L72696 72260
L72696 72317
" />
<path d="M72696 71951
L72724 71979
L72696 72007
L72668 71979
L72696 71951
L72696 72007
" />
</g>
<g style="fill:#000000; fill-opacity:0.0; 
stroke:#000000; stroke-width:39.3701; stroke-opacity:1; 
stroke-linecap:round; stroke-linejoin:round;">
</g>
<g style="fill:#000000; fill-opacity:0.0; 
stroke:#000000; stroke-width:118.11; stroke-opacity:1; 
stroke-linecap:round; stroke-linejoin:round;">
<path d="M70212 70545
L70409 71136
L70606 70545
" />
<path d="M71028 71108
L70971 71136
L70859 71136
L70803 71108
L70775 71051
L70775 70826
L70803 70770
L70859 70742
L70971 70742
L71028 70770
L71056 70826
L71056 70883
L70775 70939
" />
<path d="M71309 70742
L71309 71136
" />
<path d="M71309 70798
L71337 70770
L71393 70742
L71478 70742
L71534 70770
L71562 70826
L71562 71136
" />
<path d="M71759 70742
L71984 70742
" />
<path d="M71843 70545
L71843 71051
L71871 71108
L71928 71136
L71984 71136
" />
<path d="M72153 71108
L72209 71136
L72321 71136
L72377 71108
L72406 71051
L72406 71023
L72377 70967
L72321 70939
L72237 70939
L72181 70911
L72153 70854
L72153 70826
L72181 70770
L72237 70742
L72321 70742
L72377 70770
" />
<path d="M72659 70742
L72659 71332
" />
<path d="M72659 70770
L72715 70742
L72827 70742
L72884 70770
L72912 70798
L72940 70854
L72940 71023
L72912 71079
L72884 71108
L72827 71136
L72715 71136
L72659 71108
" />
<path d="M73193 71136
L73193 70742
" />
<path d="M73193 70545
L73165 70573
L73193 70601
L73221 70573
L73193 70545
L73193 70601
" />
<path d="M73559 71136
L73502 71108
L73474 71051
L73474 70545
" />
<path d="M73755 71108
L73812 71136
L73924 71136
L73980 71108
L74009 71051
L74009 71023
L73980 70967
L73924 70939
L73840 70939
L73784 70911
L73755 70854
L73755 70826
L73784 70770
L73840 70742
L73924 70742
L73980 70770
" />
<path d="M74683 70967
L74965 70967
" />
<path d="M74627 71136
L74824 70545
L75021 71136
" />
<path d="M75471 70742
L75471 71136
" />
<path d="M75218 70742
L75218 71051
L75246 71108
L75302 71136
L75386 71136
L75443 71108
L75471 71079
" />
<path d="M76005 70742
L76005 71220
L75977 71276
L75949 71304
L75893 71332
L75808 71332
L75752 71304
" />
<path d="M76005 71108
L75949 71136
L75836 71136
L75780 71108
L75752 71079
L75724 71023
L75724 70854
L75752 70798
L75780 70770
L75836 70742
L75949 70742
L76005 70770
" />
<path d="M76258 71108
L76314 71136
L76427 71136
L76483 71108
L76511 71051
L76511 71023
L76483 70967
L76427 70939
L76343 70939
L76286 70911
L76258 70854
L76258 70826
L76286 70770
L76343 70742
L76427 70742
L76483 70770
" />
<path d="M76680 70742
L76905 70742
" />
<path d="M76764 70545
L76764 71051
L76793 71108
L76849 71136
L76905 71136
" />
<path d="M77074 71108
L77130 71136
L77242 71136
L77299 71108
L77327 71051
L77327 71023
L77299 70967
L77242 70939
L77158 70939
L77102 70911
L77074 70854
L77074 70826
L77102 70770
L77158 70742
L77242 70742
L77299 70770
" />
<path d="M77580 71136
L77580 70545
" />
<path d="M77636 70911
L77805 71136
" />
<path d="M77805 70742
L77580 70967
" />
<path d="M78142 71136
L78086 71108
L78058 71079
L78030 71023
L78030 70854
L78058 70798
L78086 70770
L78142 70742
L78227 70742
L78283 70770
L78311 70798
L78339 70854
L78339 71023
L78311 71079
L78283 71108
L78227 71136
L78142 71136
" />
<path d="M78677 71136
L78620 71108
L78592 71051
L78592 70545
" />
<path d="M79155 71136
L79155 70826
L79127 70770
L79070 70742
L78958 70742
L78902 70770
" />
<path d="M79155 71108
L79099 71136
L78958 71136
L78902 71108
L78874 71051
L78874 70995
L78902 70939
L78958 70911
L79099 70911
L79155 70883
" />
</g>
<g style="fill:#000000; fill-opacity:0.0; 
stroke:#000000; stroke-width:39.3701; stroke-opacity:1; 
stroke-linecap:round; stroke-linejoin:round;">
</g>
<g style="fill:#000000; fill-opacity:0.0; 
stroke:#000000; stroke-width:59.0551; stroke-opacity:1; 
stroke-linecap:round; stroke-linejoin:round;">
<path d="M70249 69955
L70249 69364
L70474 69364
L70530 69392
L70559 69420
L70587 69476
L70587 69561
L70559 69617
L70530 69645
L70474 69673
L70249 69673
" />
<path d="M71177 69898
L71149 69926
L71065 69955
L71009 69955
L70924 69926
L70868 69870
L70840 69814
L70812 69701
L70812 69617
L70840 69505
L70868 69448
L70924 69392
L71009 69364
L71065 69364
L71149 69392
L71177 69420
" />
<path d="M71627 69645
L71712 69673
L71740 69701
L71768 69758
L71768 69842
L71740 69898
L71712 69926
L71655 69955
L71430 69955
L71430 69364
L71627 69364
L71683 69392
L71712 69420
L71740 69476
L71740 69533
L71712 69589
L71683 69617
L71627 69645
L71430 69645
" />
<path d="M71880 70011
L72330 70011
" />
<path d="M72808 69898
L72780 69926
L72696 69955
L72640 69955
L72555 69926
L72499 69870
L72471 69814
L72443 69701
L72443 69617
L72471 69505
L72499 69448
L72555 69392
L72640 69364
L72696 69364
L72780 69392
L72808 69420
" />
<path d="M73314 69955
L73314 69645
L73286 69589
L73230 69561
L73118 69561
L73061 69589
" />
<path d="M73314 69926
L73258 69955
L73118 69955
L73061 69926
L73033 69870
L73033 69814
L73061 69758
L73118 69730
L73258 69730
L73314 69701
" />
<path d="M73849 69955
L73849 69364
" />
<path d="M73849 69926
L73793 69955
L73680 69955
L73624 69926
L73596 69898
L73568 69842
L73568 69673
L73596 69617
L73624 69589
L73680 69561
L73793 69561
L73849 69589
" />
<path d="M73989 70011
L74439 70011
" />
<path d="M74580 69955
L74580 69364
" />
<path d="M74580 69645
L74917 69645
" />
<path d="M74917 69955
L74917 69364
" />
<path d="M75283 69955
L75227 69926
L75199 69898
L75171 69842
L75171 69673
L75199 69617
L75227 69589
L75283 69561
L75367 69561
L75424 69589
L75452 69617
L75480 69673
L75480 69842
L75452 69898
L75424 69926
L75367 69955
L75283 69955
" />
<path d="M75733 69955
L75733 69561
" />
<path d="M75733 69617
L75761 69589
L75817 69561
L75902 69561
L75958 69589
L75986 69645
L75986 69955
" />
<path d="M75986 69645
L76014 69589
L76070 69561
L76155 69561
L76211 69589
L76239 69645
L76239 69955
" />
<path d="M76745 69926
L76689 69955
L76577 69955
L76520 69926
L76492 69870
L76492 69645
L76520 69589
L76577 69561
L76689 69561
L76745 69589
L76773 69645
L76773 69701
L76492 69758
" />
<path d="M76970 69561
L77083 69955
L77195 69673
L77308 69955
L77420 69561
" />
<path d="M77730 69955
L77673 69926
L77645 69898
L77617 69842
L77617 69673
L77645 69617
L77673 69589
L77730 69561
L77814 69561
L77870 69589
L77898 69617
L77926 69673
L77926 69842
L77898 69898
L77870 69926
L77814 69955
L77730 69955
" />
<path d="M78180 69955
L78180 69561
" />
<path d="M78180 69673
L78208 69617
L78236 69589
L78292 69561
L78348 69561
" />
<path d="M78545 69955
L78545 69364
" />
<path d="M78601 69730
L78770 69955
" />
<path d="M78770 69561
L78545 69786
" />
</g>
<g style="fill:#000000; fill-opacity:0.0; 
stroke:#000000; stroke-width:39.3701; stroke-opacity:1; 
stroke-linecap:round; stroke-linejoin:round;">
</g>
<g style="fill:#000000; fill-opacity:0.0; 
stroke:#000000; stroke-width:59.0551; stroke-opacity:1; 
stroke-linecap:round; stroke-linejoin:round;">
<path d="M70249 68464
L70446 68464
" />
<path d="M70530 68773
L70249 68773
L70249 68183
L70530 68183
" />
<path d="M70784 68773
L70784 68380
" />
<path d="M70784 68436
L70812 68408
L70868 68380
L70952 68380
L71009 68408
L71037 68464
L71037 68773
" />
<path d="M71037 68464
L71065 68408
L71121 68380
L71205 68380
L71262 68408
L71290 68464
L71290 68773
" />
<path d="M71571 68773
L71571 68380
" />
<path d="M71430 68211
L71712 68211
" />
<path d="M71937 68773
L71880 68745
L71852 68689
L71852 68183
" />
<path d="M72133 68745
L72190 68773
L72302 68773
L72358 68745
L72386 68689
L72386 68661
L72358 68605
L72302 68577
L72218 68577
L72162 68548
L72133 68492
L72133 68464
L72162 68408
L72218 68380
L72302 68380
L72358 68408
" />
<path d="M73005 68183
L73202 68773
L73399 68183
" />
<path d="M73821 68745
L73764 68773
L73652 68773
L73596 68745
L73568 68689
L73568 68464
L73596 68408
L73652 68380
L73764 68380
L73821 68408
L73849 68464
L73849 68520
L73568 68577
" />
<path d="M73568 68211
L73849 68211
" />
<path d="M74046 68380
L74186 68773
L74327 68380
" />
<path d="M74777 68745
L74721 68773
L74608 68773
L74552 68745
L74524 68689
L74524 68464
L74552 68408
L74608 68380
L74721 68380
L74777 68408
L74805 68464
L74805 68520
L74524 68577
" />
<path d="M75058 68773
L75058 68380
" />
<path d="M75058 68492
L75086 68436
L75114 68408
L75171 68380
L75227 68380
" />
<path d="M75424 68773
L75424 68380
" />
<path d="M75424 68183
L75395 68211
L75424 68239
L75452 68211
L75424 68183
L75424 68239
" />
<path d="M75677 68745
L75733 68773
L75845 68773
L75902 68745
L75930 68689
L75930 68661
L75902 68605
L75845 68577
L75761 68577
L75705 68548
L75677 68492
L75677 68464
L75705 68408
L75761 68380
L75845 68380
L75902 68408
" />
</g>
<g style="fill:#000000; fill-opacity:0.0; 
stroke:#000000; stroke-width:39.3701; stroke-opacity:1; 
stroke-linecap:round; stroke-linejoin:round;">
</g>
<g style="fill:#000000; fill-opacity:0.0; 
stroke:#000000; stroke-width:59.0551; stroke-opacity:1; 
stroke-linecap:round; stroke-linejoin:round;">
<path d="M77559 75396
L77559 76577
" />
</g>
<g style="fill:#000000; fill-opacity:0.0; 
stroke:#000000; stroke-width:39.3701; stroke-opacity:1; 
stroke-linecap:round; stroke-linejoin:round;">
</g>
<g style="fill:#000000; fill-opacity:0.0; 
stroke:#000000; stroke-width:59.0551; stroke-opacity:1; 
stroke-linecap:round; stroke-linejoin:round;">
<path d="M102756 75396
L102756 77955
" />
</g>
<g style="fill:#008484; fill-opacity:0.0; 
stroke:#008484; stroke-width:59.0551; stroke-opacity:1; 
stroke-linecap:round; stroke-linejoin:round;">
</g>
<g style="fill:#008484; fill-opacity:0.0; 
stroke:#008484; stroke-width:47.2441; stroke-opacity:1; 
stroke-linecap:round; stroke-linejoin:round;">
<path d="M41139 44014
L41139 44262
" />
<path d="M41015 44138
L41263 44138
" />
<path d="M43669 44703
L43669 45020
" />
<path d="M43653 44612
L43653 45111
" />
<path d="M43638 44546
L43638 45177
" />
<path d="M43622 44492
L43622 45232
" />
<path d="M43606 44445
L43606 45279
" />
<path d="M43590 44403
L43590 45320
" />
<path d="M43575 44365
L43575 45359
" />
<path d="M43559 44330
L43559 45393
" />
<path d="M43543 44298
L43543 45425
" />
<path d="M43527 44268
L43527 45456
" />
<path d="M43512 44239
L43512 45484
" />
<path d="M43496 44212
L43496 45511
" />
<path d="M43480 44187
L43480 45537
" />
<path d="M43464 44162
L43464 45561
" />
<path d="M43449 44140
L43449 45584
" />
<path d="M43433 44118
L43433 45606
" />
<path d="M43417 44096
L43417 45627
" />
<path d="M43401 44076
L43401 45647
" />
<path d="M43386 44057
L43386 45666
" />
<path d="M43370 44038
L43370 45685
" />
<path d="M43354 44020
L43354 45703
" />
<path d="M43338 44003
L43338 45721
" />
<path d="M43323 43986
L43323 45737
" />
<path d="M43307 43970
L43307 45753
" />
<path d="M43291 45271
L43291 45769
" />
<path d="M43291 43954
L43291 44452
" />
<path d="M43275 45271
L43275 45784
" />
<path d="M43275 43939
L43275 44452
" />
<path d="M43260 45271
L43260 45799
" />
<path d="M43260 43925
L43260 44452
" />
<path d="M43244 45271
L43244 45813
" />
<path d="M43244 43911
L43244 44452
" />
<path d="M43228 45271
L43228 45826
" />
<path d="M43228 43897
L43228 44452
" />
<path d="M43212 45271
L43212 45840
" />
<path d="M43212 43884
L43212 44452
" />
<path d="M43197 45271
L43197 45852
" />
<path d="M43197 43871
L43197 44452
" />
<path d="M43181 45271
L43181 45865
" />
<path d="M43181 43859
L43181 44452
" />
<path d="M43165 45271
L43165 45877
" />
<path d="M43165 43847
L43165 44452
" />
<path d="M43150 45271
L43150 45888
" />
<path d="M43150 43835
L43150 44452
" />
<path d="M43134 45271
L43134 45900
" />
<path d="M43134 43824
L43134 44452
" />
<path d="M43118 45271
L43118 45911
" />
<path d="M43118 43813
L43118 44452
" />
<path d="M43102 45271
L43102 45921
" />
<path d="M43102 43803
L43102 44452
" />
<path d="M43087 45271
L43087 45931
" />
<path d="M43087 43792
L43087 44452
" />
<path d="M43071 45271
L43071 45941
" />
<path d="M43071 43782
L43071 44452
" />
<path d="M43055 45271
L43055 45951
" />
<path d="M43055 43773
L43055 44452
" />
<path d="M43039 45271
L43039 45960
" />
<path d="M43039 43763
L43039 44452
" />
<path d="M43024 45271
L43024 45969
" />
<path d="M43024 43755
L43024 44452
" />
<path d="M43008 45271
L43008 45977
" />
<path d="M43008 43746
L43008 44452
" />
<path d="M42992 45271
L42992 45986
" />
<path d="M42992 43737
L42992 44452
" />
<path d="M42976 45271
L42976 45994
" />
<path d="M42976 43729
L42976 44452
" />
<path d="M42961 45271
L42961 46002
" />
<path d="M42961 43722
L42961 44452
" />
<path d="M42945 45271
L42945 46010
" />
<path d="M42945 43714
L42945 44452
" />
<path d="M42929 45271
L42929 46017
" />
<path d="M42929 43707
L42929 44452
" />
<path d="M42913 45271
L42913 46024
" />
<path d="M42913 43700
L42913 44452
" />
<path d="M42898 45271
L42898 46031
" />
<path d="M42898 43692
L42898 44452
" />
<path d="M42882 45271
L42882 46037
" />
<path d="M42882 43686
L42882 44452
" />
<path d="M42866 45271
L42866 46044
" />
<path d="M42866 43680
L42866 44452
" />
<path d="M42850 45271
L42850 46050
" />
<path d="M42850 43674
L42850 44452
" />
<path d="M42835 45271
L42835 46056
" />
<path d="M42835 43668
L42835 44452
" />
<path d="M42819 45271
L42819 46061
" />
<path d="M42819 43662
L42819 44452
" />
<path d="M42803 45271
L42803 46067
" />
<path d="M42803 43657
L42803 44452
" />
<path d="M42787 45271
L42787 46072
" />
<path d="M42787 43651
L42787 44452
" />
<path d="M42772 45271
L42772 46077
" />
<path d="M42772 43647
L42772 44452
" />
<path d="M42756 45271
L42756 46081
" />
<path d="M42756 43642
L42756 44452
" />
<path d="M42740 45271
L42740 46086
" />
<path d="M42740 43637
L42740 44452
" />
<path d="M42724 45271
L42724 46090
" />
<path d="M42724 43633
L42724 44452
" />
<path d="M42709 45271
L42709 46094
" />
<path d="M42709 43629
L42709 44452
" />
<path d="M42693 45271
L42693 46098
" />
<path d="M42693 43625
L42693 44452
" />
<path d="M42677 45271
L42677 46102
" />
<path d="M42677 43622
L42677 44452
" />
<path d="M42661 45271
L42661 46105
" />
<path d="M42661 43618
L42661 44452
" />
<path d="M42645 45271
L42645 46109
" />
<path d="M42645 43615
L42645 44452
" />
<path d="M42629 45271
L42629 46112
" />
<path d="M42629 43612
L42629 44452
" />
<path d="M42614 45271
L42614 46114
" />
<path d="M42614 43609
L42614 44452
" />
<path d="M42598 45271
L42598 46117
" />
<path d="M42598 43606
L42598 44452
" />
<path d="M42582 45271
L42582 46120
" />
<path d="M42582 43604
L42582 44452
" />
<path d="M42566 45271
L42566 46122
" />
<path d="M42566 43601
L42566 44452
" />
<path d="M42551 45271
L42551 46124
" />
<path d="M42551 43600
L42551 44452
" />
<path d="M42535 45271
L42535 46126
" />
<path d="M42535 43598
L42535 44452
" />
<path d="M42519 45271
L42519 46127
" />
<path d="M42519 43596
L42519 44452
" />
<path d="M42503 45271
L42503 46129
" />
<path d="M42503 43595
L42503 44452
" />
<path d="M42488 45271
L42488 46130
" />
<path d="M42488 43593
L42488 44452
" />
<path d="M42472 43592
L42472 46131
" />
<path d="M42456 43591
L42456 46132
" />
<path d="M42440 43591
L42440 46133
" />
<path d="M42425 43590
L42425 46133
" />
<path d="M42409 43590
L42409 46133
" />
<path d="M42393 43590
L42393 46133
" />
<circle cx="42393.7" cy="44862.2" r="1287.4" /> 
<path d="M46649 43105
L46649 43233
" />
<path d="M46248 43105
L46248 43233
" />
<path d="M48027 42584
L47711 42584
" />
<path d="M47469 42584
L47153 42584
" />
<path d="M48027 43059
L48027 42584
" />
<path d="M47153 43059
L47153 42584
" />
<path d="M48027 43059
L47812 43059
" />
<path d="M47368 43059
L47153 43059
" />
<path d="M48027 43358
L48027 43657
" />
<path d="M48027 43657
L47590 43657
" />
<path d="M45629 43105
L45629 43233
" />
<path d="M46031 43105
L46031 43233
" />
<path d="M42618 41921
L42144 41921
" />
<path d="M42618 42637
L42144 42637
" />
<path d="M42209 42858
L42081 42858
" />
<path d="M42209 43259
L42081 43259
" />
<path d="M40200 42724
L40637 42724
" />
<path d="M40200 43023
L40200 42724
" />
<path d="M40859 43322
L41074 43322
" />
<path d="M40200 43322
L40415 43322
" />
<path d="M41074 43322
L41074 43797
" />
<path d="M40200 43322
L40200 43797
" />
<path d="M40758 43797
L41074 43797
" />
<path d="M40200 43797
L40516 43797
" />
<path d="M43693.5 41914 A1023.62 1023.62 0.0 0 0 44417.3 43661.4 " />
<path d="M44417.3 43661.4 A1023.62 1023.62 0.0 0 0 45141.1 41914 " />
<path d="M45125 41909
L43708 41909
" />
<path d="M44881 40704
L44881 41141
" />
<path d="M44582 40704
L44881 40704
" />
<path d="M44283 41363
L44283 41578
" />
<path d="M44283 40704
L44283 40919
" />
<path d="M44283 41578
L43809 41578
" />
<path d="M44283 40704
L43809 40704
" />
<path d="M43809 41262
L43809 41578
" />
<path d="M43809 40704
L43809 41020
" />
</g>
<g style="fill:#008484; fill-opacity:0.0; 
stroke:#008484; stroke-width:59.0551; stroke-opacity:1; 
stroke-linecap:round; stroke-linejoin:round;">
<path d="M43879 46081
L43860 46100
L43804 46119
L43766 46119
L43710 46100
L43673 46062
L43654 46025
L43635 45950
L43635 45894
L43654 45819
L43673 45781
L43710 45744
L43766 45725
L43804 45725
L43860 45744
L43879 45762
" />
<path d="M44254 46119
L44029 46119
" />
<path d="M44141 46119
L44141 45725
L44104 45781
L44066 45819
L44029 45837
" />
<path d="M46517 44276
L46385 44089
" />
<path d="M46292 44276
L46292 43882
L46442 43882
L46479 43901
L46498 43920
L46517 43957
L46517 44014
L46498 44051
L46479 44070
L46442 44089
L46292 44089
" />
<path d="M46892 44276
L46667 44276
" />
<path d="M46779 44276
L46779 43882
L46742 43939
L46704 43976
L46667 43995
" />
<path d="M47699 41878
L47699 42160
L47680 42216
L47643 42253
L47586 42272
L47549 42272
" />
<path d="M47868 41916
L47886 41897
L47924 41878
L48018 41878
L48055 41897
L48074 41916
L48093 41953
L48093 41991
L48074 42047
L47849 42272
L48093 42272
" />
<path d="M45627 44227
L45608 44245
L45552 44264
L45514 44264
L45458 44245
L45421 44208
L45402 44170
L45383 44095
L45383 44039
L45402 43964
L45421 43927
L45458 43889
L45514 43871
L45552 43871
L45608 43889
L45627 43908
" />
<path d="M45777 43908
L45796 43889
L45833 43871
L45927 43871
L45964 43889
L45983 43908
L46002 43946
L46002 43983
L45983 44039
L45758 44264
L46002 44264
" />
<path d="M41225 41648
L41206 41667
L41150 41685
L41113 41685
L41056 41667
L41019 41629
L41000 41592
L40982 41517
L40982 41461
L41000 41386
L41019 41348
L41056 41311
L41113 41292
L41150 41292
L41206 41311
L41225 41329
" />
<path d="M41356 41292
L41600 41292
L41469 41442
L41525 41442
L41563 41461
L41581 41479
L41600 41517
L41600 41610
L41581 41648
L41563 41667
L41525 41685
L41413 41685
L41375 41667
L41356 41648
" />
<path d="M43064 43256
L42933 43069
" />
<path d="M42839 43256
L42839 42863
L42989 42863
L43026 42881
L43045 42900
L43064 42938
L43064 42994
L43045 43031
L43026 43050
L42989 43069
L42839 43069
" />
<path d="M43214 42900
L43233 42881
L43270 42863
L43364 42863
L43401 42881
L43420 42900
L43439 42938
L43439 42975
L43420 43031
L43195 43256
L43439 43256
" />
<path d="M39498 42280
L39498 42561
L39479 42617
L39442 42655
L39386 42674
L39348 42674
" />
<path d="M39892 42674
L39667 42674
" />
<path d="M39779 42674
L39779 42280
L39742 42336
L39704 42374
L39667 42392
" />
<path d="M45812 41892
L45775 41874
L45737 41836
L45681 41780
L45644 41761
L45606 41761
" />
<path d="M45625 41855
L45587 41836
L45550 41799
L45531 41724
L45531 41592
L45550 41517
L45587 41480
L45625 41461
L45700 41461
L45737 41480
L45775 41517
L45794 41592
L45794 41724
L45775 41799
L45737 41836
L45700 41855
L45625 41855
" />
<path d="M46169 41855
L45944 41855
" />
<path d="M46056 41855
L46056 41461
L46019 41517
L45981 41555
L45944 41574
" />
<path d="M45296 40621
L45353 40640
L45371 40658
L45390 40696
L45390 40752
L45371 40790
L45353 40808
L45315 40827
L45165 40827
L45165 40434
L45296 40434
L45334 40452
L45353 40471
L45371 40508
L45371 40546
L45353 40583
L45334 40602
L45296 40621
L45165 40621
" />
<path d="M45503 40434
L45728 40434
" />
<path d="M45615 40827
L45615 40434
" />
<path d="M46065 40827
L45840 40827
" />
<path d="M45953 40827
L45953 40434
L45915 40490
L45878 40527
L45840 40546
" />
<g >
</g>
</g>
<g style="fill:#000000; fill-opacity:0.0; 
stroke:#000000; stroke-width:59.0551; stroke-opacity:1; 
stroke-linecap:round; stroke-linejoin:round;">
</g>
<g style="fill:#C2C200; fill-opacity:0.0; 
stroke:#C2C200; stroke-width:59.0551; stroke-opacity:1; 
stroke-linecap:round; stroke-linejoin:round;">
</g>
<g style="fill:#C2C200; fill-opacity:0.0; 
stroke:#C2C200; stroke-width:19.685; stroke-opacity:1; 
stroke-linecap:round; stroke-linejoin:round;">
<path d="M39956.7 40137.8 A4757.48 4757.48 0.0 0 0 40427.5 46391.5 " />
<path d="M47090.6 46393.7 A4757.89 4757.89 0.0 0 0 47563.2 40137.3 " />
<path d="M40427 46391
L47090 46393
" />
<path d="M47563 40137
L39956 40137
" />
<g >
</g>
<g >
</g>
<g >
</g>
<g >
</g>
<g >
</g>
<g >
</g>
<g >
</g>
<g >
</g>
<g >
</g>
<g >
</g>
</g> 
</svg>
