<?xml version="1.0" standalone="no"?>
 <!DOCTYPE svg PUBLIC "-//W3C//DTD SVG 1.1//EN" 
 "http://www.w3.org/Graphics/SVG/1.1/DTD/svg11.dtd"> 
<svg xmlns="http://www.w3.org/2000/svg" version="1.1" 
    width="29.7002cm" height="21.0007cm" viewBox="0 0 116930 82680 ">
<title>SVG Picture created as Single_Transitor_Amp-F_Fab.svg date 2020/05/12 21:13:24 </title>
  <desc>Picture generated by PCBNEW </desc>
<g style="fill:#000000; fill-opacity:1;stroke:#000000; stroke-opacity:1;
stroke-linecap:round; stroke-linejoin:round; "
 transform="translate(0 0) scale(1 1)">
</g>
<g style="fill:#000000; fill-opacity:0.0; 
stroke:#000000; stroke-width:-0.000393701; stroke-opacity:1; 
stroke-linecap:round; stroke-linejoin:round;">
</g>
<g style="fill:#000000; fill-opacity:0.0; 
stroke:#000000; stroke-width:39.3701; stroke-opacity:1; 
stroke-linecap:round; stroke-linejoin:round;">
</g>
<g style="fill:#000000; fill-opacity:0.0; 
stroke:#000000; stroke-width:59.0551; stroke-opacity:1; 
stroke-linecap:round; stroke-linejoin:round;">
<rect x="69685.9" y="65357.2" width="42519.7" height="12598.4" rx="0" />
</g>
<g style="fill:#000000; fill-opacity:0.0; 
stroke:#000000; stroke-width:39.3701; stroke-opacity:1; 
stroke-linecap:round; stroke-linejoin:round;">
</g>
<g style="fill:#000000; fill-opacity:0.0; 
stroke:#000000; stroke-width:59.0551; stroke-opacity:1; 
stroke-linecap:round; stroke-linejoin:round;">
<rect x="3937.01" y="3937.01" width="109056" height="74806" rx="0" />
</g>
<g style="fill:#000000; fill-opacity:0.0; 
stroke:#000000; stroke-width:39.3701; stroke-opacity:1; 
stroke-linecap:round; stroke-linejoin:round;">
</g>
<g style="fill:#000000; fill-opacity:0.0; 
stroke:#000000; stroke-width:59.0551; stroke-opacity:1; 
stroke-linecap:round; stroke-linejoin:round;">
<rect x="4724.41" y="4724.41" width="107481" height="73231.2" rx="0" />
</g>
<g style="fill:#000000; fill-opacity:0.0; 
stroke:#000000; stroke-width:39.3701; stroke-opacity:1; 
stroke-linecap:round; stroke-linejoin:round;">
</g>
<g style="fill:#000000; fill-opacity:0.0; 
stroke:#000000; stroke-width:59.0551; stroke-opacity:1; 
stroke-linecap:round; stroke-linejoin:round;">
<path d="M23622 4724
L23622 3937
" />
</g>
<g style="fill:#000000; fill-opacity:0.0; 
stroke:#000000; stroke-width:39.3701; stroke-opacity:1; 
stroke-linecap:round; stroke-linejoin:round;">
</g>
<g style="fill:#000000; fill-opacity:0.0; 
stroke:#000000; stroke-width:59.0551; stroke-opacity:1; 
stroke-linecap:round; stroke-linejoin:round;">
<path d="M43307 4724
L43307 3937
" />
</g>
<g style="fill:#000000; fill-opacity:0.0; 
stroke:#000000; stroke-width:39.3701; stroke-opacity:1; 
stroke-linecap:round; stroke-linejoin:round;">
</g>
<g style="fill:#000000; fill-opacity:0.0; 
stroke:#000000; stroke-width:59.0551; stroke-opacity:1; 
stroke-linecap:round; stroke-linejoin:round;">
<path d="M62992 4724
L62992 3937
" />
</g>
<g style="fill:#000000; fill-opacity:0.0; 
stroke:#000000; stroke-width:39.3701; stroke-opacity:1; 
stroke-linecap:round; stroke-linejoin:round;">
</g>
<g style="fill:#000000; fill-opacity:0.0; 
stroke:#000000; stroke-width:59.0551; stroke-opacity:1; 
stroke-linecap:round; stroke-linejoin:round;">
<path d="M82677 4724
L82677 3937
" />
</g>
<g style="fill:#000000; fill-opacity:0.0; 
stroke:#000000; stroke-width:39.3701; stroke-opacity:1; 
stroke-linecap:round; stroke-linejoin:round;">
</g>
<g style="fill:#000000; fill-opacity:0.0; 
stroke:#000000; stroke-width:59.0551; stroke-opacity:1; 
stroke-linecap:round; stroke-linejoin:round;">
<path d="M102362 4724
L102362 3937
" />
</g>
<g style="fill:#000000; fill-opacity:0.0; 
stroke:#000000; stroke-width:39.3701; stroke-opacity:1; 
stroke-linecap:round; stroke-linejoin:round;">
</g>
<g style="fill:#000000; fill-opacity:0.0; 
stroke:#000000; stroke-width:59.0551; stroke-opacity:1; 
stroke-linecap:round; stroke-linejoin:round;">
<path d="M14199 4562
L13906 4562
" />
<path d="M14052 4562
L14052 4050
L14004 4123
L13955 4172
L13906 4196
" />
</g>
<g style="fill:#000000; fill-opacity:0.0; 
stroke:#000000; stroke-width:39.3701; stroke-opacity:1; 
stroke-linecap:round; stroke-linejoin:round;">
</g>
<g style="fill:#000000; fill-opacity:0.0; 
stroke:#000000; stroke-width:59.0551; stroke-opacity:1; 
stroke-linecap:round; stroke-linejoin:round;">
<path d="M33591 4099
L33615 4074
L33664 4050
L33786 4050
L33835 4074
L33859 4099
L33884 4147
L33884 4196
L33859 4269
L33567 4562
L33884 4562
" />
</g>
<g style="fill:#000000; fill-opacity:0.0; 
stroke:#000000; stroke-width:39.3701; stroke-opacity:1; 
stroke-linecap:round; stroke-linejoin:round;">
</g>
<g style="fill:#000000; fill-opacity:0.0; 
stroke:#000000; stroke-width:59.0551; stroke-opacity:1; 
stroke-linecap:round; stroke-linejoin:round;">
<path d="M53252 4050
L53569 4050
L53398 4245
L53471 4245
L53520 4269
L53544 4294
L53569 4342
L53569 4464
L53544 4513
L53520 4537
L53471 4562
L53325 4562
L53276 4537
L53252 4513
" />
</g>
<g style="fill:#000000; fill-opacity:0.0; 
stroke:#000000; stroke-width:39.3701; stroke-opacity:1; 
stroke-linecap:round; stroke-linejoin:round;">
</g>
<g style="fill:#000000; fill-opacity:0.0; 
stroke:#000000; stroke-width:59.0551; stroke-opacity:1; 
stroke-linecap:round; stroke-linejoin:round;">
<path d="M73205 4221
L73205 4562
" />
<path d="M73083 4026
L72961 4391
L73278 4391
" />
</g>
<g style="fill:#000000; fill-opacity:0.0; 
stroke:#000000; stroke-width:39.3701; stroke-opacity:1; 
stroke-linecap:round; stroke-linejoin:round;">
</g>
<g style="fill:#000000; fill-opacity:0.0; 
stroke:#000000; stroke-width:59.0551; stroke-opacity:1; 
stroke-linecap:round; stroke-linejoin:round;">
<path d="M92914 4050
L92671 4050
L92646 4294
L92671 4269
L92719 4245
L92841 4245
L92890 4269
L92914 4294
L92939 4342
L92939 4464
L92914 4513
L92890 4537
L92841 4562
L92719 4562
L92671 4537
L92646 4513
" />
</g>
<g style="fill:#000000; fill-opacity:0.0; 
stroke:#000000; stroke-width:39.3701; stroke-opacity:1; 
stroke-linecap:round; stroke-linejoin:round;">
</g>
<g style="fill:#000000; fill-opacity:0.0; 
stroke:#000000; stroke-width:59.0551; stroke-opacity:1; 
stroke-linecap:round; stroke-linejoin:round;">
<path d="M112575 4050
L112477 4050
L112429 4074
L112404 4099
L112356 4172
L112331 4269
L112331 4464
L112356 4513
L112380 4537
L112429 4562
L112526 4562
L112575 4537
L112599 4513
L112624 4464
L112624 4342
L112599 4294
L112575 4269
L112526 4245
L112429 4245
L112380 4269
L112356 4294
L112331 4342
" />
</g>
<g style="fill:#000000; fill-opacity:0.0; 
stroke:#000000; stroke-width:39.3701; stroke-opacity:1; 
stroke-linecap:round; stroke-linejoin:round;">
</g>
<g style="fill:#000000; fill-opacity:0.0; 
stroke:#000000; stroke-width:59.0551; stroke-opacity:1; 
stroke-linecap:round; stroke-linejoin:round;">
<path d="M23622 77955
L23622 78742
" />
</g>
<g style="fill:#000000; fill-opacity:0.0; 
stroke:#000000; stroke-width:39.3701; stroke-opacity:1; 
stroke-linecap:round; stroke-linejoin:round;">
</g>
<g style="fill:#000000; fill-opacity:0.0; 
stroke:#000000; stroke-width:59.0551; stroke-opacity:1; 
stroke-linecap:round; stroke-linejoin:round;">
<path d="M43307 77955
L43307 78742
" />
</g>
<g style="fill:#000000; fill-opacity:0.0; 
stroke:#000000; stroke-width:39.3701; stroke-opacity:1; 
stroke-linecap:round; stroke-linejoin:round;">
</g>
<g style="fill:#000000; fill-opacity:0.0; 
stroke:#000000; stroke-width:59.0551; stroke-opacity:1; 
stroke-linecap:round; stroke-linejoin:round;">
<path d="M62992 77955
L62992 78742
" />
</g>
<g style="fill:#000000; fill-opacity:0.0; 
stroke:#000000; stroke-width:39.3701; stroke-opacity:1; 
stroke-linecap:round; stroke-linejoin:round;">
</g>
<g style="fill:#000000; fill-opacity:0.0; 
stroke:#000000; stroke-width:59.0551; stroke-opacity:1; 
stroke-linecap:round; stroke-linejoin:round;">
<path d="M82677 77955
L82677 78742
" />
</g>
<g style="fill:#000000; fill-opacity:0.0; 
stroke:#000000; stroke-width:39.3701; stroke-opacity:1; 
stroke-linecap:round; stroke-linejoin:round;">
</g>
<g style="fill:#000000; fill-opacity:0.0; 
stroke:#000000; stroke-width:59.0551; stroke-opacity:1; 
stroke-linecap:round; stroke-linejoin:round;">
<path d="M102362 77955
L102362 78742
" />
</g>
<g style="fill:#000000; fill-opacity:0.0; 
stroke:#000000; stroke-width:39.3701; stroke-opacity:1; 
stroke-linecap:round; stroke-linejoin:round;">
</g>
<g style="fill:#000000; fill-opacity:0.0; 
stroke:#000000; stroke-width:59.0551; stroke-opacity:1; 
stroke-linecap:round; stroke-linejoin:round;">
<path d="M14199 78580
L13906 78580
" />
<path d="M14052 78580
L14052 78069
L14004 78142
L13955 78190
L13906 78215
" />
</g>
<g style="fill:#000000; fill-opacity:0.0; 
stroke:#000000; stroke-width:39.3701; stroke-opacity:1; 
stroke-linecap:round; stroke-linejoin:round;">
</g>
<g style="fill:#000000; fill-opacity:0.0; 
stroke:#000000; stroke-width:59.0551; stroke-opacity:1; 
stroke-linecap:round; stroke-linejoin:round;">
<path d="M33591 78117
L33615 78093
L33664 78069
L33786 78069
L33835 78093
L33859 78117
L33884 78166
L33884 78215
L33859 78288
L33567 78580
L33884 78580
" />
</g>
<g style="fill:#000000; fill-opacity:0.0; 
stroke:#000000; stroke-width:39.3701; stroke-opacity:1; 
stroke-linecap:round; stroke-linejoin:round;">
</g>
<g style="fill:#000000; fill-opacity:0.0; 
stroke:#000000; stroke-width:59.0551; stroke-opacity:1; 
stroke-linecap:round; stroke-linejoin:round;">
<path d="M53252 78069
L53569 78069
L53398 78263
L53471 78263
L53520 78288
L53544 78312
L53569 78361
L53569 78483
L53544 78532
L53520 78556
L53471 78580
L53325 78580
L53276 78556
L53252 78532
" />
</g>
<g style="fill:#000000; fill-opacity:0.0; 
stroke:#000000; stroke-width:39.3701; stroke-opacity:1; 
stroke-linecap:round; stroke-linejoin:round;">
</g>
<g style="fill:#000000; fill-opacity:0.0; 
stroke:#000000; stroke-width:59.0551; stroke-opacity:1; 
stroke-linecap:round; stroke-linejoin:round;">
<path d="M73205 78239
L73205 78580
" />
<path d="M73083 78044
L72961 78410
L73278 78410
" />
</g>
<g style="fill:#000000; fill-opacity:0.0; 
stroke:#000000; stroke-width:39.3701; stroke-opacity:1; 
stroke-linecap:round; stroke-linejoin:round;">
</g>
<g style="fill:#000000; fill-opacity:0.0; 
stroke:#000000; stroke-width:59.0551; stroke-opacity:1; 
stroke-linecap:round; stroke-linejoin:round;">
<path d="M92914 78069
L92671 78069
L92646 78312
L92671 78288
L92719 78263
L92841 78263
L92890 78288
L92914 78312
L92939 78361
L92939 78483
L92914 78532
L92890 78556
L92841 78580
L92719 78580
L92671 78556
L92646 78532
" />
</g>
<g style="fill:#000000; fill-opacity:0.0; 
stroke:#000000; stroke-width:39.3701; stroke-opacity:1; 
stroke-linecap:round; stroke-linejoin:round;">
</g>
<g style="fill:#000000; fill-opacity:0.0; 
stroke:#000000; stroke-width:59.0551; stroke-opacity:1; 
stroke-linecap:round; stroke-linejoin:round;">
<path d="M112575 78069
L112477 78069
L112429 78093
L112404 78117
L112356 78190
L112331 78288
L112331 78483
L112356 78532
L112380 78556
L112429 78580
L112526 78580
L112575 78556
L112599 78532
L112624 78483
L112624 78361
L112599 78312
L112575 78288
L112526 78263
L112429 78263
L112380 78288
L112356 78312
L112331 78361
" />
</g>
<g style="fill:#000000; fill-opacity:0.0; 
stroke:#000000; stroke-width:39.3701; stroke-opacity:1; 
stroke-linecap:round; stroke-linejoin:round;">
</g>
<g style="fill:#000000; fill-opacity:0.0; 
stroke:#000000; stroke-width:59.0551; stroke-opacity:1; 
stroke-linecap:round; stroke-linejoin:round;">
<path d="M3937 23622
L4724 23622
" />
</g>
<g style="fill:#000000; fill-opacity:0.0; 
stroke:#000000; stroke-width:39.3701; stroke-opacity:1; 
stroke-linecap:round; stroke-linejoin:round;">
</g>
<g style="fill:#000000; fill-opacity:0.0; 
stroke:#000000; stroke-width:59.0551; stroke-opacity:1; 
stroke-linecap:round; stroke-linejoin:round;">
<path d="M3937 43307
L4724 43307
" />
</g>
<g style="fill:#000000; fill-opacity:0.0; 
stroke:#000000; stroke-width:39.3701; stroke-opacity:1; 
stroke-linecap:round; stroke-linejoin:round;">
</g>
<g style="fill:#000000; fill-opacity:0.0; 
stroke:#000000; stroke-width:59.0551; stroke-opacity:1; 
stroke-linecap:round; stroke-linejoin:round;">
<path d="M3937 62992
L4724 62992
" />
</g>
<g style="fill:#000000; fill-opacity:0.0; 
stroke:#000000; stroke-width:39.3701; stroke-opacity:1; 
stroke-linecap:round; stroke-linejoin:round;">
</g>
<g style="fill:#000000; fill-opacity:0.0; 
stroke:#000000; stroke-width:59.0551; stroke-opacity:1; 
stroke-linecap:round; stroke-linejoin:round;">
<path d="M4208 13864
L4452 13864
" />
<path d="M4160 14011
L4330 13499
L4501 14011
" />
</g>
<g style="fill:#000000; fill-opacity:0.0; 
stroke:#000000; stroke-width:39.3701; stroke-opacity:1; 
stroke-linecap:round; stroke-linejoin:round;">
</g>
<g style="fill:#000000; fill-opacity:0.0; 
stroke:#000000; stroke-width:59.0551; stroke-opacity:1; 
stroke-linecap:round; stroke-linejoin:round;">
<path d="M4367 33428
L4440 33452
L4464 33476
L4489 33525
L4489 33598
L4464 33647
L4440 33671
L4391 33696
L4196 33696
L4196 33184
L4367 33184
L4416 33208
L4440 33233
L4464 33281
L4464 33330
L4440 33379
L4416 33403
L4367 33428
L4196 33428
" />
</g>
<g style="fill:#000000; fill-opacity:0.0; 
stroke:#000000; stroke-width:39.3701; stroke-opacity:1; 
stroke-linecap:round; stroke-linejoin:round;">
</g>
<g style="fill:#000000; fill-opacity:0.0; 
stroke:#000000; stroke-width:59.0551; stroke-opacity:1; 
stroke-linecap:round; stroke-linejoin:round;">
<path d="M4489 53332
L4464 53356
L4391 53381
L4342 53381
L4269 53356
L4221 53308
L4196 53259
L4172 53161
L4172 53088
L4196 52991
L4221 52942
L4269 52893
L4342 52869
L4391 52869
L4464 52893
L4489 52918
" />
</g>
<g style="fill:#000000; fill-opacity:0.0; 
stroke:#000000; stroke-width:39.3701; stroke-opacity:1; 
stroke-linecap:round; stroke-linejoin:round;">
</g>
<g style="fill:#000000; fill-opacity:0.0; 
stroke:#000000; stroke-width:59.0551; stroke-opacity:1; 
stroke-linecap:round; stroke-linejoin:round;">
<path d="M4196 73066
L4196 72554
L4318 72554
L4391 72578
L4440 72627
L4464 72676
L4489 72773
L4489 72846
L4464 72944
L4440 72993
L4391 73041
L4318 73066
L4196 73066
" />
</g>
<g style="fill:#000000; fill-opacity:0.0; 
stroke:#000000; stroke-width:39.3701; stroke-opacity:1; 
stroke-linecap:round; stroke-linejoin:round;">
</g>
<g style="fill:#000000; fill-opacity:0.0; 
stroke:#000000; stroke-width:59.0551; stroke-opacity:1; 
stroke-linecap:round; stroke-linejoin:round;">
<path d="M112992 23622
L112205 23622
" />
</g>
<g style="fill:#000000; fill-opacity:0.0; 
stroke:#000000; stroke-width:39.3701; stroke-opacity:1; 
stroke-linecap:round; stroke-linejoin:round;">
</g>
<g style="fill:#000000; fill-opacity:0.0; 
stroke:#000000; stroke-width:59.0551; stroke-opacity:1; 
stroke-linecap:round; stroke-linejoin:round;">
<path d="M112992 43307
L112205 43307
" />
</g>
<g style="fill:#000000; fill-opacity:0.0; 
stroke:#000000; stroke-width:39.3701; stroke-opacity:1; 
stroke-linecap:round; stroke-linejoin:round;">
</g>
<g style="fill:#000000; fill-opacity:0.0; 
stroke:#000000; stroke-width:59.0551; stroke-opacity:1; 
stroke-linecap:round; stroke-linejoin:round;">
<path d="M112992 62992
L112205 62992
" />
</g>
<g style="fill:#000000; fill-opacity:0.0; 
stroke:#000000; stroke-width:39.3701; stroke-opacity:1; 
stroke-linecap:round; stroke-linejoin:round;">
</g>
<g style="fill:#000000; fill-opacity:0.0; 
stroke:#000000; stroke-width:59.0551; stroke-opacity:1; 
stroke-linecap:round; stroke-linejoin:round;">
<path d="M112477 13864
L112721 13864
" />
<path d="M112428 14011
L112599 13499
L112769 14011
" />
</g>
<g style="fill:#000000; fill-opacity:0.0; 
stroke:#000000; stroke-width:39.3701; stroke-opacity:1; 
stroke-linecap:round; stroke-linejoin:round;">
</g>
<g style="fill:#000000; fill-opacity:0.0; 
stroke:#000000; stroke-width:59.0551; stroke-opacity:1; 
stroke-linecap:round; stroke-linejoin:round;">
<path d="M112635 33428
L112708 33452
L112733 33476
L112757 33525
L112757 33598
L112733 33647
L112708 33671
L112660 33696
L112465 33696
L112465 33184
L112635 33184
L112684 33208
L112708 33233
L112733 33281
L112733 33330
L112708 33379
L112684 33403
L112635 33428
L112465 33428
" />
</g>
<g style="fill:#000000; fill-opacity:0.0; 
stroke:#000000; stroke-width:39.3701; stroke-opacity:1; 
stroke-linecap:round; stroke-linejoin:round;">
</g>
<g style="fill:#000000; fill-opacity:0.0; 
stroke:#000000; stroke-width:59.0551; stroke-opacity:1; 
stroke-linecap:round; stroke-linejoin:round;">
<path d="M112757 53332
L112733 53356
L112660 53381
L112611 53381
L112538 53356
L112489 53308
L112465 53259
L112440 53161
L112440 53088
L112465 52991
L112489 52942
L112538 52893
L112611 52869
L112660 52869
L112733 52893
L112757 52918
" />
</g>
<g style="fill:#000000; fill-opacity:0.0; 
stroke:#000000; stroke-width:39.3701; stroke-opacity:1; 
stroke-linecap:round; stroke-linejoin:round;">
</g>
<g style="fill:#000000; fill-opacity:0.0; 
stroke:#000000; stroke-width:59.0551; stroke-opacity:1; 
stroke-linecap:round; stroke-linejoin:round;">
<path d="M112465 73066
L112465 72554
L112587 72554
L112660 72578
L112708 72627
L112733 72676
L112757 72773
L112757 72846
L112733 72944
L112708 72993
L112660 73041
L112587 73066
L112465 73066
" />
</g>
<g style="fill:#000000; fill-opacity:0.0; 
stroke:#000000; stroke-width:39.3701; stroke-opacity:1; 
stroke-linecap:round; stroke-linejoin:round;">
</g>
<g style="fill:#000000; fill-opacity:0.0; 
stroke:#000000; stroke-width:59.0551; stroke-opacity:1; 
stroke-linecap:round; stroke-linejoin:round;">
<path d="M78911 76293
L78911 75703
L79051 75703
L79136 75731
L79192 75787
L79220 75843
L79248 75956
L79248 76040
L79220 76153
L79192 76209
L79136 76265
L79051 76293
L78911 76293
" />
<path d="M79754 76293
L79754 75984
L79726 75928
L79670 75899
L79557 75899
L79501 75928
" />
<path d="M79754 76265
L79698 76293
L79557 76293
L79501 76265
L79473 76209
L79473 76153
L79501 76096
L79557 76068
L79698 76068
L79754 76040
" />
<path d="M79951 75899
L80176 75899
" />
<path d="M80036 75703
L80036 76209
L80064 76265
L80120 76293
L80176 76293
" />
<path d="M80598 76265
L80542 76293
L80429 76293
L80373 76265
L80345 76209
L80345 75984
L80373 75928
L80429 75899
L80542 75899
L80598 75928
L80626 75984
L80626 76040
L80345 76096
" />
<path d="M80879 76237
L80907 76265
L80879 76293
L80851 76265
L80879 76237
L80879 76293
" />
<path d="M80879 75928
L80907 75956
L80879 75984
L80851 75956
L80879 75928
L80879 75984
" />
<path d="M81582 75759
L81610 75731
L81667 75703
L81807 75703
L81863 75731
L81892 75759
L81920 75815
L81920 75871
L81892 75956
L81554 76293
L81920 76293
" />
<path d="M82285 75703
L82341 75703
L82398 75731
L82426 75759
L82454 75815
L82482 75928
L82482 76068
L82454 76181
L82426 76237
L82398 76265
L82341 76293
L82285 76293
L82229 76265
L82201 76237
L82173 76181
L82145 76068
L82145 75928
L82173 75815
L82201 75759
L82229 75731
L82285 75703
" />
<path d="M82707 75759
L82735 75731
L82791 75703
L82932 75703
L82988 75731
L83016 75759
L83045 75815
L83045 75871
L83016 75956
L82679 76293
L83045 76293
" />
<path d="M83410 75703
L83466 75703
L83523 75731
L83551 75759
L83579 75815
L83607 75928
L83607 76068
L83579 76181
L83551 76237
L83523 76265
L83466 76293
L83410 76293
L83354 76265
L83326 76237
L83298 76181
L83269 76068
L83269 75928
L83298 75815
L83326 75759
L83354 75731
L83410 75703
" />
<path d="M83860 76068
L84310 76068
" />
<path d="M84704 75703
L84760 75703
L84816 75731
L84844 75759
L84872 75815
L84901 75928
L84901 76068
L84872 76181
L84844 76237
L84816 76265
L84760 76293
L84704 76293
L84647 76265
L84619 76237
L84591 76181
L84563 76068
L84563 75928
L84591 75815
L84619 75759
L84647 75731
L84704 75703
" />
<path d="M85407 75899
L85407 76293
" />
<path d="M85266 75674
L85126 76096
L85491 76096
" />
<path d="M85716 76068
L86166 76068
" />
<path d="M86560 75703
L86616 75703
L86672 75731
L86700 75759
L86728 75815
L86757 75928
L86757 76068
L86728 76181
L86700 76237
L86672 76265
L86616 76293
L86560 76293
L86503 76265
L86475 76237
L86447 76181
L86419 76068
L86419 75928
L86447 75815
L86475 75759
L86503 75731
L86560 75703
" />
<path d="M87319 76293
L86982 76293
" />
<path d="M87150 76293
L87150 75703
L87094 75787
L87038 75843
L86982 75871
" />
</g>
<g style="fill:#000000; fill-opacity:0.0; 
stroke:#000000; stroke-width:39.3701; stroke-opacity:1; 
stroke-linecap:round; stroke-linejoin:round;">
</g>
<g style="fill:#000000; fill-opacity:0.0; 
stroke:#000000; stroke-width:59.0551; stroke-opacity:1; 
stroke-linecap:round; stroke-linejoin:round;">
<path d="M69685 76577
L112205 76577
" />
</g>
<g style="fill:#000000; fill-opacity:0.0; 
stroke:#000000; stroke-width:39.3701; stroke-opacity:1; 
stroke-linecap:round; stroke-linejoin:round;">
</g>
<g style="fill:#000000; fill-opacity:0.0; 
stroke:#000000; stroke-width:59.0551; stroke-opacity:1; 
stroke-linecap:round; stroke-linejoin:round;">
<path d="M70249 77395
L70249 76805
" />
<path d="M70587 77395
L70334 77058
" />
<path d="M70587 76805
L70249 77142
" />
<path d="M70840 77395
L70840 77002
" />
<path d="M70840 76805
L70812 76833
L70840 76861
L70868 76833
L70840 76805
L70840 76861
" />
<path d="M71458 77339
L71430 77367
L71346 77395
L71290 77395
L71205 77367
L71149 77311
L71121 77255
L71093 77142
L71093 77058
L71121 76946
L71149 76889
L71205 76833
L71290 76805
L71346 76805
L71430 76833
L71458 76861
" />
<path d="M71965 77395
L71965 77086
L71937 77030
L71880 77002
L71768 77002
L71712 77030
" />
<path d="M71965 77367
L71908 77395
L71768 77395
L71712 77367
L71683 77311
L71683 77255
L71712 77199
L71768 77171
L71908 77171
L71965 77142
" />
<path d="M72499 77395
L72499 76805
" />
<path d="M72499 77367
L72443 77395
L72330 77395
L72274 77367
L72246 77339
L72218 77283
L72218 77114
L72246 77058
L72274 77030
L72330 77002
L72443 77002
L72499 77030
" />
<path d="M73230 77086
L73427 77086
" />
<path d="M73511 77395
L73230 77395
L73230 76805
L73511 76805
" />
<path d="M73764 77339
L73793 77367
L73764 77395
L73736 77367
L73764 77339
L73764 77395
" />
<path d="M74046 77395
L74046 76805
L74186 76805
L74271 76833
L74327 76889
L74355 76946
L74383 77058
L74383 77142
L74355 77255
L74327 77311
L74271 77367
L74186 77395
L74046 77395
" />
<path d="M74636 77339
L74664 77367
L74636 77395
L74608 77367
L74636 77339
L74636 77395
" />
<path d="M74889 77227
L75171 77227
" />
<path d="M74833 77395
L75030 76805
L75227 77395
" />
<path d="M75424 77339
L75452 77367
L75424 77395
L75395 77367
L75424 77339
L75424 77395
" />
<path d="M76605 77395
L76605 76805
" />
<path d="M76661 77171
L76830 77395
" />
<path d="M76830 77002
L76605 77227
" />
<path d="M77083 77395
L77083 77002
" />
<path d="M77083 76805
L77055 76833
L77083 76861
L77111 76833
L77083 76805
L77083 76861
" />
<path d="M77617 77367
L77561 77395
L77448 77395
L77392 77367
L77364 77339
L77336 77283
L77336 77114
L77364 77058
L77392 77030
L77448 77002
L77561 77002
L77617 77030
" />
<path d="M78123 77395
L78123 77086
L78095 77030
L78039 77002
L77926 77002
L77870 77030
" />
<path d="M78123 77367
L78067 77395
L77926 77395
L77870 77367
L77842 77311
L77842 77255
L77870 77199
L77926 77171
L78067 77171
L78123 77142
" />
<path d="M78658 77395
L78658 76805
" />
<path d="M78658 77367
L78601 77395
L78489 77395
L78433 77367
L78404 77339
L78376 77283
L78376 77114
L78404 77058
L78433 77030
L78489 77002
L78601 77002
L78658 77030
" />
<path d="M79557 77620
L79529 77592
L79473 77508
L79445 77452
L79417 77367
L79389 77227
L79389 77114
L79417 76974
L79445 76889
L79473 76833
L79529 76749
L79557 76721
" />
<path d="M80064 76805
L79782 76805
L79754 77086
L79782 77058
L79839 77030
L79979 77030
L80036 77058
L80064 77086
L80092 77142
L80092 77283
L80064 77339
L80036 77367
L79979 77395
L79839 77395
L79782 77367
L79754 77339
" />
<path d="M80345 77339
L80373 77367
L80345 77395
L80317 77367
L80345 77339
L80345 77395
" />
<path d="M80935 77395
L80598 77395
" />
<path d="M80767 77395
L80767 76805
L80710 76889
L80654 76946
L80598 76974
" />
<path d="M81188 77339
L81217 77367
L81188 77395
L81160 77367
L81188 77339
L81188 77395
" />
<path d="M81723 77002
L81723 77395
" />
<path d="M81582 76777
L81442 77199
L81807 77199
" />
<path d="M81976 77620
L82004 77592
L82060 77508
L82088 77452
L82117 77367
L82145 77227
L82145 77114
L82117 76974
L82088 76889
L82060 76833
L82004 76749
L81976 76721
" />
<path d="M82426 77171
L82876 77171
" />
<path d="M83466 77395
L83129 77395
" />
<path d="M83298 77395
L83298 76805
L83241 76889
L83185 76946
L83129 76974
" />
</g>
<g style="fill:#000000; fill-opacity:0.0; 
stroke:#000000; stroke-width:39.3701; stroke-opacity:1; 
stroke-linecap:round; stroke-linejoin:round;">
</g>
<g style="fill:#000000; fill-opacity:0.0; 
stroke:#000000; stroke-width:59.0551; stroke-opacity:1; 
stroke-linecap:round; stroke-linejoin:round;">
<path d="M69685 75396
L112205 75396
" />
</g>
<g style="fill:#000000; fill-opacity:0.0; 
stroke:#000000; stroke-width:39.3701; stroke-opacity:1; 
stroke-linecap:round; stroke-linejoin:round;">
</g>
<g style="fill:#000000; fill-opacity:0.0; 
stroke:#000000; stroke-width:118.11; stroke-opacity:1; 
stroke-linecap:round; stroke-linejoin:round;">
<path d="M104099 76293
L103902 76012
" />
<path d="M103761 76293
L103761 75703
L103986 75703
L104042 75731
L104070 75759
L104099 75815
L104099 75899
L104070 75956
L104042 75984
L103986 76012
L103761 76012
" />
<path d="M104577 76265
L104520 76293
L104408 76293
L104352 76265
L104323 76209
L104323 75984
L104352 75928
L104408 75899
L104520 75899
L104577 75928
L104605 75984
L104605 76040
L104323 76096
" />
<path d="M104802 75899
L104942 76293
L105083 75899
" />
<path d="M105308 76237
L105336 76265
L105308 76293
L105280 76265
L105308 76237
L105308 76293
" />
<path d="M105308 75928
L105336 75956
L105308 75984
L105280 75956
L105308 75928
L105308 75984
" />
<path d="M105955 75703
L106151 76293
L106348 75703
" />
<path d="M106854 76293
L106517 76293
" />
<path d="M106686 76293
L106686 75703
L106629 75787
L106573 75843
L106517 75871
" />
<path d="M107108 76237
L107136 76265
L107108 76293
L107079 76265
L107108 76237
L107108 76293
" />
<path d="M107501 75703
L107557 75703
L107614 75731
L107642 75759
L107670 75815
L107698 75928
L107698 76068
L107670 76181
L107642 76237
L107614 76265
L107557 76293
L107501 76293
L107445 76265
L107417 76237
L107389 76181
L107361 76068
L107361 75928
L107389 75815
L107417 75759
L107445 75731
L107501 75703
" />
</g>
<g style="fill:#000000; fill-opacity:0.0; 
stroke:#000000; stroke-width:39.3701; stroke-opacity:1; 
stroke-linecap:round; stroke-linejoin:round;">
</g>
<g style="fill:#000000; fill-opacity:0.0; 
stroke:#000000; stroke-width:59.0551; stroke-opacity:1; 
stroke-linecap:round; stroke-linejoin:round;">
<path d="M70221 76265
L70305 76293
L70446 76293
L70502 76265
L70530 76237
L70559 76181
L70559 76124
L70530 76068
L70502 76040
L70446 76012
L70334 75984
L70277 75956
L70249 75928
L70221 75871
L70221 75815
L70249 75759
L70277 75731
L70334 75703
L70474 75703
L70559 75731
" />
<path d="M70812 76293
L70812 75899
" />
<path d="M70812 75703
L70784 75731
L70812 75759
L70840 75731
L70812 75703
L70812 75759
" />
<path d="M71037 75899
L71346 75899
L71037 76293
L71346 76293
" />
<path d="M71796 76265
L71740 76293
L71627 76293
L71571 76265
L71543 76209
L71543 75984
L71571 75928
L71627 75899
L71740 75899
L71796 75928
L71824 75984
L71824 76040
L71543 76096
" />
<path d="M72077 76237
L72105 76265
L72077 76293
L72049 76265
L72077 76237
L72077 76293
" />
<path d="M72077 75928
L72105 75956
L72077 75984
L72049 75956
L72077 75928
L72077 75984
" />
<path d="M72780 76124
L73061 76124
" />
<path d="M72724 76293
L72921 75703
L73118 76293
" />
<path d="M73568 75899
L73568 76293
" />
<path d="M73427 75674
L73286 76096
L73652 76096
" />
</g>
<g style="fill:#000000; fill-opacity:0.0; 
stroke:#000000; stroke-width:39.3701; stroke-opacity:1; 
stroke-linecap:round; stroke-linejoin:round;">
</g>
<g style="fill:#000000; fill-opacity:0.0; 
stroke:#000000; stroke-width:59.0551; stroke-opacity:1; 
stroke-linecap:round; stroke-linejoin:round;">
<path d="M103714 77395
L103714 76805
" />
<path d="M104248 77395
L104248 76805
" />
<path d="M104248 77367
L104192 77395
L104079 77395
L104023 77367
L103995 77339
L103967 77283
L103967 77114
L103995 77058
L104023 77030
L104079 77002
L104192 77002
L104248 77030
" />
<path d="M104529 77339
L104557 77367
L104529 77395
L104501 77367
L104529 77339
L104529 77395
" />
<path d="M104529 77030
L104557 77058
L104529 77086
L104501 77058
L104529 77030
L104529 77086
" />
<path d="M105570 77395
L105232 77395
" />
<path d="M105401 77395
L105401 76805
L105345 76889
L105289 76946
L105232 76974
" />
<path d="M106245 76777
L105739 77536
" />
<path d="M106751 77395
L106413 77395
" />
<path d="M106582 77395
L106582 76805
L106526 76889
L106470 76946
L106413 76974
" />
</g>
<g style="fill:#000000; fill-opacity:0.0; 
stroke:#000000; stroke-width:39.3701; stroke-opacity:1; 
stroke-linecap:round; stroke-linejoin:round;">
</g>
<g style="fill:#000000; fill-opacity:0.0; 
stroke:#000000; stroke-width:59.0551; stroke-opacity:1; 
stroke-linecap:round; stroke-linejoin:round;">
<path d="M69685 73821
L112205 73821
" />
</g>
<g style="fill:#000000; fill-opacity:0.0; 
stroke:#000000; stroke-width:39.3701; stroke-opacity:1; 
stroke-linecap:round; stroke-linejoin:round;">
</g>
<g style="fill:#000000; fill-opacity:0.0; 
stroke:#000000; stroke-width:157.48; stroke-opacity:1; 
stroke-linecap:round; stroke-linejoin:round;">
<path d="M70360 74099
L70810 74099
" />
<path d="M70486 74886
L70585 74099
" />
<path d="M70974 74886
L71039 74361
" />
<path d="M71072 74099
L71030 74136
L71063 74174
L71105 74136
L71072 74099
L71063 74174
" />
<path d="M71302 74361
L71602 74361
" />
<path d="M71447 74099
L71363 74774
L71391 74849
L71461 74886
L71536 74886
" />
<path d="M71911 74886
L71841 74849
L71813 74774
L71897 74099
" />
<path d="M72516 74849
L72436 74886
L72286 74886
L72216 74849
L72187 74774
L72225 74474
L72272 74399
L72352 74361
L72501 74361
L72572 74399
L72600 74474
L72591 74549
L72206 74624
" />
<path d="M72895 74811
L72928 74849
L72886 74886
L72853 74849
L72895 74811
L72886 74886
" />
<path d="M72947 74399
L72980 74436
L72937 74474
L72905 74436
L72947 74399
L72937 74474
" />
<path d="M73828 74849
L73936 74886
L74123 74886
L74203 74849
L74245 74811
L74292 74736
L74301 74661
L74273 74586
L74240 74549
L74170 74511
L74025 74474
L73954 74436
L73922 74399
L73894 74324
L73903 74249
L73950 74174
L73992 74136
L74072 74099
L74259 74099
L74367 74136
" />
<path d="M74611 74886
L74676 74361
" />
<path d="M74709 74099
L74667 74136
L74700 74174
L74742 74136
L74709 74099
L74700 74174
" />
<path d="M75051 74361
L74986 74886
" />
<path d="M75042 74436
L75084 74399
L75164 74361
L75276 74361
L75346 74399
L75375 74474
L75323 74886
" />
<path d="M76101 74361
L76021 74999
L75974 75074
L75932 75111
L75853 75149
L75740 75149
L75670 75111
" />
<path d="M76040 74849
L75960 74886
L75810 74886
L75740 74849
L75707 74811
L75679 74736
L75707 74511
L75754 74436
L75796 74399
L75876 74361
L76026 74361
L76096 74399
" />
<path d="M76523 74886
L76453 74849
L76424 74774
L76509 74099
" />
<path d="M77127 74849
L77048 74886
L76898 74886
L76828 74849
L76799 74774
L76837 74474
L76884 74399
L76963 74361
L77113 74361
L77184 74399
L77212 74474
L77202 74549
L76818 74624
" />
<path d="M77301 74961
L77901 74961
" />
<path d="M78084 74099
L78534 74099
" />
<path d="M78210 74886
L78309 74099
" />
<path d="M78698 74886
L78763 74361
" />
<path d="M78744 74511
L78791 74436
L78834 74399
L78913 74361
L78988 74361
" />
<path d="M79522 74886
L79574 74474
L79546 74399
L79476 74361
L79326 74361
L79246 74399
" />
<path d="M79527 74849
L79447 74886
L79260 74886
L79190 74849
L79162 74774
L79171 74699
L79218 74624
L79298 74586
L79485 74586
L79565 74549
" />
<path d="M79963 74361
L79897 74886
" />
<path d="M79954 74436
L79996 74399
L80076 74361
L80188 74361
L80258 74399
L80286 74474
L80235 74886
" />
<path d="M80577 74849
L80647 74886
L80797 74886
L80877 74849
L80924 74774
L80929 74736
L80900 74661
L80830 74624
L80718 74624
L80647 74586
L80619 74511
L80624 74474
L80671 74399
L80750 74361
L80863 74361
L80933 74399
" />
<path d="M81247 74886
L81313 74361
" />
<path d="M81346 74099
L81304 74136
L81336 74174
L81379 74136
L81346 74099
L81336 74174
" />
<path d="M81575 74361
L81875 74361
" />
<path d="M81721 74099
L81636 74774
L81664 74849
L81735 74886
L81810 74886
" />
<path d="M82185 74886
L82114 74849
L82082 74811
L82053 74736
L82082 74511
L82128 74436
L82171 74399
L82250 74361
L82363 74361
L82433 74399
L82466 74436
L82494 74511
L82466 74736
L82419 74811
L82377 74849
L82297 74886
L82185 74886
" />
<path d="M82785 74886
L82850 74361
" />
<path d="M82831 74511
L82878 74436
L82921 74399
L83000 74361
L83075 74361
" />
<path d="M83075 74961
L83675 74961
" />
<path d="M83863 74661
L84238 74661
" />
<path d="M83759 74886
L84120 74099
L84284 74886
" />
<path d="M84547 74886
L84612 74361
" />
<path d="M84603 74436
L84645 74399
L84725 74361
L84837 74361
L84908 74399
L84936 74474
L84884 74886
" />
<path d="M84936 74474
L84983 74399
L85062 74361
L85175 74361
L85245 74399
L85273 74474
L85222 74886
" />
<path d="M85662 74361
L85564 75149
" />
<path d="M85658 74399
L85737 74361
L85887 74361
L85958 74399
L85990 74436
L86019 74511
L85990 74736
L85944 74811
L85901 74849
L85822 74886
L85672 74886
L85601 74849
" />
</g>
<g style="fill:#000000; fill-opacity:0.0; 
stroke:#000000; stroke-width:39.3701; stroke-opacity:1; 
stroke-linecap:round; stroke-linejoin:round;">
</g>
<g style="fill:#000000; fill-opacity:0.0; 
stroke:#000000; stroke-width:59.0551; stroke-opacity:1; 
stroke-linecap:round; stroke-linejoin:round;">
<path d="M70446 73070
L70249 73070
" />
<path d="M70249 73380
L70249 72789
L70530 72789
" />
<path d="M70755 73380
L70755 72986
" />
<path d="M70755 72789
L70727 72817
L70755 72845
L70784 72817
L70755 72789
L70755 72845
" />
<path d="M71121 73380
L71065 73352
L71037 73295
L71037 72789
" />
<path d="M71571 73352
L71515 73380
L71402 73380
L71346 73352
L71318 73295
L71318 73070
L71346 73014
L71402 72986
L71515 72986
L71571 73014
L71599 73070
L71599 73127
L71318 73183
" />
<path d="M71852 73323
L71880 73352
L71852 73380
L71824 73352
L71852 73323
L71852 73380
" />
<path d="M71852 73014
L71880 73042
L71852 73070
L71824 73042
L71852 73014
L71852 73070
" />
<path d="M72555 73352
L72640 73380
L72780 73380
L72836 73352
L72865 73323
L72893 73267
L72893 73211
L72865 73155
L72836 73127
L72780 73099
L72668 73070
L72611 73042
L72583 73014
L72555 72958
L72555 72902
L72583 72845
L72611 72817
L72668 72789
L72808 72789
L72893 72817
" />
<path d="M73146 73380
L73146 72986
" />
<path d="M73146 72789
L73118 72817
L73146 72845
L73174 72817
L73146 72789
L73146 72845
" />
<path d="M73427 72986
L73427 73380
" />
<path d="M73427 73042
L73455 73014
L73511 72986
L73596 72986
L73652 73014
L73680 73070
L73680 73380
" />
<path d="M74214 72986
L74214 73464
L74186 73520
L74158 73548
L74102 73577
L74018 73577
L73961 73548
" />
<path d="M74214 73352
L74158 73380
L74046 73380
L73989 73352
L73961 73323
L73933 73267
L73933 73099
L73961 73042
L73989 73014
L74046 72986
L74158 72986
L74214 73014
" />
<path d="M74580 73380
L74524 73352
L74496 73295
L74496 72789
" />
<path d="M75030 73352
L74974 73380
L74861 73380
L74805 73352
L74777 73295
L74777 73070
L74805 73014
L74861 72986
L74974 72986
L75030 73014
L75058 73070
L75058 73127
L74777 73183
" />
<path d="M75171 73436
L75620 73436
" />
<path d="M75677 72789
L76014 72789
" />
<path d="M75845 73380
L75845 72789
" />
<path d="M76211 73380
L76211 72986
" />
<path d="M76211 73099
L76239 73042
L76267 73014
L76323 72986
L76380 72986
" />
<path d="M76830 73380
L76830 73070
L76802 73014
L76745 72986
L76633 72986
L76577 73014
" />
<path d="M76830 73352
L76773 73380
L76633 73380
L76577 73352
L76548 73295
L76548 73239
L76577 73183
L76633 73155
L76773 73155
L76830 73127
" />
<path d="M77111 72986
L77111 73380
" />
<path d="M77111 73042
L77139 73014
L77195 72986
L77280 72986
L77336 73014
L77364 73070
L77364 73380
" />
<path d="M77617 73352
L77673 73380
L77786 73380
L77842 73352
L77870 73295
L77870 73267
L77842 73211
L77786 73183
L77701 73183
L77645 73155
L77617 73099
L77617 73070
L77645 73014
L77701 72986
L77786 72986
L77842 73014
" />
<path d="M78123 73380
L78123 72986
" />
<path d="M78123 72789
L78095 72817
L78123 72845
L78151 72817
L78123 72789
L78123 72845
" />
<path d="M78320 72986
L78545 72986
" />
<path d="M78404 72789
L78404 73295
L78433 73352
L78489 73380
L78545 73380
" />
<path d="M78826 73380
L78770 73352
L78742 73323
L78714 73267
L78714 73099
L78742 73042
L78770 73014
L78826 72986
L78911 72986
L78967 73014
L78995 73042
L79023 73099
L79023 73267
L78995 73323
L78967 73352
L78911 73380
L78826 73380
" />
<path d="M79276 73380
L79276 72986
" />
<path d="M79276 73099
L79304 73042
L79332 73014
L79389 72986
L79445 72986
" />
<path d="M79501 73436
L79951 73436
" />
<path d="M80064 73211
L80345 73211
" />
<path d="M80007 73380
L80204 72789
L80401 73380
" />
<path d="M80598 73380
L80598 72986
" />
<path d="M80598 73042
L80626 73014
L80682 72986
L80767 72986
L80823 73014
L80851 73070
L80851 73380
" />
<path d="M80851 73070
L80879 73014
L80935 72986
L81020 72986
L81076 73014
L81104 73070
L81104 73380
" />
<path d="M81385 72986
L81385 73577
" />
<path d="M81385 73014
L81442 72986
L81554 72986
L81610 73014
L81638 73042
L81667 73099
L81667 73267
L81638 73323
L81610 73352
L81554 73380
L81442 73380
L81385 73352
" />
<path d="M81920 73323
L81948 73352
L81920 73380
L81892 73352
L81920 73323
L81920 73380
" />
<path d="M82201 73380
L82201 72789
" />
<path d="M82257 73155
L82426 73380
" />
<path d="M82426 72986
L82201 73211
" />
<path d="M82679 73380
L82679 72986
" />
<path d="M82679 72789
L82651 72817
L82679 72845
L82707 72817
L82679 72789
L82679 72845
" />
<path d="M83213 73352
L83157 73380
L83045 73380
L82988 73352
L82960 73323
L82932 73267
L82932 73099
L82960 73042
L82988 73014
L83045 72986
L83157 72986
L83213 73014
" />
<path d="M83719 73380
L83719 73070
L83691 73014
L83635 72986
L83523 72986
L83466 73014
" />
<path d="M83719 73352
L83663 73380
L83523 73380
L83466 73352
L83438 73295
L83438 73239
L83466 73183
L83523 73155
L83663 73155
L83719 73127
" />
<path d="M84254 73380
L84254 72789
" />
<path d="M84254 73352
L84197 73380
L84085 73380
L84029 73352
L84001 73323
L83973 73267
L83973 73099
L84001 73042
L84029 73014
L84085 72986
L84197 72986
L84254 73014
" />
<path d="M84394 73436
L84844 73436
" />
<path d="M84985 72986
L84985 73577
" />
<path d="M84985 73014
L85041 72986
L85154 72986
L85210 73014
L85238 73042
L85266 73099
L85266 73267
L85238 73323
L85210 73352
L85154 73380
L85041 73380
L84985 73352
" />
<path d="M85772 73352
L85716 73380
L85604 73380
L85547 73352
L85519 73323
L85491 73267
L85491 73099
L85519 73042
L85547 73014
L85604 72986
L85716 72986
L85772 73014
" />
<path d="M86025 73380
L86025 72789
" />
<path d="M86025 73014
L86082 72986
L86194 72986
L86250 73014
L86278 73042
L86307 73099
L86307 73267
L86278 73323
L86250 73352
L86194 73380
L86082 73380
L86025 73352
" />
</g>
<g style="fill:#000000; fill-opacity:0.0; 
stroke:#000000; stroke-width:39.3701; stroke-opacity:1; 
stroke-linecap:round; stroke-linejoin:round;">
</g>
<g style="fill:#000000; fill-opacity:0.0; 
stroke:#000000; stroke-width:59.0551; stroke-opacity:1; 
stroke-linecap:round; stroke-linejoin:round;">
<path d="M69685 71459
L112205 71459
" />
</g>
<g style="fill:#000000; fill-opacity:0.0; 
stroke:#000000; stroke-width:39.3701; stroke-opacity:1; 
stroke-linecap:round; stroke-linejoin:round;">
</g>
<g style="fill:#000000; fill-opacity:0.0; 
stroke:#000000; stroke-width:59.0551; stroke-opacity:1; 
stroke-linecap:round; stroke-linejoin:round;">
<path d="M70221 72289
L70305 72317
L70446 72317
L70502 72289
L70530 72260
L70559 72204
L70559 72148
L70530 72092
L70502 72064
L70446 72036
L70334 72007
L70277 71979
L70249 71951
L70221 71895
L70221 71839
L70249 71782
L70277 71754
L70334 71726
L70474 71726
L70559 71754
" />
<path d="M70812 72317
L70812 71726
" />
<path d="M71065 72317
L71065 72007
L71037 71951
L70980 71923
L70896 71923
L70840 71951
L70812 71979
" />
<path d="M71571 72289
L71515 72317
L71402 72317
L71346 72289
L71318 72232
L71318 72007
L71346 71951
L71402 71923
L71515 71923
L71571 71951
L71599 72007
L71599 72064
L71318 72120
" />
<path d="M72077 72289
L72021 72317
L71908 72317
L71852 72289
L71824 72232
L71824 72007
L71852 71951
L71908 71923
L72021 71923
L72077 71951
L72105 72007
L72105 72064
L71824 72120
" />
<path d="M72274 71923
L72499 71923
" />
<path d="M72358 71726
L72358 72232
L72386 72289
L72443 72317
L72499 72317
" />
<path d="M72696 72260
L72724 72289
L72696 72317
L72668 72289
L72696 72260
L72696 72317
" />
<path d="M72696 71951
L72724 71979
L72696 72007
L72668 71979
L72696 71951
L72696 72007
" />
</g>
<g style="fill:#000000; fill-opacity:0.0; 
stroke:#000000; stroke-width:39.3701; stroke-opacity:1; 
stroke-linecap:round; stroke-linejoin:round;">
</g>
<g style="fill:#000000; fill-opacity:0.0; 
stroke:#000000; stroke-width:118.11; stroke-opacity:1; 
stroke-linecap:round; stroke-linejoin:round;">
<path d="M70212 70545
L70409 71136
L70606 70545
" />
<path d="M71028 71108
L70971 71136
L70859 71136
L70803 71108
L70775 71051
L70775 70826
L70803 70770
L70859 70742
L70971 70742
L71028 70770
L71056 70826
L71056 70883
L70775 70939
" />
<path d="M71309 70742
L71309 71136
" />
<path d="M71309 70798
L71337 70770
L71393 70742
L71478 70742
L71534 70770
L71562 70826
L71562 71136
" />
<path d="M71759 70742
L71984 70742
" />
<path d="M71843 70545
L71843 71051
L71871 71108
L71928 71136
L71984 71136
" />
<path d="M72153 71108
L72209 71136
L72321 71136
L72377 71108
L72406 71051
L72406 71023
L72377 70967
L72321 70939
L72237 70939
L72181 70911
L72153 70854
L72153 70826
L72181 70770
L72237 70742
L72321 70742
L72377 70770
" />
<path d="M72659 70742
L72659 71332
" />
<path d="M72659 70770
L72715 70742
L72827 70742
L72884 70770
L72912 70798
L72940 70854
L72940 71023
L72912 71079
L72884 71108
L72827 71136
L72715 71136
L72659 71108
" />
<path d="M73193 71136
L73193 70742
" />
<path d="M73193 70545
L73165 70573
L73193 70601
L73221 70573
L73193 70545
L73193 70601
" />
<path d="M73559 71136
L73502 71108
L73474 71051
L73474 70545
" />
<path d="M73755 71108
L73812 71136
L73924 71136
L73980 71108
L74009 71051
L74009 71023
L73980 70967
L73924 70939
L73840 70939
L73784 70911
L73755 70854
L73755 70826
L73784 70770
L73840 70742
L73924 70742
L73980 70770
" />
<path d="M74683 70967
L74965 70967
" />
<path d="M74627 71136
L74824 70545
L75021 71136
" />
<path d="M75471 70742
L75471 71136
" />
<path d="M75218 70742
L75218 71051
L75246 71108
L75302 71136
L75386 71136
L75443 71108
L75471 71079
" />
<path d="M76005 70742
L76005 71220
L75977 71276
L75949 71304
L75893 71332
L75808 71332
L75752 71304
" />
<path d="M76005 71108
L75949 71136
L75836 71136
L75780 71108
L75752 71079
L75724 71023
L75724 70854
L75752 70798
L75780 70770
L75836 70742
L75949 70742
L76005 70770
" />
<path d="M76258 71108
L76314 71136
L76427 71136
L76483 71108
L76511 71051
L76511 71023
L76483 70967
L76427 70939
L76343 70939
L76286 70911
L76258 70854
L76258 70826
L76286 70770
L76343 70742
L76427 70742
L76483 70770
" />
<path d="M76680 70742
L76905 70742
" />
<path d="M76764 70545
L76764 71051
L76793 71108
L76849 71136
L76905 71136
" />
<path d="M77074 71108
L77130 71136
L77242 71136
L77299 71108
L77327 71051
L77327 71023
L77299 70967
L77242 70939
L77158 70939
L77102 70911
L77074 70854
L77074 70826
L77102 70770
L77158 70742
L77242 70742
L77299 70770
" />
<path d="M77580 71136
L77580 70545
" />
<path d="M77636 70911
L77805 71136
" />
<path d="M77805 70742
L77580 70967
" />
<path d="M78142 71136
L78086 71108
L78058 71079
L78030 71023
L78030 70854
L78058 70798
L78086 70770
L78142 70742
L78227 70742
L78283 70770
L78311 70798
L78339 70854
L78339 71023
L78311 71079
L78283 71108
L78227 71136
L78142 71136
" />
<path d="M78677 71136
L78620 71108
L78592 71051
L78592 70545
" />
<path d="M79155 71136
L79155 70826
L79127 70770
L79070 70742
L78958 70742
L78902 70770
" />
<path d="M79155 71108
L79099 71136
L78958 71136
L78902 71108
L78874 71051
L78874 70995
L78902 70939
L78958 70911
L79099 70911
L79155 70883
" />
</g>
<g style="fill:#000000; fill-opacity:0.0; 
stroke:#000000; stroke-width:39.3701; stroke-opacity:1; 
stroke-linecap:round; stroke-linejoin:round;">
</g>
<g style="fill:#000000; fill-opacity:0.0; 
stroke:#000000; stroke-width:59.0551; stroke-opacity:1; 
stroke-linecap:round; stroke-linejoin:round;">
<path d="M70249 69955
L70249 69364
L70474 69364
L70530 69392
L70559 69420
L70587 69476
L70587 69561
L70559 69617
L70530 69645
L70474 69673
L70249 69673
" />
<path d="M71177 69898
L71149 69926
L71065 69955
L71009 69955
L70924 69926
L70868 69870
L70840 69814
L70812 69701
L70812 69617
L70840 69505
L70868 69448
L70924 69392
L71009 69364
L71065 69364
L71149 69392
L71177 69420
" />
<path d="M71627 69645
L71712 69673
L71740 69701
L71768 69758
L71768 69842
L71740 69898
L71712 69926
L71655 69955
L71430 69955
L71430 69364
L71627 69364
L71683 69392
L71712 69420
L71740 69476
L71740 69533
L71712 69589
L71683 69617
L71627 69645
L71430 69645
" />
<path d="M71880 70011
L72330 70011
" />
<path d="M72808 69898
L72780 69926
L72696 69955
L72640 69955
L72555 69926
L72499 69870
L72471 69814
L72443 69701
L72443 69617
L72471 69505
L72499 69448
L72555 69392
L72640 69364
L72696 69364
L72780 69392
L72808 69420
" />
<path d="M73314 69955
L73314 69645
L73286 69589
L73230 69561
L73118 69561
L73061 69589
" />
<path d="M73314 69926
L73258 69955
L73118 69955
L73061 69926
L73033 69870
L73033 69814
L73061 69758
L73118 69730
L73258 69730
L73314 69701
" />
<path d="M73849 69955
L73849 69364
" />
<path d="M73849 69926
L73793 69955
L73680 69955
L73624 69926
L73596 69898
L73568 69842
L73568 69673
L73596 69617
L73624 69589
L73680 69561
L73793 69561
L73849 69589
" />
<path d="M73989 70011
L74439 70011
" />
<path d="M74580 69955
L74580 69364
" />
<path d="M74580 69645
L74917 69645
" />
<path d="M74917 69955
L74917 69364
" />
<path d="M75283 69955
L75227 69926
L75199 69898
L75171 69842
L75171 69673
L75199 69617
L75227 69589
L75283 69561
L75367 69561
L75424 69589
L75452 69617
L75480 69673
L75480 69842
L75452 69898
L75424 69926
L75367 69955
L75283 69955
" />
<path d="M75733 69955
L75733 69561
" />
<path d="M75733 69617
L75761 69589
L75817 69561
L75902 69561
L75958 69589
L75986 69645
L75986 69955
" />
<path d="M75986 69645
L76014 69589
L76070 69561
L76155 69561
L76211 69589
L76239 69645
L76239 69955
" />
<path d="M76745 69926
L76689 69955
L76577 69955
L76520 69926
L76492 69870
L76492 69645
L76520 69589
L76577 69561
L76689 69561
L76745 69589
L76773 69645
L76773 69701
L76492 69758
" />
<path d="M76970 69561
L77083 69955
L77195 69673
L77308 69955
L77420 69561
" />
<path d="M77730 69955
L77673 69926
L77645 69898
L77617 69842
L77617 69673
L77645 69617
L77673 69589
L77730 69561
L77814 69561
L77870 69589
L77898 69617
L77926 69673
L77926 69842
L77898 69898
L77870 69926
L77814 69955
L77730 69955
" />
<path d="M78180 69955
L78180 69561
" />
<path d="M78180 69673
L78208 69617
L78236 69589
L78292 69561
L78348 69561
" />
<path d="M78545 69955
L78545 69364
" />
<path d="M78601 69730
L78770 69955
" />
<path d="M78770 69561
L78545 69786
" />
</g>
<g style="fill:#000000; fill-opacity:0.0; 
stroke:#000000; stroke-width:39.3701; stroke-opacity:1; 
stroke-linecap:round; stroke-linejoin:round;">
</g>
<g style="fill:#000000; fill-opacity:0.0; 
stroke:#000000; stroke-width:59.0551; stroke-opacity:1; 
stroke-linecap:round; stroke-linejoin:round;">
<path d="M70249 68464
L70446 68464
" />
<path d="M70530 68773
L70249 68773
L70249 68183
L70530 68183
" />
<path d="M70784 68773
L70784 68380
" />
<path d="M70784 68436
L70812 68408
L70868 68380
L70952 68380
L71009 68408
L71037 68464
L71037 68773
" />
<path d="M71037 68464
L71065 68408
L71121 68380
L71205 68380
L71262 68408
L71290 68464
L71290 68773
" />
<path d="M71571 68773
L71571 68380
" />
<path d="M71430 68211
L71712 68211
" />
<path d="M71937 68773
L71880 68745
L71852 68689
L71852 68183
" />
<path d="M72133 68745
L72190 68773
L72302 68773
L72358 68745
L72386 68689
L72386 68661
L72358 68605
L72302 68577
L72218 68577
L72162 68548
L72133 68492
L72133 68464
L72162 68408
L72218 68380
L72302 68380
L72358 68408
" />
<path d="M73005 68183
L73202 68773
L73399 68183
" />
<path d="M73821 68745
L73764 68773
L73652 68773
L73596 68745
L73568 68689
L73568 68464
L73596 68408
L73652 68380
L73764 68380
L73821 68408
L73849 68464
L73849 68520
L73568 68577
" />
<path d="M73568 68211
L73849 68211
" />
<path d="M74046 68380
L74186 68773
L74327 68380
" />
<path d="M74777 68745
L74721 68773
L74608 68773
L74552 68745
L74524 68689
L74524 68464
L74552 68408
L74608 68380
L74721 68380
L74777 68408
L74805 68464
L74805 68520
L74524 68577
" />
<path d="M75058 68773
L75058 68380
" />
<path d="M75058 68492
L75086 68436
L75114 68408
L75171 68380
L75227 68380
" />
<path d="M75424 68773
L75424 68380
" />
<path d="M75424 68183
L75395 68211
L75424 68239
L75452 68211
L75424 68183
L75424 68239
" />
<path d="M75677 68745
L75733 68773
L75845 68773
L75902 68745
L75930 68689
L75930 68661
L75902 68605
L75845 68577
L75761 68577
L75705 68548
L75677 68492
L75677 68464
L75705 68408
L75761 68380
L75845 68380
L75902 68408
" />
</g>
<g style="fill:#000000; fill-opacity:0.0; 
stroke:#000000; stroke-width:39.3701; stroke-opacity:1; 
stroke-linecap:round; stroke-linejoin:round;">
</g>
<g style="fill:#000000; fill-opacity:0.0; 
stroke:#000000; stroke-width:59.0551; stroke-opacity:1; 
stroke-linecap:round; stroke-linejoin:round;">
<path d="M77559 75396
L77559 76577
" />
</g>
<g style="fill:#000000; fill-opacity:0.0; 
stroke:#000000; stroke-width:39.3701; stroke-opacity:1; 
stroke-linecap:round; stroke-linejoin:round;">
</g>
<g style="fill:#000000; fill-opacity:0.0; 
stroke:#000000; stroke-width:59.0551; stroke-opacity:1; 
stroke-linecap:round; stroke-linejoin:round;">
<path d="M102756 75396
L102756 77955
" />
</g>
<g style="fill:#848484; fill-opacity:0.0; 
stroke:#848484; stroke-width:59.0551; stroke-opacity:1; 
stroke-linecap:round; stroke-linejoin:round;">
</g>
<g style="fill:#848484; fill-opacity:0.0; 
stroke:#848484; stroke-width:39.3701; stroke-opacity:1; 
stroke-linecap:round; stroke-linejoin:round;">
<path d="M41457 44197
L41457 44445
" />
<path d="M41333 44321
L41581 44321
" />
<circle cx="42393.7" cy="44862.2" r="1240.16" /> 
<path d="M46291 42854
L46606 42854
" />
<path d="M46606 42854
L46606 43484
" />
<path d="M46606 43484
L46291 43484
" />
<path d="M46291 43484
L46291 42854
" />
<path d="M47797 43608
L47177 43608
" />
<path d="M47177 43608
L47177 42608
" />
<path d="M47177 42608
L48003 42608
" />
<path d="M48003 42608
L48003 43401
" />
<path d="M48003 43401
L47797 43608
" />
<path d="M45673 43484
L45673 42854
" />
<path d="M45988 43484
L45673 43484
" />
<path d="M45988 42854
L45988 43484
" />
<path d="M45673 42854
L45988 42854
" />
<path d="M41751 41964
L43011 41964
" />
<path d="M41751 42594
L41751 41964
" />
<path d="M43011 42594
L41751 42594
" />
<path d="M43011 41964
L43011 42594
" />
<path d="M41830 42901
L42460 42901
" />
<path d="M41830 43216
L41830 42901
" />
<path d="M42460 43216
L41830 43216
" />
<path d="M42460 42901
L42460 43216
" />
<path d="M40224 42980
L40431 42773
" />
<path d="M40224 43773
L40224 42980
" />
<path d="M41051 43773
L40224 43773
" />
<path d="M41051 42773
L41051 43773
" />
<path d="M40431 42773
L41051 42773
" />
<path d="M44417.3 43614.2 A976.378 976.378 0.0 0 0 45107.7 41947.4 " />
<path d="M43726.9 41947.4 A976.378 976.378 0.0 0 0 44417.3 43614.2 " />
<path d="M45114 41948
L43736 41948
" />
<path d="M44625 40728
L44832 40935
" />
<path d="M43832 40728
L44625 40728
" />
<path d="M43832 41555
L43832 40728
" />
<path d="M44832 41555
L43832 41555
" />
<path d="M44832 40935
L44832 41555
" />
<g >
</g>
<g >
</g>
<g >
</g>
<g >
</g>
<g >
</g>
<g >
</g>
<g >
</g>
<g >
</g>
<g >
</g>
</g>
<g style="fill:#848484; fill-opacity:0.0; 
stroke:#848484; stroke-width:39.3701; stroke-opacity:1; 
stroke-linecap:round; stroke-linejoin:round;">
</g>
<g style="fill:#848484; fill-opacity:0.0; 
stroke:#848484; stroke-width:59.0551; stroke-opacity:1; 
stroke-linecap:round; stroke-linejoin:round;">
<path d="M42159 46772
L41934 46772
" />
<path d="M42046 46772
L42046 46378
L42009 46435
L41971 46472
L41934 46491
" />
<path d="M42496 46510
L42496 46772
" />
<path d="M42328 46510
L42328 46716
L42346 46753
L42384 46772
L42440 46772
L42478 46753
L42496 46735
" />
<path d="M42815 46566
L42684 46566
" />
<path d="M42684 46772
L42684 46378
L42871 46378
" />
<path d="M42328 45002
L42309 45021
L42253 45040
L42215 45040
L42159 45021
L42121 44984
L42103 44946
L42084 44871
L42084 44815
L42103 44740
L42121 44702
L42159 44665
L42215 44646
L42253 44646
L42309 44665
L42328 44684
" />
<path d="M42703 45040
L42478 45040
" />
<path d="M42590 45040
L42590 44646
L42553 44702
L42515 44740
L42478 44759
" />
<path d="M45838 43778
L45820 43816
L45801 43834
L45763 43853
L45745 43853
L45707 43834
L45688 43816
L45670 43778
L45670 43703
L45688 43666
L45707 43647
L45745 43628
L45763 43628
L45801 43647
L45820 43666
L45838 43703
L45838 43778
L45857 43816
L45876 43834
L45913 43853
L45988 43853
L46026 43834
L46045 43816
L46063 43778
L46063 43703
L46045 43666
L46026 43647
L45988 43628
L45913 43628
L45876 43647
L45857 43666
L45838 43703
" />
<path d="M45707 43478
L45688 43459
L45670 43422
L45670 43328
L45688 43291
L45707 43272
L45745 43253
L45782 43253
L45838 43272
L46063 43497
L46063 43253
" />
<path d="M45670 43009
L45670 42972
L45688 42934
L45707 42916
L45745 42897
L45820 42878
L45913 42878
L45988 42897
L46026 42916
L46045 42934
L46063 42972
L46063 43009
L46045 43047
L46026 43066
L45988 43084
L45913 43103
L45820 43103
L45745 43084
L45707 43066
L45688 43047
L45670 43009
" />
<path d="M46063 42709
L45670 42709
" />
<path d="M46063 42485
L45838 42653
" />
<path d="M45670 42485
L45895 42709
" />
</g>
<g style="fill:#848484; fill-opacity:0.0; 
stroke:#848484; stroke-width:23.622; stroke-opacity:1; 
stroke-linecap:round; stroke-linejoin:round;">
<path d="M46520 43195
L46445 43248
" />
<path d="M46520 43285
L46362 43285
L46362 43225
L46370 43210
L46377 43203
L46392 43195
L46415 43195
L46430 43203
L46437 43210
L46445 43225
L46445 43285
" />
<path d="M46520 43045
L46520 43135
" />
<path d="M46520 43090
L46362 43090
L46385 43105
L46400 43120
L46407 43135
" />
</g>
<g style="fill:#848484; fill-opacity:0.0; 
stroke:#848484; stroke-width:59.0551; stroke-opacity:1; 
stroke-linecap:round; stroke-linejoin:round;">
<path d="M46100 42350
L46156 42369
L46250 42369
L46287 42350
L46306 42331
L46325 42294
L46325 42256
L46306 42219
L46287 42200
L46250 42181
L46175 42162
L46137 42144
L46118 42125
L46100 42087
L46100 42050
L46118 42012
L46137 41994
L46175 41975
L46268 41975
L46325 41994
" />
<path d="M46493 42369
L46493 42106
" />
<path d="M46493 41975
L46475 41994
L46493 42012
L46512 41994
L46493 41975
L46493 42012
" />
<path d="M46850 42106
L46850 42425
L46831 42462
L46812 42481
L46775 42500
L46718 42500
L46681 42481
" />
<path d="M46850 42350
L46812 42369
L46737 42369
L46700 42350
L46681 42331
L46662 42294
L46662 42181
L46681 42144
L46700 42125
L46737 42106
L46812 42106
L46850 42125
" />
<path d="M47037 42106
L47037 42369
" />
<path d="M47037 42144
L47056 42125
L47093 42106
L47149 42106
L47187 42125
L47206 42162
L47206 42369
" />
<path d="M47562 42369
L47562 42162
L47543 42125
L47506 42106
L47431 42106
L47393 42125
" />
<path d="M47562 42350
L47524 42369
L47431 42369
L47393 42350
L47374 42312
L47374 42275
L47393 42237
L47431 42219
L47524 42219
L47562 42200
" />
<path d="M47806 42369
L47768 42350
L47749 42312
L47749 41975
" />
<path d="M47862 42406
L48162 42406
" />
<path d="M48331 41975
L48406 41975
L48443 41994
L48481 42031
L48499 42106
L48499 42237
L48481 42312
L48443 42350
L48406 42369
L48331 42369
L48293 42350
L48256 42312
L48237 42237
L48237 42106
L48256 42031
L48293 41994
L48331 41975
" />
<path d="M48837 42106
L48837 42369
" />
<path d="M48668 42106
L48668 42312
L48687 42350
L48724 42369
L48781 42369
L48818 42350
L48837 42331
" />
<path d="M48968 42106
L49118 42106
" />
<path d="M49024 41975
L49024 42312
L49043 42350
L49080 42369
L49118 42369
" />
<path d="M47374 43239
L47656 43239
L47712 43258
L47749 43295
L47768 43351
L47768 43389
" />
<path d="M47412 43070
L47393 43052
L47374 43014
L47374 42920
L47393 42883
L47412 42864
L47449 42845
L47487 42845
L47543 42864
L47768 43089
L47768 42845
" />
<path d="M45238 43785
L45500 43785
" />
<path d="M45088 43879
L45369 43972
L45369 43729
" />
<path d="M45482 43560
L45500 43560
L45538 43579
L45557 43597
" />
<path d="M45107 43429
L45107 43166
L45500 43335
" />
<path d="M45238 43016
L45500 43016
" />
<path d="M45275 43016
L45257 42997
L45238 42960
L45238 42904
L45257 42866
L45294 42847
L45500 42847
" />
<path d="M45294 42529
L45294 42660
" />
<path d="M45500 42660
L45107 42660
L45107 42473
" />
</g>
<g style="fill:#848484; fill-opacity:0.0; 
stroke:#848484; stroke-width:23.622; stroke-opacity:1; 
stroke-linecap:round; stroke-linejoin:round;">
<path d="M45886 43195
L45894 43203
L45901 43225
L45901 43240
L45894 43263
L45879 43278
L45864 43285
L45834 43293
L45811 43293
L45781 43285
L45766 43278
L45751 43263
L45744 43240
L45744 43225
L45751 43203
L45759 43195
" />
<path d="M45759 43135
L45751 43128
L45744 43113
L45744 43075
L45751 43060
L45759 43053
L45774 43045
L45789 43045
L45811 43053
L45901 43143
L45901 43045
" />
</g>
<g style="fill:#848484; fill-opacity:0.0; 
stroke:#848484; stroke-width:59.0551; stroke-opacity:1; 
stroke-linecap:round; stroke-linejoin:round;">
<path d="M41960 41741
L41735 41741
" />
<path d="M41847 41741
L41847 41347
L41810 41403
L41772 41441
L41735 41459
" />
<path d="M42203 41347
L42241 41347
L42278 41366
L42297 41384
L42316 41422
L42335 41497
L42335 41591
L42316 41666
L42297 41703
L42278 41722
L42241 41741
L42203 41741
L42166 41722
L42147 41703
L42128 41666
L42110 41591
L42110 41497
L42128 41422
L42147 41384
L42166 41366
L42203 41347
" />
<path d="M42503 41478
L42503 41741
" />
<path d="M42503 41516
L42522 41497
L42559 41478
L42616 41478
L42653 41497
L42672 41534
L42672 41741
" />
<path d="M42991 41534
L42859 41534
" />
<path d="M42859 41741
L42859 41347
L43047 41347
" />
</g>
<g style="fill:#848484; fill-opacity:0.0; 
stroke:#848484; stroke-width:47.2441; stroke-opacity:1; 
stroke-linecap:round; stroke-linejoin:round;">
<path d="M42447 42313
L42432 42328
L42387 42343
L42357 42343
L42312 42328
L42282 42298
L42267 42268
L42252 42208
L42252 42163
L42267 42103
L42282 42073
L42312 42043
L42357 42028
L42387 42028
L42432 42043
L42447 42058
" />
<path d="M42552 42028
L42747 42028
L42642 42148
L42687 42148
L42717 42163
L42732 42178
L42747 42208
L42747 42283
L42732 42313
L42717 42328
L42687 42343
L42597 42343
L42567 42328
L42552 42313
" />
</g>
<g style="fill:#848484; fill-opacity:0.0; 
stroke:#848484; stroke-width:59.0551; stroke-opacity:1; 
stroke-linecap:round; stroke-linejoin:round;">
<path d="M41845 42317
L41864 42299
L41901 42280
L41995 42280
L42033 42299
L42051 42317
L42070 42355
L42070 42392
L42051 42449
L41826 42674
L42070 42674
" />
<path d="M42220 42317
L42239 42299
L42276 42280
L42370 42280
L42408 42299
L42426 42317
L42445 42355
L42445 42392
L42426 42449
L42201 42674
L42445 42674
" />
</g>
<g style="fill:#848484; fill-opacity:0.0; 
stroke:#848484; stroke-width:23.622; stroke-opacity:1; 
stroke-linecap:round; stroke-linejoin:round;">
<path d="M42174 43165
L42122 43090
" />
<path d="M42084 43165
L42084 43008
L42144 43008
L42159 43015
L42167 43023
L42174 43038
L42174 43060
L42167 43075
L42159 43083
L42144 43090
L42084 43090
" />
<path d="M42234 43023
L42242 43015
L42257 43008
L42294 43008
L42309 43015
L42317 43023
L42324 43038
L42324 43053
L42317 43075
L42227 43165
L42324 43165
" />
</g>
<g style="fill:#848484; fill-opacity:0.0; 
stroke:#848484; stroke-width:59.0551; stroke-opacity:1; 
stroke-linecap:round; stroke-linejoin:round;">
<path d="M39344 44350
L39400 44369
L39494 44369
L39531 44350
L39550 44331
L39569 44294
L39569 44256
L39550 44219
L39531 44200
L39494 44181
L39419 44162
L39381 44144
L39362 44125
L39344 44087
L39344 44050
L39362 44012
L39381 43994
L39419 43975
L39512 43975
L39569 43994
" />
<path d="M39737 44369
L39737 44106
" />
<path d="M39737 43975
L39719 43994
L39737 44012
L39756 43994
L39737 43975
L39737 44012
" />
<path d="M40094 44106
L40094 44425
L40075 44462
L40056 44481
L40019 44500
L39962 44500
L39925 44481
" />
<path d="M40094 44350
L40056 44369
L39981 44369
L39944 44350
L39925 44331
L39906 44294
L39906 44181
L39925 44144
L39944 44125
L39981 44106
L40056 44106
L40094 44125
" />
<path d="M40281 44106
L40281 44369
" />
<path d="M40281 44144
L40300 44125
L40337 44106
L40394 44106
L40431 44125
L40450 44162
L40450 44369
" />
<path d="M40806 44369
L40806 44162
L40787 44125
L40750 44106
L40675 44106
L40637 44125
" />
<path d="M40806 44350
L40769 44369
L40675 44369
L40637 44350
L40619 44312
L40619 44275
L40637 44237
L40675 44219
L40769 44219
L40806 44200
" />
<path d="M41050 44369
L41012 44350
L40994 44312
L40994 43975
" />
<path d="M41106 44406
L41406 44406
" />
<path d="M41500 44369
L41500 43975
" />
<path d="M41687 44369
L41687 43975
L41912 44369
L41912 43975
" />
<path d="M40422 43404
L40703 43404
L40759 43423
L40797 43461
L40815 43517
L40815 43554
" />
<path d="M40815 43011
L40815 43236
" />
<path d="M40815 43123
L40422 43123
L40478 43161
L40515 43198
L40534 43236
" />
<path d="M43686 41511
L43742 41529
L43761 41548
L43779 41586
L43779 41642
L43761 41679
L43742 41698
L43704 41717
L43554 41717
L43554 41323
L43686 41323
L43723 41342
L43742 41361
L43761 41398
L43761 41436
L43742 41473
L43723 41492
L43686 41511
L43554 41511
" />
<path d="M44173 41679
L44154 41698
L44098 41717
L44061 41717
L44004 41698
L43967 41661
L43948 41623
L43929 41548
L43929 41492
L43948 41417
L43967 41380
L44004 41342
L44061 41323
L44098 41323
L44154 41342
L44173 41361
" />
<path d="M44529 41323
L44342 41323
L44323 41511
L44342 41492
L44379 41473
L44473 41473
L44511 41492
L44529 41511
L44548 41548
L44548 41642
L44529 41679
L44511 41698
L44473 41717
L44379 41717
L44342 41698
L44323 41679
" />
<path d="M44886 41455
L44886 41717
" />
<path d="M44792 41305
L44698 41586
L44942 41586
" />
<path d="M45054 41323
L45317 41323
L45148 41717
" />
<path d="M44379 44254
L44342 44236
L44304 44198
L44248 44142
L44211 44123
L44173 44123
" />
<path d="M44192 44217
L44154 44198
L44117 44161
L44098 44086
L44098 43955
L44117 43880
L44154 43842
L44192 43823
L44267 43823
L44304 43842
L44342 43880
L44361 43955
L44361 44086
L44342 44161
L44304 44198
L44267 44217
L44192 44217
" />
<path d="M44736 44217
L44511 44217
" />
<path d="M44623 44217
L44623 43823
L44586 43880
L44548 43917
L44511 43936
" />
<path d="M43199 41441
L43199 41197
L43349 41329
L43349 41272
L43368 41235
L43387 41216
L43424 41197
L43518 41197
L43555 41216
L43574 41235
L43593 41272
L43593 41385
L43574 41422
L43555 41441
" />
<path d="M43199 41085
L43593 40954
L43199 40823
" />
<path d="M44023 41113
L44079 41132
L44098 41151
L44117 41188
L44117 41244
L44098 41282
L44079 41301
L44042 41319
L43892 41319
L43892 40926
L44023 40926
L44060 40944
L44079 40963
L44098 41001
L44098 41038
L44079 41076
L44060 41094
L44023 41113
L43892 41113
" />
<path d="M44229 40926
L44454 40926
" />
<path d="M44342 41319
L44342 40926
" />
<path d="M44791 41319
L44567 41319
" />
<path d="M44679 41319
L44679 40926
L44642 40982
L44604 41019
L44567 41038
" />
<g >
</g>
</g>
<g style="fill:#000000; fill-opacity:0.0; 
stroke:#000000; stroke-width:59.0551; stroke-opacity:1; 
stroke-linecap:round; stroke-linejoin:round;">
</g>
<g style="fill:#C2C200; fill-opacity:0.0; 
stroke:#C2C200; stroke-width:59.0551; stroke-opacity:1; 
stroke-linecap:round; stroke-linejoin:round;">
</g>
<g style="fill:#C2C200; fill-opacity:0.0; 
stroke:#C2C200; stroke-width:19.685; stroke-opacity:1; 
stroke-linecap:round; stroke-linejoin:round;">
<path d="M39956.7 40137.8 A4757.48 4757.48 0.0 0 0 40427.5 46391.5 " />
<path d="M47090.6 46393.7 A4757.89 4757.89 0.0 0 0 47563.2 40137.3 " />
<path d="M40427 46391
L47090 46393
" />
<path d="M47563 40137
L39956 40137
" />
<g >
</g>
<g >
</g>
<g >
</g>
<g >
</g>
<g >
</g>
<g >
</g>
<g >
</g>
<g >
</g>
<g >
</g>
<g >
</g>
</g> 
</svg>
